SplineFontDB: 3.0
FontName: Oxygen-Bold
FullName: Oxygen Bold
FamilyName: Oxygen
Weight: Bold
Copyright: Copyright (c) 2011-12 by vernon adams. All rights reserved.
Version: 0.2
ItalicAngle: 0
UnderlinePosition: -119
UnderlineWidth: 119
Ascent: 1638
Descent: 410
sfntRevision: 0x00003333
LayerCount: 2
Layer: 0 1 "Back"  1
Layer: 1 1 "Fore"  0
XUID: [1021 161 1863723762 895764]
FSType: 8
OS2Version: 4
OS2_WeightWidthSlopeOnly: 0
OS2_UseTypoMetrics: 1
CreationTime: 1333874826
ModificationTime: 1335302946
PfmFamily: 17
TTFWeight: 700
TTFWidth: 5
LineGap: 0
VLineGap: 0
Panose: 2 0 8 3 0 0 0 9 0 4
OS2TypoAscent: 1901
OS2TypoAOffset: 0
OS2TypoDescent: -483
OS2TypoDOffset: 0
OS2TypoLinegap: 0
OS2WinAscent: 1901
OS2WinAOffset: 0
OS2WinDescent: 483
OS2WinDOffset: 0
HheadAscent: 1901
HheadAOffset: 0
HheadDescent: -483
HheadDOffset: 0
OS2SubXSize: 0
OS2SubYSize: 0
OS2SubXOff: 0
OS2SubYOff: 0
OS2SupXSize: 0
OS2SupYSize: 0
OS2SupXOff: 0
OS2SupYOff: 0
OS2StrikeYSize: 0
OS2StrikeYPos: 0
OS2Vendor: 'newt'
OS2CodePages: 20000097.00000000
OS2UnicodeRanges: a00002ff.4000204b.00000000.00000000
Lookup: 258 0 0 "'kern' Horizontal Kerning in Latin lookup 0"  {"'kern' Horizontal Kerning in Latin lookup 0 per glyph data 0"  "'kern' Horizontal Kerning in Latin lookup 0 kerning class 1"  } ['kern' ('DFLT' <'dflt' > 'latn' <'dflt' > ) ]
MarkAttachClasses: 2
"MarkClass-1" 5 h m n
DEI: 91125
KernClass2: 34 26 "'kern' Horizontal Kerning in Latin lookup 0 kerning class 1" 
 89 A Agrave Aacute Acircumflex Atilde Adieresis Aring Amacron Abreve Aogonek uni0200 uni0202
 1 B
 75 D O Q Eth Ograve Oacute Ocircumflex Otilde Odieresis Oslash uni020C uni020E
 1 F
 1 K
 1 L
 7 P Thorn
 44 R Racute Rcommaaccent Rcaron uni0210 uni0212
 22 T Tcommaaccent uni021A
 53 U Ugrave Uacute Ucircumflex Udieresis uni0214 uni0216
 1 V
 1 W
 18 Y Yacute Ydieresis
 89 a agrave aacute acircumflex atilde adieresis aring amacron abreve aogonek uni0201 uni0203
 1 b

StartChar: .notdef
Encoding: 65536 -1 0
Width: 748
Flags: W
HStem: 0 68<136 544> 1297 68<136 544>
VStem: 68 68<68 1297> 544 68<68 1297>
LayerCount: 2
Fore
SplineSet
68 0 m 1,0,-1
 68 1365 l 1,1,-1
 612 1365 l 1,2,-1
 612 0 l 1,3,-1
 68 0 l 1,0,-1
136 68 m 1,4,-1
 544 68 l 1,5,-1
 544 1297 l 1,6,-1
 136 1297 l 1,7,-1
 136 68 l 1,4,-1
EndSplineSet
EndChar

StartChar: exclam
Encoding: 33 33 4
Width: 399
Flags: W
HStem: -20 321<90.9938 310.044> 1425 20G<79 335>
VStem: 39 321<29.4253 249.982> 79 256<1051.89 1445>
LayerCount: 2
Fore
SplineSet
39 139 m 128,-1,1
 39 205 39 205 87 253 c 0,2,3
 134 301 134 301 200 301 c 128,-1,4
 266 301 266 301 313 253 c 128,-1,5
 360 205 360 205 360 139 c 128,-1,6
 360 73 360 73 313 26.5 c 128,-1,7
 266 -20 266 -20 200 -20 c 128,-1,8
 134 -20 134 -20 86.5 26.5 c 128,-1,0
 39 73 39 73 39 139 c 128,-1,1
335 1445 m 1,9,-1
 335 1198 l 1,10,-1
 269 454 l 1,11,-1
 152 454 l 1,12,-1
 79 1198 l 1,13,-1
 79 1445 l 1,14,-1
 335 1445 l 1,9,-1
EndSplineSet
EndChar

StartChar: quotedbl
Encoding: 34 34 5
Width: 647
Flags: W
HStem: 937 516<99 279 402 581>
VStem: 61 218<1258.33 1453> 99 180<937 1131.67> 369 212<1228.84 1453> 402 179<937 1161.16>
LayerCount: 2
Fore
SplineSet
402 937 m 1,0,-1
 369 1453 l 1,1,-1
 581 1453 l 1,2,-1
 581 937 l 1,3,-1
 402 937 l 1,0,-1
99 937 m 1,4,-1
 61 1453 l 1,5,-1
 279 1453 l 1,6,-1
 279 937 l 1,7,-1
 99 937 l 1,4,-1
EndSplineSet
EndChar

StartChar: numbersign
Encoding: 35 35 6
Width: 1067
Flags: W
HStem: 380 186<49 215 441 562 789 928> 895 185<132 306 537 658 888 1012> 1435 20G<408.893 608 759.213 961>
LayerCount: 2
Fore
SplineSet
1033 1080 m 1,0,-1
 1012 897 l 1,1,-1
 853 897 l 1,2,-1
 789 566 l 1,3,-1
 947 566 l 1,4,-1
 928 380 l 1,5,-1
 760 380 l 1,6,-1
 682 -23 l 1,7,-1
 487 -23 l 1,8,-1
 562 380 l 1,9,-1
 411 380 l 1,10,-1
 333 -23 l 1,11,-1
 136 -23 l 1,12,-1
 215 380 l 1,13,-1
 34 380 l 1,14,-1
 49 566 l 1,15,-1
 248 566 l 1,16,-1
 306 895 l 1,17,-1
 117 895 l 1,18,-1
 132 1080 l 1,19,-1
 336 1080 l 1,20,-1
 413 1455 l 1,21,-1
 608 1455 l 1,22,-1
 537 1080 l 1,23,-1
 692 1080 l 1,24,-1
 763 1455 l 1,25,-1
 961 1455 l 1,26,-1
 888 1080 l 1,27,-1
 1033 1080 l 1,0,-1
658 897 m 1,28,-1
 502 897 l 1,29,-1
 441 566 l 1,30,-1
 597 566 l 1,31,-1
 658 897 l 1,28,-1
EndSplineSet
EndChar

StartChar: dollar
Encoding: 36 36 7
Width: 1176
Flags: W
HStem: -20 226<305.607 561 663 780.56> 1251 226<425.605 561 663 905.908>
VStem: 74.4967 298.503<980.629 1202.53> 561 102<-196 -20 211 587 906 1251 1477 1639> 850 296.507<269.312 505.171>
LayerCount: 2
Fore
SplineSet
561 1639 m 1,0,-1
 663 1639 l 1,1,-1
 663 1477 l 1,2,3
 930 1467 930 1467 1075 1363 c 1,4,-1
 998 1164 l 1,5,6
 872 1241 872 1241 663 1251 c 1,7,-1
 663 871 l 1,8,-1
 722 851 l 2,9,10
 901 790 901 790 979 736 c 0,11,12
 1062 677 1062 677 1100 610 c 1,13,14
 1146.25 525.539 1146.25 525.539 1146.51 418.167 c 0,15,16
 1146.51 314.932 1146.51 314.932 1110.5 237 c 0,17,18
 1074 158 1074 158 1008 106 c 0,19,20
 875 0 875 0 663 -17 c 1,21,-1
 663 -196 l 1,22,-1
 561 -196 l 1,23,-1
 561 -20 l 1,24,25
 252 -16 252 -16 63 104 c 1,26,-1
 142 321 l 1,27,28
 218 274 218 274 332 241.5 c 128,-1,29
 446 209 446 209 561 206 c 1,30,-1
 561 621 l 1,31,-1
 440 661 l 2,32,33
 238 728 238 728 150 836 c 0,34,35
 74.4967 929.386 74.4967 929.386 74.4967 1045.47 c 0,36,37
 74.4967 1162.97 74.4967 1162.97 112.5 1241 c 0,38,39
 150 1318 150 1318 217 1368 c 0,40,41
 351 1467 351 1467 561 1477 c 1,42,-1
 561 1639 l 1,0,-1
561 906 m 1,43,-1
 561 1251 l 1,44,45
 373 1237 373 1237 373 1096 c 0,46,47
 373 1020 373 1020 411.5 981.5 c 128,-1,48
 450 943 450 943 525 918 c 2,49,-1
 561 906 l 1,43,-1
663 587 m 1,50,-1
 663 211 l 1,51,52
 850 237 850 237 850 380 c 0,53,54
 850 467 850 467 796 515 c 0,55,56
 750 556 750 556 663 587 c 1,50,-1
EndSplineSet
EndChar

StartChar: percent
Encoding: 37 37 8
Width: 1734
Flags: W
HStem: -17 173<1229.68 1450.35> 597 173<1219.18 1447.56> 660 173<286.43 504.097> 1279 173<287.944 506.788>
VStem: 37 197<887.1 1224.03> 561 209<892.101 1223.53> 966 211<216.338 556.552> 1502 196<209.964 540.153>
LayerCount: 2
Fore
SplineSet
273.5 893 m 128,-1,1
 313 833 313 833 395.5 833 c 128,-1,2
 478 833 478 833 519.5 894.5 c 128,-1,3
 561 956 561 956 561 1057.5 c 128,-1,4
 561 1159 561 1159 520 1219 c 128,-1,5
 479 1279 479 1279 397 1279 c 128,-1,6
 315 1279 315 1279 274.5 1218 c 128,-1,7
 234 1157 234 1157 234 1055 c 128,-1,0
 234 953 234 953 273.5 893 c 128,-1,1
1196 1450 m 1,8,-1
 1428 1450 l 1,9,-1
 503 -41 l 1,10,-1
 273 -41 l 1,11,-1
 1193 1446 l 1,12,-1
 1196 1450 l 1,8,-1
666.5 773.5 m 128,-1,14
 563 660 563 660 394.5 660 c 128,-1,15
 226 660 226 660 131.5 771 c 128,-1,16
 37 882 37 882 37 1054 c 128,-1,17
 37 1226 37 1226 134.5 1339 c 128,-1,18
 232 1452 232 1452 402 1452 c 128,-1,19
 572 1452 572 1452 671 1341 c 128,-1,20
 770 1230 770 1230 770 1058 c 2,21,-1
 770 1056 l 2,22,13
 770 887 770 887 666.5 773.5 c 128,-1,14
966 374 m 1,23,24
 960 408 960 408 960 442 c 0,25,26
 960 590 960 590 1060.5 680 c 128,-1,27
 1161 770 1161 770 1333.5 770 c 128,-1,28
 1506 770 1506 770 1602 660.5 c 128,-1,29
 1698 551 1698 551 1698 380 c 128,-1,30
 1698 209 1698 209 1600 96 c 128,-1,31
 1502 -17 1502 -17 1334 -17 c 128,-1,32
 1166 -17 1166 -17 1066 93.5 c 128,-1,33
 966 204 966 204 966 373 c 2,34,-1
 966 374 l 1,23,24
1217.5 214.5 m 128,-1,36
 1258 156 1258 156 1340.5 156 c 128,-1,37
 1423 156 1423 156 1462.5 217 c 128,-1,38
 1502 278 1502 278 1502 379 c 128,-1,39
 1502 480 1502 480 1459 538.5 c 128,-1,40
 1416 597 1416 597 1326 597 c 0,41,42
 1195 597 1195 597 1180 446 c 0,43,44
 1177 415 1177 415 1177 373 c 0,45,35
 1177 273 1177 273 1217.5 214.5 c 128,-1,36
EndSplineSet
EndChar

StartChar: ampersand
Encoding: 38 38 9
Width: 1400
Flags: W
HStem: -23 203<398.333 768.796> -17 21G<1123.82 1225.64> 1305 178<490.288 703.259>
VStem: 41 249<281.193 571.54> 216 232<1012.6 1268.92> 744 241<1040.78 1270.37>
LayerCount: 2
Fore
SplineSet
378 828 m 1,0,1
 252 972 252 972 228 1055 c 0,2,3
 216 1098 216 1098 216 1164.5 c 128,-1,4
 216 1231 216 1231 247.5 1297.5 c 0,5,6
 278 1364 278 1364 332 1404 c 0,7,8
 438.667 1483.01 438.667 1483.01 587.278 1483.01 c 0,9,-1
 591 1483 l 0,10,-1
 594.915 1483.01 l 0,11,12
 739.573 1483.01 739.573 1483.01 856 1410 c 0,13,14
 914 1374 914 1374 949.5 1309.5 c 128,-1,15
 985 1245 985 1245 985 1169.5 c 128,-1,16
 985 1094 985 1094 958 1033.5 c 0,17,18
 932 973 932 973 882 926 c 0,19,20
 793 842 793 842 671 780 c 1,21,-1
 1001 413 l 1,22,23
 1078 501 1078 501 1154 645 c 1,24,-1
 1335 525 l 1,25,26
 1253 367 1253 367 1154 255 c 1,27,-1
 1362 36 l 1,28,-1
 1143 -17 l 1,29,-1
 1003 129 l 1,30,31
 798 -23 798 -23 560 -23 c 0,32,33
 297 -22 297 -22 152 118 c 0,34,35
 41 226 41 226 41 407 c 0,36,37
 42 622 42 622 278 770 c 0,38,39
 320 796 320 796 378 828 c 1,0,1
493 692 m 1,40,41
 396 636 396 636 376 616 c 128,-1,42
 356 596 356 596 337.5 575.5 c 0,43,44
 319 556 319 556 311 536 c 0,45,46
 290 485 290 485 290 426.5 c 128,-1,47
 290 368 290 368 312.5 318.5 c 0,48,49
 335 270 335 270 374 240 c 0,50,51
 453 180 453 180 549 180 c 0,52,53
 740 180 740 180 859 282 c 1,54,-1
 493 692 l 1,40,41
704.5 1269.5 m 128,-1,56
 665 1305 665 1305 597.5 1305 c 128,-1,57
 530 1305 530 1305 489 1268.5 c 128,-1,58
 448 1232 448 1232 448 1158 c 0,59,60
 448 1046 448 1046 555 929 c 1,61,62
 695 1010 695 1010 728 1086 c 0,63,64
 744 1122 744 1122 744 1178 c 128,-1,55
 744 1234 744 1234 704.5 1269.5 c 128,-1,56
EndSplineSet
EndChar

StartChar: quotesingle
Encoding: 39 39 10
Width: 345
Flags: W
HStem: 892 561<98 248>
VStem: 98 150<892 1109.36>
LayerCount: 2
Fore
SplineSet
248 892 m 1,0,-1
 98 892 l 1,1,-1
 61 1453 l 1,2,-1
 278 1453 l 1,3,-1
 248 892 l 1,0,-1
EndSplineSet
EndChar

StartChar: parenleft
Encoding: 40 40 11
Width: 624
Flags: W
HStem: 1496 20G<325 630>
VStem: 94 282.491<305.86 961.379>
LayerCount: 2
Fore
SplineSet
115 380 m 0,0,1
 94 502 94 502 94 655 c 128,-1,2
 94 808 94 808 134.5 976 c 128,-1,3
 175 1144 175 1144 230 1263.5 c 128,-1,4
 285 1383 285 1383 365 1516 c 1,5,-1
 630 1516 l 1,6,7
 470 1213 470 1213 404 886 c 0,8,9
 376.491 752.386 376.491 752.386 376.491 638.076 c 0,10,11
 376.491 520.583 376.491 520.583 403 386 c 0,12,13
 429 254 429 254 466 149 c 0,14,15
 540 -62 540 -62 604 -182 c 1,16,-1
 630 -230 l 1,17,-1
 365 -230 l 1,18,19
 163 101 163 101 115 380 c 0,0,1
EndSplineSet
EndChar

StartChar: parenright
Encoding: 41 41 12
Width: 624
Flags: W
HStem: 1496 20G<-6 299>
VStem: 247.509 282.491<310.536 969.559>
LayerCount: 2
Fore
SplineSet
259 -230 m 1,0,-1
 -6 -230 l 1,1,2
 152 54 152 54 220 384 c 0,3,4
 247.509 515.649 247.509 515.649 247.509 629.924 c 0,5,6
 247.509 747.388 247.509 747.388 221 883.5 c 0,7,8
 196 1017 196 1017 158 1125 c 0,9,10
 80 1349 80 1349 20 1466 c 1,11,-1
 -6 1516 l 1,12,-1
 259 1516 l 1,13,14
 339 1383 339 1383 394 1263.5 c 128,-1,15
 449 1144 449 1144 489.5 976 c 128,-1,16
 530 808 530 808 530 655 c 128,-1,17
 530 502 530 502 509 380 c 128,-1,18
 488 258 488 258 446 149 c 0,19,20
 374 -42 374 -42 259 -230 c 1,0,-1
EndSplineSet
EndChar

StartChar: asterisk
Encoding: 42 42 13
Width: 1060
Flags: W
HStem: 1424 20G<422 638>
LayerCount: 2
Fore
SplineSet
638 1444 m 1,0,-1
 612 1097 l 1,1,-1
 916 1246 l 1,2,-1
 1010 1058 l 1,3,-1
 670 935 l 1,4,-1
 922 637 l 1,5,-1
 722 517 l 1,6,-1
 530 826 l 1,7,-1
 338 517 l 1,8,-1
 138 637 l 1,9,-1
 390 935 l 1,10,-1
 50 1058 l 1,11,-1
 144 1246 l 1,12,-1
 448 1097 l 1,13,-1
 422 1444 l 1,14,-1
 638 1444 l 1,0,-1
EndSplineSet
EndChar

StartChar: plus
Encoding: 43 43 14
Width: 1200
Flags: W
HStem: 460 199<68 489 710 1133>
VStem: 489 219<62 460 659 1057>
LayerCount: 2
Fore
SplineSet
67 659 m 1,0,-1
 492 659 l 1,1,-1
 492 1057 l 1,2,-1
 710 1057 l 1,3,-1
 710 659 l 1,4,-1
 1133 659 l 1,5,-1
 1133 460 l 1,6,-1
 708 460 l 1,7,-1
 708 62 l 1,8,-1
 489 62 l 1,9,-1
 489 460 l 1,10,-1
 68 460 l 1,11,-1
 67 659 l 1,0,-1
EndSplineSet
EndChar

StartChar: comma
Encoding: 44 44 15
Width: 424
Flags: W
HStem: -306 530<151 218>
VStem: 36 355
LayerCount: 2
Fore
SplineSet
391 224 m 1,0,-1
 218 -306 l 1,1,-1
 36 -306 l 1,2,-1
 151 224 l 1,3,-1
 391 224 l 1,0,-1
EndSplineSet
EndChar

StartChar: hyphen
Encoding: 45 45 16
Width: 698
Flags: W
HStem: 433 194<70 628>
VStem: 70 558<433 627>
LayerCount: 2
Fore
SplineSet
70 433 m 1,0,-1
 70 627 l 1,1,-1
 628 627 l 1,2,-1
 628 433 l 1,3,-1
 70 433 l 1,0,-1
EndSplineSet
EndChar

StartChar: period
Encoding: 46 46 17
Width: 426
Flags: W
HStem: -20 321<108.017 328.044>
VStem: 57 321<29.4253 249.982>
LayerCount: 2
Fore
SplineSet
331 26.5 m 128,-1,1
 284 -20 284 -20 218.5 -20 c 128,-1,2
 153 -20 153 -20 105 26.5 c 128,-1,3
 57 73 57 73 57 139 c 128,-1,4
 57 205 57 205 105 253 c 128,-1,5
 153 301 153 301 218.5 301 c 128,-1,6
 284 301 284 301 331 253 c 128,-1,7
 378 205 378 205 378 139 c 128,-1,0
 378 73 378 73 331 26.5 c 128,-1,1
EndSplineSet
EndChar

StartChar: slash
Encoding: 47 47 18
Width: 922
Flags: W
LayerCount: 2
Fore
SplineSet
280 -179 m 1,0,-1
 51 -179 l 1,1,-1
 636 1497 l 1,2,-1
 869 1497 l 1,3,-1
 280 -179 l 1,0,-1
EndSplineSet
EndChar

StartChar: zero
Encoding: 48 48 19
Width: 1298
Flags: W
HStem: -20 226<519.335 778.656> 1252 226<520.705 781.055>
VStem: 95 294.969<391.5 1074.25> 906 297<381.704 1069.3>
LayerCount: 2
Fore
SplineSet
649 1478 m 0,0,1
 770 1478 770 1478 866 1436 c 128,-1,2
 962 1394 962 1394 1024 1324 c 128,-1,3
 1086 1254 1086 1254 1127 1156 c 128,-1,4
 1168 1058 1168 1058 1185.5 952 c 128,-1,5
 1203 846 1203 846 1203 726 c 128,-1,6
 1203 606 1203 606 1186 501 c 128,-1,7
 1169 396 1169 396 1128 298.5 c 128,-1,8
 1087 201 1087 201 1025 132 c 128,-1,9
 963 63 963 63 867 21.5 c 128,-1,10
 771 -20 771 -20 649 -20 c 128,-1,11
 527 -20 527 -20 431 21.5 c 128,-1,12
 335 63 335 63 273 132 c 0,13,14
 211 200 211 200 170 298 c 0,15,16
 95 476 95 476 95 726 c 0,17,18
 95 1123 95 1123 274 1325 c 0,19,20
 410 1478 410 1478 649 1478 c 0,0,1
655 206 m 0,21,22
 714 206 714 206 761 237.5 c 128,-1,23
 808 269 808 269 835.5 318.5 c 128,-1,24
 863 368 863 368 879 440 c 0,25,26
 906 562 906 562 906 689.5 c 128,-1,27
 906 817 906 817 900.5 884.5 c 128,-1,28
 895 952 895 952 878.5 1023.5 c 128,-1,29
 862 1095 862 1095 834 1143 c 0,30,31
 772 1252 772 1252 649 1252 c 0,32,33
 586 1252 586 1252 538.5 1221.5 c 128,-1,34
 491 1191 491 1191 464 1143.5 c 0,35,36
 436 1096 436 1096 420 1025 c 0,37,38
 389.969 896.156 389.969 896.156 389.969 751.358 c 0,39,40
 389.969 746.688 389.969 746.688 390 742 c 0,41,42
 390 621 390 621 410 489 c 0,43,44
 428 370 428 370 484 288 c 0,45,46
 542 206 542 206 655 206 c 0,21,22
EndSplineSet
EndChar

StartChar: one
Encoding: 49 49 20
Width: 698
Flags: W
HStem: 1 21G<299 577> 1080 21G<44 90.789> 1427 20G<299.194 577>
VStem: 299 278<1 1189>
LayerCount: 2
Fore
SplineSet
337 1447 m 1,0,-1
 577 1447 l 1,1,-1
 577 1 l 1,2,-1
 299 1 l 1,3,-1
 299 1189 l 1,4,-1
 44 1080 l 1,5,-1
 44 1292 l 1,6,-1
 337 1447 l 1,0,-1
EndSplineSet
EndChar

StartChar: two
Encoding: 50 50 21
Width: 1014
Flags: W
HStem: 0 211<377 904> 1252 226<256.983 559.474>
VStem: 645 294.005<865.462 1165.49>
LayerCount: 2
Fore
SplineSet
50 1335 m 1,0,1
 211 1478 211 1478 437.5 1478 c 128,-1,2
 664 1478 664 1478 801.5 1361 c 0,3,4
 938.533 1244.4 938.533 1244.4 939.005 1037.86 c 0,5,6
 939.005 819.863 939.005 819.863 736 588 c 0,7,8
 704 552 704 552 661 507 c 2,9,-1
 377 211 l 1,10,-1
 924 211 l 1,11,-1
 904 0 l 1,12,-1
 53 0 l 1,13,-1
 53 233 l 1,14,-1
 494 720 l 2,15,16
 566 799 566 799 605.5 875 c 128,-1,17
 645 951 645 951 645 1039 c 128,-1,18
 645 1127 645 1127 581.5 1189.5 c 128,-1,19
 518 1252 518 1252 431 1252 c 0,20,21
 279 1252 279 1252 129 1122 c 1,22,-1
 50 1335 l 1,0,1
EndSplineSet
EndChar

StartChar: three
Encoding: 51 51 22
Width: 1049
Flags: W
HStem: -20 226<227.247 613.631> 644 220<260 583.781> 1252 226<210.735 591.564>
VStem: 672 275<950.962 1172.5> 693 297<286.844 555.121>
LayerCount: 2
Fore
SplineSet
990 406 m 1,0,-1
 990 394 l 2,1,2
 990 190 990 190 836 82 c 0,3,4
 691 -20 691 -20 470 -20 c 1,5,6
 345 -20 345 -20 231.5 12.5 c 128,-1,7
 118 45 118 45 47 106 c 1,8,-1
 122 309 l 1,9,10
 175 264 175 264 272.5 235 c 128,-1,11
 370 206 370 206 469 206 c 128,-1,12
 568 206 568 206 630.5 264 c 128,-1,13
 693 322 693 322 693 396 c 128,-1,14
 693 470 693 470 675 511.5 c 128,-1,15
 657 553 657 553 628 578 c 0,16,17
 598 604 598 604 548 618 c 0,18,19
 462 643 462 643 317 644 c 1,20,-1
 260 644 l 1,21,-1
 260 864 l 1,22,-1
 317 864 l 2,23,24
 483 864 483 864 552 893 c 128,-1,25
 621 922 621 922 646.5 961 c 128,-1,26
 672 1000 672 1000 672 1065.5 c 128,-1,27
 672 1131 672 1131 611.5 1191.5 c 128,-1,28
 551 1252 551 1252 445 1252 c 0,29,30
 268 1252 268 1252 121 1162 c 1,31,-1
 46 1367 l 1,32,33
 233 1478 233 1478 458 1478 c 128,-1,34
 683 1478 683 1478 815 1364.5 c 128,-1,35
 947 1251 947 1251 947 1078 c 0,36,37
 947 965 947 965 888 882 c 128,-1,38
 829 799 829 799 715 761 c 1,39,40
 845 728 845 728 916 634.5 c 128,-1,41
 987 541 987 541 990 406 c 1,0,-1
EndSplineSet
EndChar

StartChar: four
Encoding: 52 52 23
Width: 1241
Flags: W
HStem: 0 21G<718 1016> 309 215<362 718 1016 1177> 1425 20G<625.325 1016>
VStem: 719 297<0 309 525 1179>
LayerCount: 2
Fore
SplineSet
1177 309 m 1,0,-1
 1016 309 l 1,1,-1
 1016 0 l 1,2,-1
 718 0 l 1,3,-1
 718 309 l 1,4,-1
 83 309 l 1,5,-1
 83 496 l 1,6,-1
 637 1445 l 1,7,-1
 1016 1445 l 1,8,-1
 1016 525 l 1,9,-1
 1190 525 l 1,10,-1
 1177 309 l 1,0,-1
719 1179 m 1,11,-1
 362 524 l 1,12,-1
 719 524 l 1,13,-1
 719 1179 l 1,11,-1
EndSplineSet
EndChar

StartChar: five
Encoding: 53 53 24
Width: 1104
Flags: W
HStem: -20 226<304.656 653.484> 720 218<430.953 660.978> 1225 220<441 960>
VStem: 746 283<302.92 633.551>
LayerCount: 2
Fore
SplineSet
975 1445 m 1,0,-1
 960 1225 l 1,1,-1
 441 1225 l 1,2,-1
 429 900 l 1,3,4
 510 938 510 938 590 938 c 0,5,6
 783 938 783 938 906 807.5 c 128,-1,7
 1029 677 1029 677 1029 460.5 c 128,-1,8
 1029 244 1029 244 900.5 112 c 128,-1,9
 772 -20 772 -20 535 -20 c 0,10,11
 374 -20 374 -20 186 71 c 0,12,13
 142 92 142 92 119 106 c 2,14,-1
 96 121 l 1,15,-1
 178 324 l 1,16,17
 261 255 261 255 398 219 c 0,18,19
 448 206 448 206 494 206 c 0,20,21
 622 206 622 206 684 278 c 128,-1,22
 746 350 746 350 746 466.5 c 128,-1,23
 746 583 746 583 687.5 651.5 c 128,-1,24
 629 720 629 720 529.5 720 c 128,-1,25
 430 720 430 720 332 609 c 1,26,-1
 152 648 l 1,27,-1
 188 1445 l 1,28,-1
 975 1445 l 1,0,-1
EndSplineSet
EndChar

StartChar: six
Encoding: 54 54 25
Width: 1191
Flags: W
HStem: -20 215<436.968 754.456> 717 201<579.589 763.991> 1425 20G<623.072 992>
VStem: 50 296<287.361 627.88> 855 302<296.134 624.04>
LayerCount: 2
Fore
SplineSet
638 1445 m 1,0,-1
 992 1445 l 1,1,-1
 576 907 l 1,2,3
 628 918 628 918 659 918 c 0,4,5
 879 918 879 918 1018 791 c 128,-1,6
 1157 664 1157 664 1157 459 c 0,7,8
 1157 315 1157 315 1084 205 c 128,-1,9
 1011 95 1011 95 886.5 37.5 c 128,-1,10
 762 -20 762 -20 604.5 -20 c 128,-1,11
 447 -20 447 -20 321 36.5 c 128,-1,12
 195 93 195 93 122.5 203 c 128,-1,13
 50 313 50 313 50 460 c 0,14,15
 50 626 50 626 162 800 c 0,16,17
 186 836 186 836 226 893 c 1,18,-1
 638 1445 l 1,0,-1
855 455 m 0,19,20
 855 717 855 717 597 717 c 0,21,22
 346 717 346 717 346 450 c 0,23,24
 346 331 346 331 410.5 263 c 128,-1,25
 475 195 475 195 595.5 195 c 128,-1,26
 716 195 716 195 785.5 265.5 c 128,-1,27
 855 336 855 336 855 455 c 0,19,20
EndSplineSet
EndChar

StartChar: seven
Encoding: 55 55 26
Width: 1001
Flags: W
HStem: -1 21G<210 504.57> 1230 216<52 664>
LayerCount: 2
Fore
SplineSet
210 -1 m 1,0,-1
 664 1230 l 1,1,-1
 52 1230 l 1,2,-1
 52 1446 l 1,3,-1
 983 1446 l 1,4,-1
 983 1283 l 1,5,-1
 497 -1 l 1,6,-1
 210 -1 l 1,0,-1
EndSplineSet
EndChar

StartChar: eight
Encoding: 56 56 27
Width: 1125
Flags: W
HStem: -20 192<396.881 728.59> 1289 189<405.781 720.579>
VStem: 49 267<250.812 540.982> 76 247<949.427 1212.92> 802 248<946.076 1212.82> 809 267<250.08 541.082>
LayerCount: 2
Fore
SplineSet
761 6.5 m 128,-1,1
 669 -20 669 -20 544.5 -20 c 128,-1,2
 420 -20 420 -20 305 25.5 c 128,-1,3
 190 71 190 71 119.5 165.5 c 128,-1,4
 49 260 49 260 49 390 c 0,5,6
 49 638 49 638 290 760 c 1,7,8
 76 875 76 875 76 1098 c 0,9,10
 76 1191 76 1191 114.5 1265 c 0,11,12
 153 1338 153 1338 220 1384 c 0,13,14
 358 1478 358 1478 563 1478 c 0,15,16
 770 1478 770 1478 907 1384 c 0,17,18
 1050 1286 1050 1286 1050 1098 c 0,19,20
 1050 877 1050 877 851 760 c 1,21,22
 1076 638 1076 638 1076 389 c 0,23,24
 1076 291 1076 291 1035.5 212 c 128,-1,25
 995 133 995 133 924 83 c 128,-1,0
 853 33 853 33 761 6.5 c 128,-1,1
563 671 m 1,26,27
 450 641 450 641 383 570.5 c 128,-1,28
 316 500 316 500 316 393 c 128,-1,29
 316 286 316 286 380.5 229 c 128,-1,30
 445 172 445 172 563.5 172 c 128,-1,31
 682 172 682 172 745.5 229 c 128,-1,32
 809 286 809 286 809 393.5 c 128,-1,33
 809 501 809 501 741 571 c 128,-1,34
 673 641 673 641 563 671 c 1,26,27
563 1289 m 128,-1,36
 459 1289 459 1289 391 1235.5 c 128,-1,37
 323 1182 323 1182 323 1086.5 c 128,-1,38
 323 991 323 991 387.5 923 c 128,-1,39
 452 855 452 855 563 829 c 1,40,41
 676 856 676 856 739 923.5 c 128,-1,42
 802 991 802 991 802 1086.5 c 128,-1,43
 802 1182 802 1182 734.5 1235.5 c 128,-1,35
 667 1289 667 1289 563 1289 c 128,-1,36
EndSplineSet
EndChar

StartChar: nine
Encoding: 57 57 28
Width: 1216
Flags: W
HStem: 0 21G<229 597.584> 540 196<462.229 643.348> 1263 215<466.555 784.358>
VStem: 64 302<834.398 1162.82> 875 296<833.231 1171.24>
LayerCount: 2
Fore
SplineSet
435.5 1194 m 128,-1,1
 366 1125 366 1125 366 1002.5 c 128,-1,2
 366 880 366 880 430 808 c 128,-1,3
 494 736 494 736 623.5 736 c 128,-1,4
 753 736 753 736 814 809.5 c 128,-1,5
 875 883 875 883 875 1006 c 128,-1,6
 875 1129 875 1129 811 1196 c 128,-1,7
 747 1263 747 1263 626 1263 c 128,-1,0
 505 1263 505 1263 435.5 1194 c 128,-1,1
583 0 m 1,8,-1
 229 0 l 1,9,-1
 645 551 l 1,10,11
 593 540 593 540 562 540 c 0,12,13
 342 540 342 540 203 667 c 128,-1,14
 64 794 64 794 64 999 c 0,15,16
 64 1143 64 1143 137 1253 c 128,-1,17
 210 1363 210 1363 334.5 1420.5 c 128,-1,18
 459 1478 459 1478 616.5 1478 c 128,-1,19
 774 1478 774 1478 900 1421.5 c 128,-1,20
 1026 1365 1026 1365 1098.5 1255 c 128,-1,21
 1171 1145 1171 1145 1171 998 c 0,22,23
 1170 832 1170 832 1058 658 c 0,24,25
 1034 622 1034 622 995 565 c 2,26,-1
 583 0 l 1,8,-1
EndSplineSet
EndChar

StartChar: colon
Encoding: 58 58 29
Width: 448
Flags: W
HStem: 0 276<85 369> 789 276<85 369>
VStem: 85 284<0 276 789 1065>
LayerCount: 2
Fore
SplineSet
85 789 m 1,0,-1
 85 1065 l 1,1,-1
 369 1065 l 1,2,-1
 369 789 l 1,3,-1
 85 789 l 1,0,-1
85 0 m 1,4,-1
 85 276 l 1,5,-1
 369 276 l 1,6,-1
 369 0 l 1,7,-1
 85 0 l 1,4,-1
EndSplineSet
EndChar

StartChar: semicolon
Encoding: 59 59 30
Width: 425
Flags: W
HStem: 788 276<105 389>
VStem: 105 284<788 1064>
LayerCount: 2
Fore
SplineSet
105 788 m 1,0,-1
 105 1064 l 1,1,-1
 389 1064 l 1,2,-1
 389 788 l 1,3,-1
 105 788 l 1,0,-1
390 244 m 1,4,-1
 266 -326 l 1,5,-1
 94 -326 l 1,6,-1
 149 244 l 1,7,-1
 390 244 l 1,4,-1
EndSplineSet
EndChar

StartChar: less
Encoding: 60 60 31
Width: 1208
Flags: W
LayerCount: 2
Fore
SplineSet
405 737 m 1,0,-1
 1061 425 l 1,1,-1
 1061 222 l 1,2,-1
 145 675 l 1,3,-1
 145 799 l 1,4,-1
 1061 1260 l 1,5,-1
 1061 1057 l 1,6,-1
 405 737 l 1,0,-1
EndSplineSet
EndChar

StartChar: equal
Encoding: 61 61 32
Width: 1184
Flags: W
HStem: 283 197<71 1114> 639 198<70 1113>
LayerCount: 2
Fore
SplineSet
70 837 m 1,0,-1
 1113 837 l 1,1,-1
 1113 639 l 1,2,-1
 70 639 l 1,3,-1
 70 837 l 1,0,-1
71 480 m 1,4,-1
 1114 480 l 1,5,-1
 1114 283 l 1,6,-1
 71 283 l 1,7,-1
 71 480 l 1,4,-1
EndSplineSet
EndChar

StartChar: greater
Encoding: 62 62 33
Width: 1208
Flags: W
LayerCount: 2
Fore
SplineSet
804 737 m 1,0,-1
 148 1057 l 1,1,-1
 148 1260 l 1,2,-1
 1064 799 l 1,3,-1
 1064 675 l 1,4,-1
 148 222 l 1,5,-1
 148 425 l 1,6,-1
 804 737 l 1,0,-1
EndSplineSet
EndChar

StartChar: question
Encoding: 63 63 34
Width: 887
Flags: W
HStem: -20 321<258.017 478.044> 1279 199<194.936 536.516>
VStem: 207 321<29.4253 249.982> 598 224<954.116 1217.18>
LayerCount: 2
Fore
SplineSet
399 1279 m 0,0,1
 252 1279 252 1279 118 1193 c 1,2,-1
 43 1369 l 1,3,4
 131 1424 131 1424 217 1451 c 128,-1,5
 303 1478 303 1478 392.5 1478 c 128,-1,6
 482 1478 482 1478 536 1465.5 c 128,-1,7
 590 1453 590 1453 642 1425 c 0,8,9
 694 1398 694 1398 734 1358 c 0,10,11
 822 1270 822 1270 822 1130 c 0,12,13
 822 1007 822 1007 731 876 c 0,14,15
 688 814 688 814 641 754 c 0,16,17
 507 584 507 584 437 452 c 1,18,-1
 318 452 l 1,19,20
 342 606 342 606 438 757 c 0,21,22
 476 816 476 816 514 872 c 0,23,24
 598 1000 598 1000 598 1087 c 128,-1,25
 598 1174 598 1174 545.5 1226.5 c 128,-1,26
 493 1279 493 1279 399 1279 c 0,0,1
207 139 m 128,-1,28
 207 205 207 205 255 253 c 128,-1,29
 303 301 303 301 368.5 301 c 128,-1,30
 434 301 434 301 481 253 c 128,-1,31
 528 205 528 205 528 139 c 128,-1,32
 528 73 528 73 481 26.5 c 128,-1,33
 434 -20 434 -20 368.5 -20 c 128,-1,34
 303 -20 303 -20 255 26.5 c 128,-1,27
 207 73 207 73 207 139 c 128,-1,28
EndSplineSet
EndChar

StartChar: at
Encoding: 64 64 35
Width: 1633
Flags: W
HStem: -230 148.99<615.214 1153.48> 122 149<1110.47 1271.36> 139 145<639.148 813.576> 887 123<792.358 1016.06> 1217.5 151.499<613.68 1089.15>
VStem: 51 175<299.889 785.65> 409 199<324.618 665.297> 961 139<286.997 356> 1415 164<458.869 906.319>
LayerCount: 2
Fore
SplineSet
408 1026 m 0,0,1
 318 928 318 928 268 782 c 0,2,3
 226 663 226 663 226 547.5 c 128,-1,4
 226 432 226 432 260.5 328 c 128,-1,5
 295 224 295 224 355.5 149.5 c 0,6,7
 416 74 416 74 498 22 c 0,8,9
 657.467 -81.0095 657.467 -81.0095 868.929 -81.0095 c 0,10,11
 870.962 -81.0095 870.962 -81.0095 873 -81 c 1,12,13
 1171 -81 1171 -81 1381 87 c 1,14,-1
 1442 -20 l 1,15,16
 1202 -230 1202 -230 875 -230 c 0,17,18
 635 -230 635 -230 448 -131.5 c 128,-1,19
 261 -33 261 -33 156 150 c 128,-1,20
 51 333 51 333 51 565 c 128,-1,21
 51 797 51 797 156.5 980 c 128,-1,22
 262 1163 262 1163 446.5 1266 c 128,-1,23
 631 1369 631 1369 845.5 1369 c 128,-1,24
 1060 1369 1060 1369 1224.5 1281.5 c 128,-1,25
 1389 1194 1389 1194 1484 1034.5 c 128,-1,26
 1579 875 1579 875 1579 687.5 c 128,-1,27
 1579 500 1579 500 1504.5 366.5 c 128,-1,28
 1430 233 1430 233 1307 166 c 0,29,30
 1228 122 1228 122 1139 122 c 0,31,32
 960 122 960 122 961 356 c 1,33,34
 924 257 924 257 856 198 c 128,-1,35
 788 139 788 139 711 139 c 0,36,37
 570 139 570 139 489.5 236.5 c 128,-1,38
 409 334 409 334 409 478 c 128,-1,39
 409 622 409 622 474 744 c 128,-1,40
 539 866 539 866 652 938 c 128,-1,41
 765 1010 765 1010 898.5 1010 c 128,-1,42
 1032 1010 1032 1010 1213 942 c 1,43,44
 1200 870 1200 870 1162 706 c 0,45,46
 1100 436 1100 436 1100 369 c 128,-1,47
 1100 302 1100 302 1113.5 286.5 c 128,-1,48
 1127 271 1127 271 1163 271 c 0,49,50
 1232 271 1232 271 1291.5 335 c 128,-1,51
 1351 399 1351 399 1383 491.5 c 128,-1,52
 1415 584 1415 584 1415 676 c 0,53,54
 1415 918 1415 918 1258.5 1067.5 c 128,-1,55
 1102 1217 1102 1217 842.5 1217.5 c 0,56,-1
 841.153 1217.5 l 0,57,58
 582.545 1217.5 582.545 1217.5 408 1026 c 0,0,1
711 284 m 0,59,60
 915 284 915 284 1019 879 c 1,61,62
 965 887 965 887 919 887 c 0,63,64
 839 887 839 887 766 822.5 c 128,-1,65
 693 758 693 758 650.5 662 c 128,-1,66
 608 566 608 566 608 479.5 c 128,-1,67
 608 393 608 393 633 338.5 c 128,-1,68
 658 284 658 284 711 284 c 0,59,60
EndSplineSet
EndChar

StartChar: A
Encoding: 65 65 36
AltUni2: 000391.ffffffff.0
Width: 1300
Flags: W
HStem: 0 21G<-10 292.072 1021.84 1310> 444 182<506 800> 1432 20G<508.755 803.08>
LayerCount: 2
Fore
SplineSet
1029 0 m 1,0,-1
 870 444 l 1,1,-1
 442 444 l 1,2,-1
 285 0 l 1,3,-1
 -10 0 l 1,4,-1
 516 1452 l 1,5,-1
 796 1452 l 1,6,-1
 1310 0 l 1,7,-1
 1029 0 l 1,0,-1
506 626 m 1,8,-1
 800 626 l 1,9,-1
 658 1124 l 1,10,-1
 506 626 l 1,8,-1
EndSplineSet
EndChar

StartChar: B
Encoding: 66 66 37
Width: 1310
Flags: W
HStem: 0 199<419 856.279> 676 199<419 853.965> 1249 203<419 843.861>
VStem: 121 298<199 676 875 1249> 911.016 288.984<929.98 1182.27> 952 296<286.909 596.019>
LayerCount: 2
Fore
SplineSet
121 0 m 1,0,-1
 121 1452 l 1,1,-1
 612 1452 l 2,2,3
 829 1452 829 1452 933.5 1418 c 128,-1,4
 1038 1384 1038 1384 1089 1344 c 0,5,6
 1200 1257 1200 1257 1200 1078 c 128,-1,7
 1200 899 1200 899 1015 789 c 1,8,9
 1248 691 1248 691 1248 427 c 0,10,11
 1248 104 1248 104 904 24 c 0,12,13
 800 0 800 0 670 0 c 2,14,-1
 121 0 l 1,0,-1
419 1249 m 1,15,-1
 419 875 l 1,16,-1
 648 875 l 2,17,18
 779 875 779 875 845 913.5 c 128,-1,19
 911.016 952.01 911.016 952.01 911.016 1049.39 c 0,20,21
 911.016 1150.79 911.016 1150.79 852 1198 c 0,22,23
 803 1238 803 1238 682 1246 c 0,24,25
 635 1249 635 1249 560 1249 c 2,26,-1
 419 1249 l 1,15,-1
419 676 m 1,27,-1
 419 199 l 1,28,-1
 630 199 l 2,29,30
 792 199 792 199 872 253 c 128,-1,31
 952 307 952 307 952 439 c 128,-1,32
 952 571 952 571 881 623.5 c 128,-1,33
 810 676 810 676 650 676 c 2,34,-1
 419 676 l 1,27,-1
EndSplineSet
EndChar

StartChar: C
Encoding: 67 67 38
Width: 1277
Flags: W
HStem: -20 226<612.854 1048.73> 1252 226<618.892 1041.69>
VStem: 72 302<468.003 980.849>
LayerCount: 2
Fore
SplineSet
792 1478 m 0,0,1
 1071 1478 1071 1478 1231 1337 c 1,2,-1
 1154 1136 l 1,3,4
 1084 1194 1084 1194 1006 1223 c 128,-1,5
 928 1252 928 1252 808 1252 c 0,6,7
 616 1252 616 1252 495 1109 c 128,-1,8
 374 966 374 966 374 724 c 128,-1,9
 374 482 374 482 493.5 344 c 0,10,11
 612 206 612 206 814 206 c 128,-1,12
 1016 206 1016 206 1159 315 c 1,13,-1
 1232 107 l 1,14,15
 1128 32 1128 32 1022.5 6 c 0,16,17
 916 -20 916 -20 780 -20 c 128,-1,18
 644 -20 644 -20 514.5 30.5 c 128,-1,19
 385 81 385 81 286 175 c 128,-1,20
 187 269 187 269 129.5 413 c 0,21,22
 72 558 72 558 72 730 c 128,-1,23
 72 902 72 902 127.5 1042.5 c 128,-1,24
 183 1183 183 1183 279.5 1278 c 128,-1,25
 376 1373 376 1373 508 1425.5 c 128,-1,26
 640 1478 640 1478 792 1478 c 0,0,1
EndSplineSet
EndChar

StartChar: D
Encoding: 68 68 39
Width: 1497
Flags: W
HStem: 1 222<419 863.702> 1227 225<419 844.506>
VStem: 121 298<223 1227> 1126 297<481.526 976.46>
LayerCount: 2
Fore
SplineSet
121 1 m 1,0,-1
 121 1452 l 1,1,-1
 512 1452 l 2,2,3
 1423 1452 1423 1452 1423 726 c 0,4,5
 1422 495 1422 495 1318 330 c 0,6,7
 1110 1 1110 1 602 1 c 2,8,-1
 121 1 l 1,0,-1
419 1227 m 1,9,-1
 419 223 l 1,10,-1
 620 223 l 2,11,12
 863 223 863 223 994.5 353 c 128,-1,13
 1126 483 1126 483 1126 722 c 0,14,15
 1126 1004 1126 1004 978 1118 c 0,16,17
 837.279 1227.01 837.279 1227.01 539.428 1227.01 c 0,18,-1
 534 1227 l 2,19,-1
 419 1227 l 1,9,-1
EndSplineSet
EndChar

StartChar: E
Encoding: 69 69 40
Width: 1129
Flags: W
HStem: 0 219<419 1080> 655 218<419 1016> 1234 218<419 1039>
VStem: 121 298<219 655 873 1234>
LayerCount: 2
Fore
SplineSet
1016 873 m 1,0,-1
 1016 655 l 1,1,-1
 419 655 l 1,2,-1
 419 219 l 1,3,-1
 1092 219 l 1,4,-1
 1080 0 l 1,5,-1
 121 0 l 1,6,-1
 121 1452 l 1,7,-1
 1062 1452 l 1,8,-1
 1039 1234 l 1,9,-1
 419 1234 l 1,10,-1
 419 873 l 1,11,-1
 1016 873 l 1,0,-1
EndSplineSet
EndChar

StartChar: F
Encoding: 70 70 41
Width: 1039
Flags: W
HStem: 1 21G<121 419> 636 217<419 987> 1234 218<418 1007>
VStem: 121 298<1 636 853 1234>
LayerCount: 2
Fore
SplineSet
987 853 m 1,0,-1
 987 636 l 1,1,-1
 419 636 l 1,2,-1
 419 1 l 1,3,-1
 121 1 l 1,4,-1
 121 1452 l 1,5,-1
 1028 1452 l 1,6,-1
 1007 1234 l 1,7,-1
 418 1234 l 1,8,-1
 418 853 l 1,9,-1
 987 853 l 1,0,-1
EndSplineSet
EndChar

StartChar: G
Encoding: 71 71 42
Width: 1431
Flags: W
HStem: -20 226<600.669 1029.43> 583 208<757 1056> 1252 226<607.546 1053.95>
VStem: 72 302<473.627 991.14> 1056 266<242.196 583>
LayerCount: 2
Fore
SplineSet
806 -20 m 0,0,1
 473 -20 473 -20 272.5 184.5 c 128,-1,2
 72 389 72 389 72 733 c 0,3,4
 72 1054 72 1054 262 1264 c 0,5,6
 354 1364 354 1364 493.5 1421 c 128,-1,7
 633 1478 633 1478 804 1478 c 0,8,9
 1109 1478 1109 1478 1285 1337 c 1,10,-1
 1197 1142 l 1,11,12
 1008 1252 1008 1252 810 1252 c 128,-1,13
 612 1252 612 1252 494 1118 c 128,-1,14
 376 984 376 984 374 732 c 1,15,16
 374 508 374 508 476 360 c 0,17,18
 583 206 583 206 796 206 c 1,19,20
 954 206 954 206 1056 263 c 1,21,-1
 1056 583 l 1,22,-1
 745 583 l 1,23,-1
 757 791 l 1,24,-1
 1322 791 l 1,25,-1
 1322 115 l 1,26,27
 1188 49 1188 49 1070.5 14.5 c 128,-1,28
 953 -20 953 -20 806 -20 c 0,0,1
EndSplineSet
EndChar

StartChar: H
Encoding: 72 72 43
Width: 1474
Flags: W
HStem: 0 21G<121 419 1055 1353> 645 210<419 1055> 1433 20G<121 419 1055 1353>
VStem: 121 298<0 645 855 1453> 1055 298<0 645 855 1453>
LayerCount: 2
Fore
SplineSet
1055 645 m 1,0,-1
 419 645 l 1,1,-1
 419 0 l 1,2,-1
 121 0 l 1,3,-1
 121 1453 l 1,4,-1
 419 1453 l 1,5,-1
 419 855 l 1,6,-1
 1055 855 l 1,7,-1
 1055 1453 l 1,8,-1
 1353 1453 l 1,9,-1
 1353 0 l 1,10,-1
 1055 0 l 1,11,-1
 1055 645 l 1,0,-1
EndSplineSet
EndChar

StartChar: I
Encoding: 73 73 44
Width: 566
Flags: W
HStem: 0 21G<134 432> 1432 20G<134 432>
VStem: 134 298<0 1452>
LayerCount: 2
Fore
SplineSet
432 1452 m 1,0,-1
 432 0 l 1,1,-1
 134 0 l 1,2,-1
 134 1452 l 1,3,-1
 432 1452 l 1,0,-1
EndSplineSet
EndChar

StartChar: J
Encoding: 74 74 45
Width: 636
Flags: W
HStem: -303 214<-28 180.227> 1432 20G<217 515>
VStem: 217 298<-51.4258 1452>
LayerCount: 2
Fore
SplineSet
217 130 m 2,0,-1
 217 1452 l 1,1,-1
 515 1452 l 1,2,-1
 515 139 l 2,3,4
 515 14 515 14 492 -67 c 0,5,6
 470 -148 470 -148 412 -202 c 0,7,8
 306 -302 306 -302 18 -303 c 2,9,-1
 -28 -303 l 1,10,-1
 -45 -89 l 1,11,-1
 37 -89 l 2,12,13
 148 -89 148 -89 182.5 -42 c 128,-1,14
 217 5 217 5 217 130 c 2,0,-1
EndSplineSet
EndChar

StartChar: K
Encoding: 75 75 46
Width: 1307
Flags: W
HStem: 0 21G<121 419 977.008 1337> 1432 20G<121 419 907.25 1277>
VStem: 121 298<0 587 849 1452>
LayerCount: 2
Fore
SplineSet
730 792 m 1,0,-1
 1337 0 l 1,1,-1
 992 0 l 1,2,-1
 495 663 l 1,3,-1
 419 587 l 1,4,-1
 419 0 l 1,5,-1
 121 0 l 1,6,-1
 121 1452 l 1,7,-1
 419 1452 l 1,8,-1
 419 849 l 1,9,-1
 924 1452 l 1,10,-1
 1277 1452 l 1,11,-1
 730 792 l 1,0,-1
EndSplineSet
EndChar

StartChar: L
Encoding: 76 76 47
Width: 1005
Flags: W
HStem: 0 218<419 991> 1432 20G<121 419>
VStem: 121 298<218 1452>
LayerCount: 2
Fore
SplineSet
121 1452 m 1,0,-1
 419 1452 l 1,1,-1
 419 218 l 1,2,-1
 1007 218 l 1,3,-1
 991 0 l 1,4,-1
 121 0 l 1,5,-1
 121 1452 l 1,0,-1
EndSplineSet
EndChar

StartChar: M
Encoding: 77 77 48
Width: 1736
Flags: W
HStem: 0 21G<121 386 1349 1615> 1432 20G<121 412.273 1329.81 1615>
VStem: 121 265<0 966> 1349 266<0 957>
LayerCount: 2
Fore
SplineSet
386 966 m 1,0,-1
 386 0 l 1,1,-1
 121 0 l 1,2,-1
 121 1452 l 1,3,-1
 402 1452 l 1,4,-1
 873 535 l 1,5,-1
 1340 1452 l 1,6,-1
 1615 1452 l 1,7,-1
 1615 0 l 1,8,-1
 1349 0 l 1,9,-1
 1349 957 l 1,10,-1
 978 206 l 1,11,-1
 763 206 l 1,12,-1
 386 966 l 1,0,-1
EndSplineSet
EndChar

StartChar: N
Encoding: 78 78 49
Width: 1448
Flags: W
HStem: 0 21G<121 394 1059.17 1327> 1432 20G<121 382.965 1054 1327>
VStem: 121 273<0 982> 1054 273<471 1452>
LayerCount: 2
Fore
SplineSet
1327 0 m 1,0,-1
 1073 0 l 1,1,-1
 394 982 l 1,2,-1
 394 0 l 1,3,-1
 121 0 l 1,4,-1
 121 1452 l 1,5,-1
 369 1452 l 1,6,-1
 1054 471 l 1,7,-1
 1054 1452 l 1,8,-1
 1327 1452 l 1,9,-1
 1327 0 l 1,0,-1
EndSplineSet
EndChar

StartChar: O
Encoding: 79 79 50
Width: 1595
Flags: W
HStem: -20 226<598.739 1000.8> 1252 226<605.165 995.511>
VStem: 72 302<460.523 992.985> 1226 297<460.92 985.663>
LayerCount: 2
Fore
SplineSet
797 -20 m 128,-1,1
 589 -20 589 -20 426 67.5 c 128,-1,2
 263 155 263 155 167.5 326 c 128,-1,3
 72 497 72 497 72 728 c 128,-1,4
 72 959 72 959 167.5 1131 c 128,-1,5
 263 1303 263 1303 426 1390.5 c 128,-1,6
 589 1478 589 1478 797.5 1478 c 128,-1,7
 1006 1478 1006 1478 1169 1390.5 c 128,-1,8
 1332 1303 1332 1303 1427.5 1131 c 128,-1,9
 1523 959 1523 959 1523 728 c 128,-1,10
 1523 497 1523 497 1427.5 326 c 128,-1,11
 1332 155 1332 155 1168.5 67.5 c 128,-1,0
 1005 -20 1005 -20 797 -20 c 128,-1,1
799 1252 m 0,12,13
 660 1252 660 1252 563 1182 c 0,14,15
 374 1047 374 1047 374 722 c 0,16,17
 374 485 374 485 483 345.5 c 128,-1,18
 592 206 592 206 799.5 206 c 128,-1,19
 1007 206 1007 206 1116.5 346 c 128,-1,20
 1226 486 1226 486 1226 723 c 128,-1,21
 1226 960 1226 960 1116 1106 c 128,-1,22
 1006 1252 1006 1252 799 1252 c 0,12,13
EndSplineSet
EndChar

StartChar: P
Encoding: 80 80 51
Width: 1206
Flags: W
HStem: 0 21G<121 419> 525 210<419 786.447> 1236 216<419 784.283>
VStem: 121 298<0 531 737 1236> 889 289<833.896 1139.92>
LayerCount: 2
Fore
SplineSet
419 0 m 1,0,-1
 121 0 l 1,1,-1
 121 1452 l 1,2,-1
 605 1452 l 2,3,4
 876 1452 876 1452 1027 1340.5 c 128,-1,5
 1178 1229 1178 1229 1178 1000 c 0,6,7
 1178 525 1178 525 628 525 c 0,8,9
 482 525 482 525 419 531 c 1,10,-1
 419 0 l 1,0,-1
419 737 m 1,11,12
 435 735 435 735 546.5 735 c 128,-1,13
 658 735 658 735 714.5 750 c 128,-1,14
 771 765 771 765 803.5 788.5 c 128,-1,15
 836 812 836 812 856 847 c 0,16,17
 889 905 889 905 889 1006.5 c 128,-1,18
 889 1108 889 1108 816 1172 c 128,-1,19
 743 1236 743 1236 607 1236 c 2,20,-1
 419 1236 l 1,21,-1
 419 737 l 1,11,12
EndSplineSet
EndChar

StartChar: Q
Encoding: 81 81 52
Width: 1595
Flags: W
HStem: -20 226<598.739 941.048> 1252 226<605.165 995.511>
VStem: 72 302<460.523 992.985> 1226 297<460.92 985.663>
LayerCount: 2
Fore
SplineSet
1257 -470 m 1,0,1
 1159 -399 1159 -399 1055 -267 c 128,-1,2
 951 -135 951 -135 886 -13 c 1,3,-1
 1061 103 l 1,4,5
 1118 0 1118 0 1196.5 -97.5 c 128,-1,6
 1275 -195 1275 -195 1410 -319 c 1,7,-1
 1257 -470 l 1,0,1
797 -20 m 128,-1,9
 589 -20 589 -20 426 67.5 c 128,-1,10
 263 155 263 155 167.5 326 c 128,-1,11
 72 497 72 497 72 728 c 128,-1,12
 72 959 72 959 167.5 1131 c 128,-1,13
 263 1303 263 1303 426 1390.5 c 128,-1,14
 589 1478 589 1478 797.5 1478 c 128,-1,15
 1006 1478 1006 1478 1169 1390.5 c 128,-1,16
 1332 1303 1332 1303 1427.5 1131 c 128,-1,17
 1523 959 1523 959 1523 728 c 128,-1,18
 1523 497 1523 497 1427.5 326 c 128,-1,19
 1332 155 1332 155 1168.5 67.5 c 128,-1,8
 1005 -20 1005 -20 797 -20 c 128,-1,9
799 1252 m 0,20,21
 660 1252 660 1252 563 1182 c 0,22,23
 374 1047 374 1047 374 722 c 0,24,25
 374 485 374 485 483 345.5 c 128,-1,26
 592 206 592 206 799.5 206 c 128,-1,27
 1007 206 1007 206 1116.5 346 c 128,-1,28
 1226 486 1226 486 1226 723 c 128,-1,29
 1226 960 1226 960 1116 1106 c 128,-1,30
 1006 1252 1006 1252 799 1252 c 0,20,21
EndSplineSet
EndChar

StartChar: R
Encoding: 82 82 53
Width: 1303
Flags: W
HStem: 0 21G<121 420 991.92 1314> 601 211<420 716.363> 1235 217<420 875.136>
VStem: 121 299<0 601 812 1235> 953 276<884.905 1165.18>
LayerCount: 2
Fore
SplineSet
1314 0 m 1,0,-1
 1001 0 l 1,1,-1
 843 348 l 1,2,-1
 717 598 l 1,3,4
 697 601 697 601 627 601 c 2,5,-1
 420 601 l 1,6,-1
 420 0 l 1,7,-1
 121 0 l 1,8,-1
 121 1452 l 1,9,-1
 678 1452 l 2,10,11
 1014 1452 1014 1452 1133 1330 c 0,12,13
 1229 1232 1229 1232 1229 1040 c 0,14,15
 1229 751 1229 751 970 654 c 1,16,17
 981 641 981 641 992 626.5 c 128,-1,18
 1003 612 1003 612 1011 601.5 c 128,-1,19
 1019 591 1019 591 1030 573 c 128,-1,20
 1041 555 1041 555 1046 546.5 c 128,-1,21
 1051 538 1051 538 1062.5 515.5 c 128,-1,22
 1074 493 1074 493 1077 487 c 0,23,24
 1110 421 1110 421 1314 0 c 1,0,-1
420 1235 m 1,25,-1
 420 812 l 1,26,-1
 686 812 l 2,27,28
 826 812 826 812 889.5 864.5 c 128,-1,29
 953 917 953 917 953 1035 c 0,30,31
 953 1235 953 1235 693 1235 c 2,32,-1
 420 1235 l 1,25,-1
EndSplineSet
EndChar

StartChar: S
Encoding: 83 83 54
Width: 1193
Flags: W
HStem: -20 226<301.11 782.188> 1252 226<427.97 904.99>
VStem: 74.4967 298.503<979.567 1200.36> 850 296.503<267.423 505.088>
LayerCount: 2
Fore
SplineSet
581 206 m 0,0,1
 850 206 850 206 850 380 c 0,2,3
 850 476 850 476 782 526 c 0,4,5
 728 565 728 565 622 601 c 2,6,-1
 440 661 l 2,7,8
 238 728 238 728 150 836 c 0,9,10
 74.4967 929.386 74.4967 929.386 74.4967 1064.22 c 0,11,12
 74.4967 1200.04 74.4967 1200.04 148 1296 c 0,13,14
 287 1478 287 1478 601 1478 c 128,-1,15
 915 1478 915 1478 1075 1363 c 1,16,-1
 998 1164 l 1,17,18
 855 1252 855 1252 614 1252 c 128,-1,19
 373 1252 373 1252 373 1096 c 0,20,21
 373 1020 373 1020 411.5 981.5 c 128,-1,22
 450 943 450 943 525 918 c 2,23,-1
 722 851 l 1,24,25
 901 790 901 790 979 736 c 0,26,27
 1062 677 1062 677 1100 610 c 1,28,29
 1146.25 525.546 1146.25 525.546 1146.5 397.341 c 0,30,31
 1146.5 271.346 1146.5 271.346 1071 172 c 0,32,33
 925 -20 925 -20 591.5 -20 c 129,-1,34
 258 -20 258 -20 63 104 c 1,35,-1
 142 321 l 1,36,37
 221 272 221 272 341.5 239 c 128,-1,38
 462 206 462 206 581 206 c 0,0,1
EndSplineSet
EndChar

StartChar: T
Encoding: 84 84 55
Width: 1090
Flags: W
HStem: 0 21G<395 693> 1234 218<-27 395 693 1117>
VStem: 395 298<0 1234>
LayerCount: 2
Fore
SplineSet
-27 1234 m 1,0,-1
 -27 1452 l 1,1,-1
 1117 1452 l 1,2,-1
 1117 1234 l 1,3,-1
 693 1234 l 1,4,-1
 693 0 l 1,5,-1
 395 0 l 1,6,-1
 395 1234 l 1,7,-1
 -27 1234 l 1,0,-1
EndSplineSet
EndChar

StartChar: U
Encoding: 85 85 56
Width: 1390
Flags: W
HStem: -20 226<510.155 879.845> 1432 20G<107 405 985 1283>
VStem: 107 298<323.516 1452> 985 298<323.516 1452>
LayerCount: 2
Fore
SplineSet
695 -20 m 128,-1,1
 400 -20 400 -20 253.5 122 c 128,-1,2
 107 264 107 264 107 538 c 2,3,-1
 107 1452 l 1,4,-1
 405 1452 l 1,5,-1
 405 553 l 2,6,7
 405 369 405 369 469.5 287.5 c 128,-1,8
 534 206 534 206 695 206 c 128,-1,9
 856 206 856 206 920.5 287.5 c 128,-1,10
 985 369 985 369 985 553 c 2,11,-1
 985 1452 l 1,12,-1
 1283 1452 l 1,13,-1
 1283 538 l 2,14,15
 1283 264 1283 264 1136.5 122 c 128,-1,0
 990 -20 990 -20 695 -20 c 128,-1,1
EndSplineSet
EndChar

StartChar: V
Encoding: 86 86 57
Width: 1320
Flags: W
HStem: 0 21G<531.424 810.273> 1432 20G<-11 293.093 1036.25 1331>
LayerCount: 2
Fore
SplineSet
674 358 m 1,0,-1
 1043 1452 l 1,1,-1
 1331 1452 l 1,2,-1
 803 0 l 1,3,-1
 539 0 l 1,4,-1
 -11 1452 l 1,5,-1
 286 1452 l 1,6,-1
 674 358 l 1,0,-1
EndSplineSet
EndChar

StartChar: W
Encoding: 87 87 58
Width: 2080
Flags: W
HStem: 0 21G<399.229 689.685 1342.16 1635.4> 1432 20G<-14 278.352 911.239 1169.07 1802.07 2094>
LayerCount: 2
Fore
SplineSet
1489 377 m 1,0,-1
 1808 1452 l 1,1,-1
 2094 1452 l 1,2,-1
 1629 0 l 1,3,-1
 1348 0 l 1,4,-1
 1038 1062 l 1,5,-1
 683 0 l 1,6,-1
 405 0 l 1,7,-1
 -14 1452 l 1,8,-1
 273 1452 l 1,9,-1
 558 387 l 1,10,-1
 918 1452 l 1,11,-1
 1163 1452 l 1,12,-1
 1489 377 l 1,0,-1
EndSplineSet
EndChar

StartChar: X
Encoding: 88 88 59
Width: 1327
Flags: W
HStem: 0 21G<-33 302.313 1006.37 1360> 1432 20G<14 350.782 1023.5 1342>
LayerCount: 2
Fore
SplineSet
-33 0 m 1,0,-1
 495 729 l 1,1,-1
 14 1452 l 1,2,-1
 338 1452 l 1,3,-1
 678 920 l 1,4,-1
 1037 1452 l 1,5,-1
 1342 1452 l 1,6,-1
 841 732 l 1,7,-1
 1360 0 l 1,8,-1
 1020 0 l 1,9,-1
 663 524 l 1,10,-1
 288 0 l 1,11,-1
 -33 0 l 1,0,-1
EndSplineSet
EndChar

StartChar: Y
Encoding: 89 89 60
Width: 1242
Flags: W
HStem: 0 21G<479 777> 1432 20G<-36 284.642 961.425 1278>
VStem: 479 298<0 593>
LayerCount: 2
Fore
SplineSet
1278 1452 m 1,0,-1
 777 593 l 1,1,-1
 777 0 l 1,2,-1
 479 0 l 1,3,-1
 479 593 l 1,4,-1
 -36 1452 l 1,5,-1
 273 1452 l 1,6,-1
 624 849 l 1,7,-1
 973 1452 l 1,8,-1
 1278 1452 l 1,0,-1
EndSplineSet
EndChar

StartChar: Z
Encoding: 90 90 61
Width: 1212
Flags: W
HStem: 0 218<423 1173> 1234 218<90 811>
LayerCount: 2
Fore
SplineSet
1181 1452 m 1,0,-1
 1181 1294 l 1,1,-1
 423 218 l 1,2,-1
 1173 218 l 1,3,-1
 1173 0 l 1,4,-1
 57 0 l 1,5,-1
 57 173 l 1,6,-1
 811 1234 l 1,7,-1
 90 1234 l 1,8,-1
 90 1452 l 1,9,-1
 1181 1452 l 1,0,-1
EndSplineSet
EndChar

StartChar: bracketleft
Encoding: 91 91 62
Width: 606
Flags: W
HStem: -189 182<419 573> 1387 182<419 573>
VStem: 121 452<-189 -7 1387 1569> 121 298<-7 1387>
LayerCount: 2
Fore
SplineSet
573 -7 m 1,0,-1
 573 -189 l 1,1,-1
 121 -189 l 1,2,-1
 121 1569 l 1,3,-1
 573 1569 l 1,4,-1
 573 1387 l 1,5,-1
 419 1387 l 1,6,-1
 419 -7 l 1,7,-1
 573 -7 l 1,0,-1
EndSplineSet
EndChar

StartChar: backslash
Encoding: 92 92 63
Width: 972
Flags: W
HStem: 1441 20G<34 267.608>
LayerCount: 2
Fore
SplineSet
939 -119 m 1,0,-1
 716 -119 l 1,1,-1
 34 1461 l 1,2,-1
 259 1461 l 1,3,-1
 939 -119 l 1,0,-1
EndSplineSet
EndChar

StartChar: bracketright
Encoding: 93 93 64
Width: 606
Flags: W
HStem: -189 182<33 187> 1387 182<33 187>
VStem: 33 452<-189 -7 1387 1569> 187 298<-7 1387>
LayerCount: 2
Fore
SplineSet
187 1387 m 1,0,-1
 33 1387 l 1,1,-1
 33 1569 l 1,2,-1
 485 1569 l 1,3,-1
 485 -189 l 1,4,-1
 33 -189 l 1,5,-1
 33 -7 l 1,6,-1
 187 -7 l 1,7,-1
 187 1387 l 1,0,-1
EndSplineSet
EndChar

StartChar: asciicircum
Encoding: 94 94 65
Width: 1181
Flags: W
LayerCount: 2
Fore
SplineSet
258 550 m 1,0,-1
 41 550 l 1,1,-1
 524 1442 l 1,2,-1
 651 1442 l 1,3,-1
 1140 550 l 1,4,-1
 925 550 l 1,5,-1
 586 1192 l 1,6,-1
 258 550 l 1,0,-1
EndSplineSet
EndChar

StartChar: underscore
Encoding: 95 95 66
Width: 1145
Flags: W
HStem: -323 188<70 1075>
LayerCount: 2
Fore
SplineSet
1075 -135 m 1,0,-1
 1075 -323 l 1,1,-1
 70 -323 l 1,2,-1
 70 -135 l 1,3,-1
 1075 -135 l 1,0,-1
EndSplineSet
EndChar

StartChar: grave
Encoding: 96 96 67
Width: 471
Flags: W
HStem: 1176 382
VStem: -39 513
LayerCount: 2
Fore
SplineSet
295 1176 m 1,0,-1
 -39 1558 l 1,1,-1
 285 1558 l 1,2,-1
 474 1176 l 1,3,-1
 295 1176 l 1,0,-1
EndSplineSet
EndChar

StartChar: a
Encoding: 97 97 68
Width: 1068
Flags: W
HStem: -20 182<356.803 577.724> 0 21G<744.214 968> 895 188<245.143 644.094>
VStem: 70 254<195.016 411.793> 685 283<219.52 506 674.083 851.628>
LayerCount: 2
Fore
SplineSet
713 112 m 1,0,1
 548 -20 548 -20 402 -20 c 0,2,3
 266 -20 266 -20 172 50 c 0,4,5
 70 127 70 127 70 296.5 c 128,-1,6
 70 466 70 466 191 550 c 0,7,8
 280 611 280 611 488 649 c 0,9,10
 524 655 524 655 685 681 c 1,11,-1
 685 720 l 2,12,13
 685 817 685 817 642 856 c 128,-1,14
 599 895 599 895 516 895 c 0,15,16
 428 895 428 895 309 866 c 128,-1,17
 190 837 190 837 176 834 c 1,18,-1
 130 1019 l 1,19,20
 249 1053 249 1053 340.5 1068 c 128,-1,21
 432 1083 432 1083 564 1083 c 0,22,23
 968 1083 968 1083 968 758 c 2,24,-1
 968 0 l 1,25,-1
 751 0 l 1,26,-1
 713 112 l 1,0,1
360 198 m 128,-1,28
 396 162 396 162 452 162 c 128,-1,29
 508 162 508 162 549 175 c 128,-1,30
 590 188 590 188 613 202 c 128,-1,31
 636 216 636 216 685 250 c 1,32,-1
 685 506 l 1,33,-1
 608 494 l 1,34,35
 433 468 433 468 378 421 c 0,36,37
 324 374 324 374 324 304 c 128,-1,27
 324 234 324 234 360 198 c 128,-1,28
EndSplineSet
EndChar

StartChar: b
Encoding: 98 98 69
Width: 1240
Flags: W
HStem: -20 191<519.957 779.112> 892 191<529.898 793.588> 1496 20G<104 387>
VStem: 104 283<2 151 298.341 771.641 914 1496> 906 272<313.609 763.288>
LayerCount: 2
Fore
SplineSet
383 540 m 0,0,1
 384 263 384 263 544 191 c 0,2,3
 588 171 588 171 634 171 c 128,-1,4
 680 171 680 171 717 183 c 128,-1,5
 754 195 754 195 789 223 c 0,6,7
 824 250 824 250 850 292 c 0,8,9
 906 384 906 384 906 540 c 256,10,11
 906 763 906 763 794 847 c 0,12,13
 734 892 734 892 666 892 c 0,14,15
 543 892 543 892 463 812 c 128,-1,16
 383 732 383 732 383 540 c 0,0,1
956.5 55.5 m 128,-1,18
 850 -20 850 -20 725.5 -20 c 128,-1,19
 601 -20 601 -20 514.5 28 c 128,-1,20
 428 76 428 76 388 151 c 1,21,-1
 382 2 l 1,22,-1
 104 2 l 1,23,-1
 104 1496 l 1,24,-1
 387 1516 l 1,25,-1
 387 914 l 1,26,27
 507 1082 507 1082 722 1083 c 1,28,29
 937 1083 937 1083 1060 926 c 0,30,31
 1178 775 1178 775 1178 549 c 0,32,33
 1178 390 1178 390 1120.5 260.5 c 128,-1,17
 1063 131 1063 131 956.5 55.5 c 128,-1,18
EndSplineSet
EndChar

StartChar: c
Encoding: 99 99 70
Width: 957
Flags: W
HStem: -20 191<465.146 808.336> 892 190<461.989 805.505>
VStem: 62 272<315.865 755.354>
LayerCount: 2
Fore
SplineSet
919 74 m 1,0,1
 776 -20 776 -20 606 -20 c 0,2,3
 366 -20 366 -20 218 120 c 0,4,5
 62 267 62 267 62 554 c 0,6,7
 62 862 62 862 290 1002 c 0,8,9
 420 1082 420 1082 600 1082 c 128,-1,10
 780 1082 780 1082 907 987 c 1,11,-1
 862 816 l 1,12,13
 823 844 823 844 753.5 868 c 128,-1,14
 684 892 684 892 620 892 c 0,15,16
 493 892 493 892 413.5 806 c 128,-1,17
 334 720 334 720 334 538.5 c 128,-1,18
 334 357 334 357 411.5 264 c 128,-1,19
 489 171 489 171 621.5 171 c 128,-1,20
 754 171 754 171 866 250 c 1,21,-1
 919 74 l 1,0,1
EndSplineSet
EndChar

StartChar: d
Encoding: 100 100 71
Width: 1237
Flags: W
HStem: -20 191<463.743 736.645> 0 21G<858.195 1136> 892 190<453.521 736.318> 1496 20G<853 1136>
VStem: 62 272<313.611 763.466> 853 283<0 149 294.812 766.803 921 1496>
LayerCount: 2
Fore
SplineSet
549 -20 m 0,0,1
 399 -20 399 -20 287.5 55.5 c 128,-1,2
 176 131 176 131 119 258.5 c 128,-1,3
 62 386 62 386 62 542 c 128,-1,4
 62 698 62 698 116.5 818 c 128,-1,5
 171 938 171 938 281.5 1010 c 128,-1,6
 392 1082 392 1082 530 1082 c 0,7,8
 771 1082 771 1082 853 921 c 1,9,-1
 853 1496 l 1,10,-1
 1136 1516 l 1,11,-1
 1136 0 l 1,12,-1
 859 0 l 1,13,-1
 853 149 l 1,14,15
 763 -20 763 -20 549 -20 c 0,0,1
504 191 m 0,16,17
 549 171 549 171 600.5 171 c 128,-1,18
 652 171 652 171 696.5 190.5 c 128,-1,19
 741 210 741 210 778 251 c 0,20,21
 857 339 857 339 857 538 c 0,22,23
 856 807 856 807 694 874 c 0,24,25
 650 892 650 892 599.5 892 c 128,-1,26
 549 892 549 892 505.5 876 c 128,-1,27
 462 860 462 860 422 822 c 0,28,29
 334 741 334 741 334 538 c 0,30,31
 334 267 334 267 504 191 c 0,16,17
EndSplineSet
EndChar

StartChar: e
Encoding: 101 101 72
Width: 1109
Flags: W
HStem: -20 193<470.93 862.689> 475 152<344 798> 892 190<447.23 720.597>
VStem: 62 279<301.355 475 627 780.516> 798 257<627 803.646>
LayerCount: 2
Fore
SplineSet
344 627 m 1,0,-1
 798 627 l 1,1,2
 798 756 798 756 743 824 c 128,-1,3
 688 892 688 892 586 892 c 0,4,5
 506 892 506 892 437 840 c 0,6,7
 354 777 354 777 344 627 c 1,0,-1
341 475 m 1,8,9
 349 173 349 173 661 173 c 0,10,11
 820 173 820 173 945 267 c 1,12,-1
 1024 105 l 1,13,14
 860 -20 860 -20 630 -20 c 0,15,16
 358 -20 358 -20 210 130 c 128,-1,17
 62 280 62 280 62 541 c 0,18,19
 62 699 62 699 122.5 820.5 c 128,-1,20
 183 942 183 942 302 1012 c 128,-1,21
 421 1082 421 1082 561 1082 c 128,-1,22
 701 1082 701 1082 792.5 1041.5 c 128,-1,23
 884 1001 884 1001 940 929 c 0,24,25
 1054 783 1054 783 1055 563 c 1,26,-1
 1053 475 l 1,27,-1
 341 475 l 1,8,9
EndSplineSet
EndChar

StartChar: f
Encoding: 102 102 73
Width: 708
Flags: W
HStem: 0 21G<178 461> 894 169<7 178 461 699> 1336 210<492.983 683>
VStem: 178 283<0 894 1063 1294.22>
LayerCount: 2
Fore
SplineSet
7 894 m 1,0,-1
 7 1063 l 1,1,-1
 178 1063 l 1,2,-1
 178 1096 l 2,3,4
 178 1288 178 1288 208 1362 c 0,5,6
 240 1444 240 1444 292 1478 c 0,7,8
 364 1525 364 1525 441 1535.5 c 128,-1,9
 518 1546 518 1546 588 1546 c 2,10,-1
 683 1546 l 1,11,-1
 706 1336 l 1,12,-1
 614 1336 l 2,13,14
 523 1336 523 1336 492 1295.5 c 128,-1,15
 461 1255 461 1255 461 1152 c 2,16,-1
 461 1063 l 1,17,-1
 699 1063 l 1,18,-1
 699 894 l 1,19,-1
 461 894 l 1,20,-1
 461 0 l 1,21,-1
 178 0 l 1,22,-1
 178 894 l 1,23,-1
 7 894 l 1,0,-1
EndSplineSet
EndChar

StartChar: g
Encoding: 103 103 74
Width: 1235
Flags: W
HStem: -488 219<350 771.719> 0 189<469.722 740.627> 892 190<452.747 745.232> 1043 20G<860 1143>
VStem: 62 272<346.822 761.489> 860 283<-174.707 143 318.883 772.601 938 1063>
LayerCount: 2
Fore
SplineSet
411.5 292 m 128,-1,1
 489 189 489 189 605.5 189 c 128,-1,2
 722 189 722 189 797 289.5 c 128,-1,3
 872 390 872 390 872 547 c 2,4,-1
 872 559 l 1,5,6
 869 713 869 713 794 802 c 128,-1,7
 719 891 719 891 596 892 c 0,8,-1
 593 892 l 0,9,10
 472 892 472 892 404 801 c 0,11,12
 334 709 334 709 334 552 c 128,-1,0
 334 395 334 395 411.5 292 c 128,-1,1
350 -488 m 1,13,-1
 330 -269 l 1,14,-1
 442 -269 l 2,15,16
 637 -269 637 -269 672.5 -259.5 c 128,-1,17
 708 -250 708 -250 740 -239.5 c 128,-1,18
 772 -229 772 -229 786 -212 c 128,-1,19
 800 -195 800 -195 818 -171 c 128,-1,20
 836 -147 836 -147 843 -114 c 0,21,22
 860 -34 860 -34 860 57 c 2,23,-1
 860 143 l 1,24,25
 784 36 784 36 670 11 c 0,26,27
 620 0 620 0 538 0 c 128,-1,28
 456 0 456 0 366 37.5 c 128,-1,29
 276 75 276 75 208 143.5 c 128,-1,30
 140 212 140 212 101 317 c 128,-1,31
 62 422 62 422 62 539 c 128,-1,32
 62 656 62 656 89.5 745.5 c 128,-1,33
 117 835 117 835 163 896.5 c 0,34,35
 208 958 208 958 270 1000 c 0,36,37
 388 1082 388 1082 540 1082 c 0,38,39
 761 1081 761 1081 860 938 c 1,40,-1
 860 1063 l 1,41,-1
 1143 1063 l 1,42,-1
 1143 65 l 2,43,44
 1143 -84 1143 -84 1112 -184.5 c 0,45,46
 1082 -285 1082 -285 1006 -355 c 0,47,48
 863 -488 863 -488 488 -488 c 2,49,-1
 350 -488 l 1,13,-1
EndSplineSet
EndChar

StartChar: h
Encoding: 104 104 75
Width: 1197
Flags: W
HStem: 0 21G<101 384 822 1105> 892 191<516.098 780.74> 1496 20G<101 384>
VStem: 101 283<0 774.855 946 1496> 822 283<0 853.201>
LayerCount: 2
Fore
SplineSet
384 0 m 1,0,-1
 101 0 l 1,1,-1
 101 1496 l 1,2,-1
 384 1516 l 1,3,-1
 384 946 l 1,4,5
 519 1083 519 1083 727 1083 c 0,6,7
 729.179 1083 l 0,8,9
 1014.27 1083 1014.27 1083 1084 822 c 0,10,11
 1104 746 1104 746 1105 647 c 2,12,-1
 1105 0 l 1,13,-1
 822 0 l 1,14,-1
 822 658 l 2,15,16
 822 783 822 783 789 837.5 c 128,-1,17
 756 892 756 892 667.5 892 c 128,-1,18
 579 892 579 892 503.5 840 c 128,-1,19
 428 788 428 788 384 715 c 1,20,-1
 384 0 l 1,0,-1
EndSplineSet
EndChar

StartChar: i
Encoding: 105 105 76
Width: 527
Flags: W
HStem: 0 21G<119 402> 1043 20G<119 402> 1246 232<119 403>
VStem: 119 283<0 1063 1246 1478>
LayerCount: 2
Fore
SplineSet
402 1063 m 1,0,-1
 402 0 l 1,1,-1
 119 0 l 1,2,-1
 119 1063 l 1,3,-1
 402 1063 l 1,0,-1
403 1478 m 1,4,-1
 403 1246 l 1,5,-1
 119 1246 l 1,6,-1
 119 1478 l 1,7,-1
 403 1478 l 1,4,-1
EndSplineSet
EndChar

StartChar: j
Encoding: 106 106 77
Width: 547
Flags: W
HStem: -402 209<-45 128.996> 1043 20G<159 442> 1246 232<159 442>
VStem: 159 283<-161.872 1063 1246 1478>
LayerCount: 2
Fore
SplineSet
442 1063 m 1,0,-1
 442 81 l 2,1,2
 442 -190 442 -190 368 -282 c 0,3,4
 300 -366 300 -366 176 -389 c 0,5,6
 108 -402 108 -402 16 -402 c 2,7,-1
 -45 -402 l 1,8,-1
 -75 -193 l 1,9,-1
 -16 -193 l 2,10,11
 42 -193 42 -193 76 -184 c 128,-1,12
 110 -175 110 -175 129 -148 c 128,-1,13
 148 -121 148 -121 153.5 -84.5 c 128,-1,14
 159 -48 159 -48 159 19 c 2,15,-1
 159 1063 l 1,16,-1
 442 1063 l 1,0,-1
442 1478 m 1,17,-1
 442 1246 l 1,18,-1
 159 1246 l 1,19,-1
 159 1478 l 1,20,-1
 442 1478 l 1,17,-1
EndSplineSet
EndChar

StartChar: k
Encoding: 107 107 78
Width: 1105
Flags: W
HStem: 0 21G<101 384 807.946 1168> 1043 20G<763.247 1121> 1496 20G<101 384>
VStem: 101 283<0 463 659 1496>
LayerCount: 2
Fore
SplineSet
101 1496 m 1,0,-1
 384 1516 l 1,1,-1
 384 659 l 1,2,-1
 783 1063 l 1,3,-1
 1121 1063 l 1,4,-1
 696 627 l 1,5,-1
 1168 0 l 1,6,-1
 822 0 l 1,7,-1
 458 518 l 1,8,-1
 384 463 l 1,9,-1
 384 0 l 1,10,-1
 101 0 l 1,11,-1
 101 1496 l 1,0,-1
EndSplineSet
EndChar

StartChar: l
Encoding: 108 108 79
Width: 678
Flags: W
HStem: -13 184.474<435.109 669.443> 1496 20G<118 401>
VStem: 118 283<204.008 1496>
LayerCount: 2
Fore
SplineSet
118 456 m 2,0,-1
 118 1496 l 1,1,-1
 401 1516 l 1,2,-1
 401 440 l 2,3,4
 401 244 401 244 445 204 c 0,5,6
 480 172 480 172 531.5 171.5 c 1,7,8
 534.211 171.474 534.211 171.474 537.017 171.474 c 0,9,10
 587.526 171.474 587.526 171.474 669 180 c 1,11,-1
 682 1 l 1,12,13
 568 -13 568 -13 491.5 -13 c 128,-1,14
 415 -13 415 -13 345.5 6.5 c 128,-1,15
 276 26 276 26 232 61.5 c 128,-1,16
 188 97 188 97 162 157 c 0,17,18
 118 262 118 262 118 456 c 2,0,-1
EndSplineSet
EndChar

StartChar: m
Encoding: 109 109 80
Width: 1836
Flags: W
HStem: 0 21G<101 384 785 1068 1461 1744> 891 192<522.096 824.982 1188.75 1422.49> 1043 20G<101 343.38>
VStem: 101 283<0 790.902> 785 283<0 789.268> 1461 283<0 855.349>
LayerCount: 2
Fore
SplineSet
101 0 m 1,0,-1
 101 1063 l 1,1,-1
 340 1063 l 1,2,-1
 364 921 l 1,3,4
 421 994 421 994 521.5 1038.5 c 128,-1,5
 622 1083 622 1083 736 1083 c 0,6,7
 942 1083 942 1083 1011 904 c 1,8,9
 1163 1082 1163 1082 1394 1083 c 1,10,11
 1396 1083 l 0,12,13
 1684.17 1083 1684.17 1083 1733 796 c 0,14,15
 1744 732 1744 732 1744 652 c 2,16,-1
 1744 0 l 1,17,-1
 1461 0 l 1,18,-1
 1461 608 l 2,19,20
 1461 772 1461 772 1434.5 832 c 128,-1,21
 1408 892 1408 892 1321.5 892 c 128,-1,22
 1235 892 1235 892 1171 844.5 c 128,-1,23
 1107 797 1107 797 1068 726 c 1,24,-1
 1068 0 l 1,25,-1
 785 0 l 1,26,-1
 785 627 l 2,27,28
 785 755 785 755 763.5 805.5 c 128,-1,29
 742 856 742 856 709 873.5 c 128,-1,30
 676 891 676 891 625 891 c 0,31,32
 479 891 479 891 384 727 c 1,33,-1
 384 0 l 1,34,-1
 101 0 l 1,0,-1
EndSplineSet
EndChar

StartChar: n
Encoding: 110 110 81
Width: 1197
Flags: W
HStem: 0 21G<101 384 822 1105> 892 191<517.604 772.622> 1043 20G<101 340.262>
VStem: 101 283<0 785.035> 822 283<0 839.553>
LayerCount: 2
Fore
SplineSet
738 1083 m 0,0,1
 925 1083 925 1083 1015 967.5 c 128,-1,2
 1105 852 1105 852 1105 647 c 2,3,-1
 1105 0 l 1,4,-1
 822 0 l 1,5,-1
 822 620 l 2,6,7
 822 789 822 789 780 840 c 0,8,9
 737 892 737 892 653.5 892 c 128,-1,10
 570 892 570 892 495 841.5 c 128,-1,11
 420 791 420 791 384 724 c 1,12,-1
 384 0 l 1,13,-1
 101 0 l 1,14,-1
 101 1063 l 1,15,-1
 337 1063 l 1,16,-1
 360 922 l 1,17,18
 424 998 424 998 522 1040.5 c 128,-1,19
 620 1083 620 1083 738 1083 c 0,0,1
EndSplineSet
EndChar

StartChar: o
Encoding: 111 111 82
Width: 1174
Flags: W
HStem: -20 191<447.562 726.438> 892 191<446.626 727.374>
VStem: 62 272<303.268 760.34> 840 272<303.268 760.34>
LayerCount: 2
Fore
SplineSet
1112 531 m 0,0,1
 1112 191 1112 191 876 51 c 0,2,3
 756 -20 756 -20 587 -20 c 128,-1,4
 418 -20 418 -20 298 51 c 0,5,6
 62 191 62 191 62 531 c 0,7,8
 62 785 62 785 197.5 934 c 128,-1,9
 333 1083 333 1083 587 1083 c 128,-1,10
 841 1083 841 1083 976.5 934 c 128,-1,11
 1112 785 1112 785 1112 531 c 0,0,1
774 264.5 m 128,-1,13
 840 358 840 358 840 532.5 c 128,-1,14
 840 707 840 707 774 799.5 c 128,-1,15
 708 892 708 892 587 892 c 128,-1,16
 466 892 466 892 400 799.5 c 128,-1,17
 334 707 334 707 334 532.5 c 128,-1,18
 334 358 334 358 400 264.5 c 128,-1,19
 466 171 466 171 587 171 c 128,-1,12
 708 171 708 171 774 264.5 c 128,-1,13
EndSplineSet
EndChar

StartChar: p
Encoding: 112 112 83
Width: 1241
Flags: W
HStem: -410 21G<101 296.172> -20 190.988<524.197 782.077> 892 191<498.167 787.937> 1043 20G<101 359.817>
VStem: 101 283<-381 132 300.125 770.625> 903.012 271.988<305.47 764.036>
LayerCount: 2
Fore
SplineSet
101 -410 m 1,0,-1
 101 1063 l 1,1,-1
 357 1063 l 1,2,-1
 377 921 l 1,3,4
 471 1083 471 1083 693 1083 c 0,5,6
 811 1083 811 1083 905 1038.5 c 0,7,8
 998 994 998 994 1056 918 c 0,9,10
 1174 761 1174 761 1175 546 c 0,11,12
 1175 311 1175 311 1053 150 c 0,13,14
 994 72 994 72 902 26.5 c 128,-1,15
 810 -19 810 -19 697 -20 c 1,16,17
 478 -20 478 -20 384 132 c 1,18,-1
 384 -381 l 1,19,-1
 101 -410 l 1,0,-1
402.5 707 m 128,-1,21
 380 635 380 635 380 537 c 128,-1,22
 380 439 380 439 402.5 365.5 c 0,23,24
 424 292 424 292 464 251 c 0,25,26
 576 180 576 180 650 171 c 1,27,28
 651.2 170.988 651.2 170.988 652.396 170.988 c 0,29,30
 752.847 170.988 752.847 170.988 824 254 c 0,31,32
 903.012 345.852 903.012 345.852 903.012 533.299 c 0,33,34
 902.278 813.271 902.278 813.271 735 876 c 0,35,36
 692 892 692 892 641 892 c 128,-1,37
 590 892 590 892 546 874 c 128,-1,38
 502 856 502 856 463.5 817.5 c 128,-1,20
 425 779 425 779 402.5 707 c 128,-1,21
EndSplineSet
EndChar

StartChar: q
Encoding: 113 113 84
Width: 1237
Flags: W
HStem: -410 21G<853 1035.58> -20 191<462.005 731.685> 892 191<453.15 740.805> 1043 20G<877.183 1136>
VStem: 62 272<315.168 763.978> 853 283<-379 150 294.829 771.594>
LayerCount: 2
Fore
SplineSet
727.5 22 m 128,-1,1
 656 -20 656 -20 521.5 -20 c 128,-1,2
 387 -20 387 -20 278 59 c 0,3,4
 62 216 62 216 62 546 c 0,5,6
 62 763 62 763 180 918 c 0,7,8
 238 994 238 994 331.5 1038.5 c 128,-1,9
 425 1083 425 1083 541 1083 c 128,-1,10
 657 1083 657 1083 733 1047.5 c 128,-1,11
 809 1012 809 1012 860 921 c 1,12,-1
 880 1063 l 1,13,-1
 1136 1063 l 1,14,-1
 1136 -379 l 1,15,-1
 853 -410 l 1,16,-1
 853 150 l 1,17,0
 799 64 799 64 727.5 22 c 128,-1,1
836 365.5 m 128,-1,19
 857 439 857 439 857 537 c 128,-1,20
 857 635 857 635 835 706.5 c 128,-1,21
 813 778 813 778 775.5 817 c 128,-1,22
 738 856 738 856 694.5 874 c 128,-1,23
 651 892 651 892 600 892 c 128,-1,24
 549 892 549 892 505.5 876 c 128,-1,25
 462 860 462 860 422 822 c 0,26,27
 334 741 334 741 334 538 c 0,28,29
 334 267 334 267 504 191 c 0,30,31
 549 171 549 171 600.5 171 c 128,-1,32
 652 171 652 171 696.5 190.5 c 128,-1,33
 741 210 741 210 778 251 c 128,-1,18
 815 292 815 292 836 365.5 c 128,-1,19
EndSplineSet
EndChar

StartChar: r
Encoding: 114 114 85
Width: 692
Flags: W
HStem: 0 21G<101 384> 848 215<483.174 683>
VStem: 101 283<0 774.987>
LayerCount: 2
Fore
SplineSet
101 0 m 1,0,-1
 101 1063 l 1,1,-1
 363 1063 l 1,2,-1
 383 918 l 1,3,4
 437 993 437 993 498 1028 c 128,-1,5
 559 1063 559 1063 655 1063 c 2,6,-1
 683 1063 l 1,7,-1
 697 848 l 1,8,-1
 622 848 l 2,9,10
 476 848 476 848 428 775 c 0,11,12
 384 709 384 709 384 586 c 2,13,-1
 384 0 l 1,14,-1
 101 0 l 1,0,-1
EndSplineSet
EndChar

StartChar: s
Encoding: 115 115 86
Width: 928
Flags: W
HStem: -20 185<229.521 581.795> 901 183<352.09 729.967>
VStem: 81.4579 250.542<725.577 877.02> 622 258<199.653 369.592>
LayerCount: 2
Fore
SplineSet
332 798 m 0,0,1
 332 754 332 754 357.5 732 c 128,-1,2
 383 710 383 710 452 686 c 2,3,-1
 617 629 l 2,4,5
 724 592 724 592 798 520 c 0,6,7
 880 440 880 440 880 308.5 c 128,-1,8
 880 177 880 177 785.5 78.5 c 128,-1,9
 691 -20 691 -20 514 -20 c 0,10,11
 210 -20 210 -20 67 82 c 1,12,-1
 123 257 l 1,13,14
 172 225 172 225 274.5 195 c 128,-1,15
 377 165 377 165 455 165 c 128,-1,16
 533 165 533 165 577.5 198.5 c 128,-1,17
 622 232 622 232 622 285.5 c 128,-1,18
 622 339 622 339 601 361.5 c 128,-1,19
 580 384 580 384 518 407 c 2,20,-1
 358 466 l 2,21,22
 152 540 152 540 102 664 c 0,23,24
 81.4579 715.355 81.4579 715.355 81.4579 805.282 c 0,25,26
 81.4579 887.963 81.4579 887.963 132 956 c 0,27,28
 226 1084 226 1084 462.5 1084 c 128,-1,29
 699 1084 699 1084 833 1009 c 1,30,-1
 785 833 l 1,31,32
 739 858 739 858 653.5 879.5 c 128,-1,33
 568 901 568 901 493 901 c 0,34,35
 332 901 332 901 332 798 c 0,0,1
EndSplineSet
EndChar

StartChar: t
Encoding: 116 116 87
Width: 773
Flags: W
HStem: -13 184.474<511.109 745.443> 892 171<26 194 477 739>
VStem: 194 283<204.008 892>
LayerCount: 2
Fore
SplineSet
477 892 m 1,0,-1
 477 440 l 2,1,2
 477 244 477 244 521 204 c 0,3,4
 556 172 556 172 607.5 171.5 c 0,5,6
 610.211 171.474 610.211 171.474 613.017 171.474 c 0,7,8
 663.526 171.474 663.526 171.474 745 180 c 1,9,-1
 758 1 l 1,10,11
 644 -13 644 -13 567.5 -13 c 128,-1,12
 491 -13 491 -13 421.5 6.5 c 128,-1,13
 352 26 352 26 308 61.5 c 128,-1,14
 264 97 264 97 238 157 c 0,15,16
 194 262 194 262 194 456 c 2,17,-1
 194 892 l 1,18,-1
 9 892 l 1,19,-1
 26 1063 l 1,20,-1
 214 1063 l 1,21,-1
 311 1354 l 1,22,-1
 477 1354 l 1,23,-1
 477 1063 l 1,24,-1
 739 1063 l 1,25,-1
 739 892 l 1,26,-1
 477 892 l 1,0,-1
EndSplineSet
EndChar

StartChar: u
Encoding: 117 117 88
Width: 1126
Flags: W
HStem: -20 191<423.527 702.473> 1043 20G<89 372 754 1037>
VStem: 89 283<223.47 1063> 754 283<224.666 1063>
LayerCount: 2
Fore
SplineSet
89 386 m 2,0,-1
 89 1063 l 1,1,-1
 372 1063 l 1,2,-1
 372 389 l 2,3,4
 372 275 372 275 416.5 223 c 128,-1,5
 461 171 461 171 563 171 c 128,-1,6
 665 171 665 171 709.5 223 c 128,-1,7
 754 275 754 275 754 389 c 2,8,-1
 754 1063 l 1,9,-1
 1037 1063 l 1,10,-1
 1037 386 l 2,11,12
 1037 186 1037 186 909.5 83 c 128,-1,13
 782 -20 782 -20 563 -20 c 128,-1,14
 344 -20 344 -20 216.5 82 c 128,-1,15
 89 184 89 184 89 386 c 2,0,-1
EndSplineSet
EndChar

StartChar: v
Encoding: 118 118 89
Width: 1112
Flags: W
HStem: 0 21G<443.609 723.338> 1043 20G<6 309.432 807.107 1106>
LayerCount: 2
Fore
SplineSet
452 0 m 1,0,-1
 6 1063 l 1,1,-1
 302 1063 l 1,2,-1
 587 296 l 1,3,-1
 813 1063 l 1,4,-1
 1106 1063 l 1,5,-1
 716 0 l 1,6,-1
 452 0 l 1,0,-1
EndSplineSet
EndChar

StartChar: w
Encoding: 119 119 90
Width: 1691
Flags: W
HStem: 0 21G<332.659 581.033 1062.12 1310.26> 1043 20G<2 290.564 719.621 979.283 1402.42 1689>
LayerCount: 2
Fore
SplineSet
2 1063 m 1,0,-1
 285 1063 l 1,1,-1
 475 380 l 1,2,-1
 727 1063 l 1,3,-1
 973 1063 l 1,4,-1
 1186 385 l 1,5,-1
 1409 1063 l 1,6,-1
 1689 1063 l 1,7,-1
 1303 0 l 1,8,-1
 1068 0 l 1,9,-1
 843 765 l 1,10,-1
 574 0 l 1,11,-1
 339 0 l 1,12,-1
 2 1063 l 1,0,-1
EndSplineSet
EndChar

StartChar: x
Encoding: 120 120 91
Width: 1162
Flags: W
HStem: 0 21G<27 346.511 808.553 1139> 1043 20G<47 368.589 819.594 1127>
LayerCount: 2
Fore
SplineSet
833 1063 m 1,0,-1
 1127 1063 l 1,1,-1
 765 543 l 1,2,-1
 1139 0 l 1,3,-1
 821 0 l 1,4,-1
 587 376 l 1,5,-1
 333 0 l 1,6,-1
 27 0 l 1,7,-1
 399 539 l 1,8,-1
 47 1063 l 1,9,-1
 356 1063 l 1,10,-1
 587 696 l 1,11,-1
 833 1063 l 1,0,-1
EndSplineSet
EndChar

StartChar: y
Encoding: 121 121 92
Width: 1079
Flags: W
HStem: -410 204<57 323.314> 1043 20G<-17 275.938 783.192 1084>
LayerCount: 2
Fore
SplineSet
549 355 m 1,0,-1
 790 1063 l 1,1,-1
 1084 1063 l 1,2,-1
 647 -72 l 2,3,4
 570 -274 570 -274 466 -344 c 0,5,6
 369 -410 369 -410 194 -410 c 2,7,-1
 57 -410 l 1,8,-1
 30 -206 l 1,9,-1
 104 -206 l 2,10,11
 223 -206 223 -206 250 -201 c 0,12,13
 313 -190 313 -190 346 -136 c 128,-1,14
 379 -82 379 -82 412 34 c 1,15,-1
 -17 1063 l 1,16,-1
 268 1063 l 1,17,-1
 549 355 l 1,0,-1
EndSplineSet
EndChar

StartChar: z
Encoding: 122 122 93
Width: 970
Flags: W
HStem: 0 189<424 923> 883 180<100 558>
LayerCount: 2
Fore
SplineSet
558 883 m 1,0,-1
 100 883 l 1,1,-1
 100 1063 l 1,2,-1
 907 1063 l 1,3,-1
 907 917 l 1,4,-1
 424 189 l 1,5,-1
 923 189 l 1,6,-1
 923 0 l 1,7,-1
 74 0 l 1,8,-1
 74 161 l 1,9,-1
 558 883 l 1,0,-1
EndSplineSet
EndChar

StartChar: braceleft
Encoding: 123 123 94
Width: 789
Flags: W
HStem: -253 218<567.016 709> 527 236<55 231.768> 1325 218<567.016 709>
VStem: 252 298<-22.4122 479.032 810.968 1312.41>
CounterMasks: 1 e0
LayerCount: 2
Fore
SplineSet
55 763 m 1,0,-1
 149 763 l 2,1,2
 214 763 214 763 233 809.5 c 128,-1,3
 252 856 252 856 252 965 c 2,4,-1
 252 1252 l 2,5,6
 252 1410 252 1410 344 1476.5 c 128,-1,7
 436 1543 436 1543 609 1543 c 2,8,-1
 709 1543 l 1,9,-1
 709 1325 l 1,10,-1
 679 1325 l 2,11,12
 632 1325 632 1325 606 1318 c 128,-1,13
 580 1311 580 1311 567.5 1287.5 c 128,-1,14
 555 1264 555 1264 552.5 1238 c 128,-1,15
 550 1212 550 1212 550 1154 c 2,16,-1
 550 914 l 2,17,18
 550 748 550 748 452 686 c 0,19,20
 408 658 408 658 342 645 c 1,21,22
 408 632 408 632 452 604 c 0,23,24
 550 542 550 542 550 376 c 2,25,-1
 550 136 l 2,26,27
 550 78 550 78 552.5 52 c 128,-1,28
 555 26 555 26 567.5 2.5 c 128,-1,29
 580 -21 580 -21 606 -28 c 128,-1,30
 632 -35 632 -35 679 -35 c 2,31,-1
 709 -35 l 1,32,-1
 709 -253 l 1,33,-1
 609 -253 l 2,34,35
 436 -253 436 -253 344 -186.5 c 128,-1,36
 252 -120 252 -120 252 38 c 2,37,-1
 252 325 l 2,38,39
 252 434 252 434 233 480.5 c 128,-1,40
 214 527 214 527 149 527 c 2,41,-1
 55 527 l 1,42,-1
 55 763 l 1,0,-1
EndSplineSet
EndChar

StartChar: bar
Encoding: 124 124 95
Width: 364
Flags: W
VStem: 70 224<-280 1499>
LayerCount: 2
Fore
SplineSet
294 1499 m 1,0,-1
 294 -280 l 1,1,-1
 70 -280 l 1,2,-1
 70 1499 l 1,3,-1
 294 1499 l 1,0,-1
EndSplineSet
EndChar

StartChar: braceright
Encoding: 125 125 96
Width: 789
Flags: W
HStem: -253 218<80 221.984> 527 236<557.232 734> 1325 218<80 221.984>
VStem: 239 298<-22.4122 479.032 810.968 1312.41>
CounterMasks: 1 e0
LayerCount: 2
Fore
SplineSet
734 527 m 1,0,-1
 640 527 l 2,1,2
 575 527 575 527 556 480.5 c 128,-1,3
 537 434 537 434 537 325 c 2,4,-1
 537 38 l 2,5,6
 537 -120 537 -120 445 -186.5 c 128,-1,7
 353 -253 353 -253 180 -253 c 2,8,-1
 80 -253 l 1,9,-1
 80 -35 l 1,10,-1
 110 -35 l 2,11,12
 157 -35 157 -35 183 -28 c 128,-1,13
 209 -21 209 -21 221.5 2.5 c 128,-1,14
 234 26 234 26 236.5 52 c 128,-1,15
 239 78 239 78 239 136 c 2,16,-1
 239 376 l 2,17,18
 240 542 240 542 338 604 c 0,19,20
 382 632 382 632 447 645 c 1,21,22
 382 658 382 658 338 686 c 0,23,24
 240 748 240 748 239 914 c 2,25,-1
 239 1154 l 2,26,27
 239 1212 239 1212 236.5 1238 c 128,-1,28
 234 1264 234 1264 221.5 1287.5 c 128,-1,29
 209 1311 209 1311 183 1318 c 128,-1,30
 157 1325 157 1325 110 1325 c 2,31,-1
 80 1325 l 1,32,-1
 80 1543 l 1,33,-1
 180 1543 l 2,34,35
 353 1543 353 1543 445 1476.5 c 128,-1,36
 537 1410 537 1410 537 1252 c 2,37,-1
 537 965 l 2,38,39
 537 856 537 856 556 809.5 c 128,-1,40
 575 763 575 763 640 763 c 2,41,-1
 734 763 l 1,42,-1
 734 527 l 1,0,-1
EndSplineSet
EndChar

StartChar: asciitilde
Encoding: 126 126 97
Width: 1419
Flags: W
HStem: 385 194<800.69 1012.31> 525 194<388.172 494 495 648.012>
LayerCount: 2
Fore
SplineSet
1057 710 m 1,0,1
 1059 716 1059 716 1064 742 c 1,2,-1
 1240 687 l 1,3,-1
 1233 662 l 1,4,5
 1205 544 1205 544 1128 464.5 c 128,-1,6
 1051 385 1051 385 922 385 c 0,7,8
 806 385 806 385 696 454 c 0,9,10
 584 524 584 524 495 526 c 1,11,-1
 494 525 l 1,12,-1
 492 525 l 2,13,14
 433 525 433 525 396 491 c 128,-1,15
 359 457 359 457 345 407 c 1,16,-1
 338 370 l 1,17,-1
 172 443 l 1,18,-1
 177 464 l 1,19,20
 200 570 200 570 282 644.5 c 128,-1,21
 364 719 364 719 490 719 c 0,22,23
 610 719 610 719 774 636 c 0,24,25
 886 579 886 579 930 579 c 128,-1,26
 974 579 974 579 1008 617 c 128,-1,27
 1042 655 1042 655 1056 710 c 1,28,-1
 1057 710 l 1,0,1
EndSplineSet
EndChar

StartChar: exclamdown
Encoding: 161 161 99
Width: 399
Flags: W
HStem: 1124 321<89.9561 310.044>
VStem: 39 321<1175.02 1395.57> 79 256<-20 373.109>
LayerCount: 2
Fore
SplineSet
39 1286 m 128,-1,1
 39 1352 39 1352 87 1398.5 c 0,2,3
 134 1445 134 1445 200 1445 c 128,-1,4
 266 1445 266 1445 313 1398.5 c 128,-1,5
 360 1352 360 1352 360 1286 c 128,-1,6
 360 1220 360 1220 313 1172 c 128,-1,7
 266 1124 266 1124 200 1124 c 128,-1,8
 134 1124 134 1124 86.5 1172 c 128,-1,0
 39 1220 39 1220 39 1286 c 128,-1,1
335 -20 m 1,9,-1
 79 -20 l 1,10,-1
 79 227 l 1,11,-1
 152 971 l 1,12,-1
 269 971 l 1,13,-1
 335 227 l 1,14,-1
 335 -20 l 1,9,-1
EndSplineSet
EndChar

StartChar: cent
Encoding: 162 162 100
Width: 966
Flags: W
HStem: 5 205<480.692 572 674 830.126> 896 207<674 831.575>
VStem: 83 272<344.055 773.278> 572 102<-270 9.26855 216 892 1105 1371>
LayerCount: 2
Fore
SplineSet
940 98 m 1,0,1
 815 14 815 14 674 5 c 1,2,-1
 674 -270 l 1,3,-1
 572 -270 l 1,4,-1
 572 5 l 1,5,6
 354 22 354 22 221 162 c 0,7,8
 83 307 83 307 83 578 c 0,9,10
 84 876 84 876 290 1016 c 0,11,12
 409 1097 409 1097 572 1105 c 1,13,-1
 572 1371 l 1,14,-1
 674 1371 l 1,15,-1
 674 1103 l 1,16,17
 823 1089 823 1089 928 1011 c 1,18,-1
 883 822 l 1,19,20
 850 846 850 846 791 868 c 128,-1,21
 732 890 732 890 674 896 c 1,22,-1
 674 210 l 1,23,24
 788 218 788 218 887 288 c 1,25,-1
 940 98 l 1,0,1
572 892 m 1,26,27
 472 874 472 874 413.5 795.5 c 128,-1,28
 355 717 355 717 355 568 c 0,29,30
 355 260 355 260 572 216 c 1,31,-1
 572 892 l 1,26,27
EndSplineSet
EndChar

StartChar: sterling
Encoding: 163 163 101
Width: 1115
Flags: W
HStem: 0 207<405 1058> 653 170<38 224 473 854> 1270 210<556.414 849.156>
VStem: 224 249<259.922 652 823 1180.9>
LayerCount: 2
Fore
SplineSet
473 503 m 2,0,1
 473 319 473 319 405 207 c 1,2,-1
 1077 207 l 1,3,-1
 1058 0 l 1,4,-1
 77 0 l 1,5,-1
 45 167 l 1,6,7
 114 198 114 198 148 226 c 0,8,9
 224 287 224 287 224 445 c 2,10,-1
 224 652 l 1,11,-1
 38 652 l 1,12,-1
 38 822 l 1,13,-1
 224 822 l 1,14,-1
 224 942 l 2,15,16
 224 1197 224 1197 341 1338.5 c 128,-1,17
 458 1480 458 1480 693 1480 c 0,18,19
 953 1480 953 1480 1083 1276 c 1,20,-1
 957 1135 l 1,21,22
 852 1240 852 1240 778 1260 c 0,23,24
 740 1270 740 1270 696 1270 c 0,25,26
 472 1270 472 1270 472 988 c 2,27,-1
 472 823 l 1,28,-1
 854 823 l 1,29,-1
 854 653 l 1,30,-1
 473 653 l 1,31,-1
 473 503 l 2,0,1
EndSplineSet
EndChar

StartChar: currency
Encoding: 164 164 102
Width: 1132
Flags: W
HStem: 306 90<396.507 737.792> 1086 90<396.76 736.121>
VStem: 132 90<570.55 911.45> 912 90<571.583 910.603>
LayerCount: 2
Fore
SplineSet
222 741 m 128,-1,1
 222 598 222 598 323 497 c 128,-1,2
 424 396 424 396 567 396 c 128,-1,3
 710 396 710 396 811 497 c 128,-1,4
 912 598 912 598 912 741 c 128,-1,5
 912 884 912 884 811 985 c 128,-1,6
 710 1086 710 1086 567 1086 c 128,-1,7
 424 1086 424 1086 323 985 c 128,-1,0
 222 884 222 884 222 741 c 128,-1,1
275 1064 m 1,8,9
 398 1176 398 1176 568 1176 c 128,-1,10
 738 1176 738 1176 862 1061 c 1,11,-1
 1099 1280 l 1,12,-1
 1144 1224 l 1,13,-1
 910 1008 l 1,14,15
 1002 889 1002 889 1002 741 c 128,-1,16
 1002 593 1002 593 911 475 c 1,17,-1
 1144 259 l 1,18,-1
 1099 203 l 1,19,-1
 862 422 l 1,20,21
 736 306 736 306 567 306 c 128,-1,22
 398 306 398 306 274 419 c 1,23,-1
 41 203 l 1,24,-1
 -12 254 l 1,25,-1
 225 472 l 1,26,27
 132 591 132 591 132 741 c 128,-1,28
 132 891 132 891 225 1010 c 1,29,-1
 -12 1229 l 1,30,-1
 41 1280 l 1,31,-1
 275 1064 l 1,8,9
EndSplineSet
EndChar

StartChar: yen
Encoding: 165 165 103
Width: 1224
Flags: W
HStem: 0 21G<479 777> 286 162<146 1119> 575 162<146 1119> 1432 20G<-36 284.642 961.425 1278>
VStem: 479 298<0 593>
LayerCount: 2
Fore
SplineSet
1119 737 m 1,0,-1
 1119 575 l 1,1,-1
 146 575 l 1,2,-1
 146 737 l 1,3,-1
 1119 737 l 1,0,-1
1119 448 m 1,4,-1
 1119 286 l 1,5,-1
 146 286 l 1,6,-1
 146 448 l 1,7,-1
 1119 448 l 1,4,-1
1278 1452 m 1,8,-1
 777 593 l 1,9,-1
 777 0 l 1,10,-1
 479 0 l 1,11,-1
 479 593 l 1,12,-1
 -36 1452 l 1,13,-1
 273 1452 l 1,14,-1
 624 849 l 1,15,-1
 973 1452 l 1,16,-1
 1278 1452 l 1,8,-1
EndSplineSet
EndChar

StartChar: brokenbar
Encoding: 166 166 104
Width: 524
Flags: W
VStem: 147 224<-279 351 869 1499>
LayerCount: 2
Fore
SplineSet
371 869 m 1,0,-1
 147 869 l 1,1,-1
 147 1499 l 1,2,-1
 371 1499 l 1,3,-1
 371 869 l 1,0,-1
371 -279 m 1,4,-1
 147 -279 l 1,5,-1
 147 351 l 1,6,-1
 371 351 l 1,7,-1
 371 -279 l 1,4,-1
EndSplineSet
EndChar

StartChar: section
Encoding: 167 167 105
Width: 1079
Flags: W
HStem: -42 203<210.109 631.829> 1305 201<450.035 864.665>
VStem: 136 244<687.039 851.26> 170 260.99<1126.18 1280.82> 657.012 264.988<190.553 335.665> 711 232.502<607.296 758.731>
LayerCount: 2
Fore
SplineSet
627 577 m 1,0,1
 711 629 711 629 711 682 c 0,2,3
 711 724 711 724 678.5 750.5 c 128,-1,4
 646 777 646 777 625.5 791 c 0,5,6
 605 806 605 806 572 822 c 0,7,8
 499 859 499 859 454 876 c 1,9,10
 380 824 380 824 380 770 c 0,11,12
 380 670 380 670 627 577 c 1,0,1
471 161 m 0,13,14
 657.012 161 657.012 161 657.012 271.155 c 0,15,16
 657.012 318.482 657.012 318.482 576 358 c 0,17,18
 491 399 491 399 419.5 428 c 128,-1,19
 348 457 348 457 301 486.5 c 128,-1,20
 254 516 254 516 218 549 c 0,21,22
 136 623 136 623 136 734 c 0,23,24
 136 878 136 878 275 975 c 1,25,26
 170 1066 170 1066 170 1205 c 0,27,28
 170 1390 170 1390 350 1464 c 0,29,30
 451 1506 451 1506 591.5 1506 c 128,-1,31
 732 1506 732 1506 867 1467 c 1,32,-1
 870 1265 l 1,33,34
 760 1305 760 1305 595.5 1305 c 128,-1,35
 430.99 1305 430.99 1305 430.99 1202.76 c 0,36,37
 430.99 1139.51 430.99 1139.51 532 1090 c 0,38,39
 578 1068 578 1068 632.5 1045.5 c 128,-1,40
 687 1023 687 1023 741.5 995 c 0,41,42
 796 968 796 968 842 934 c 0,43,44
 943.502 859.366 943.502 859.366 943.502 729.772 c 0,45,46
 943.25 598.199 943.25 598.199 808 492 c 1,47,48
 922 406 922 406 922 270 c 0,49,50
 922 76 922 76 742 1 c 0,51,52
 639 -42 639 -42 478.5 -42 c 129,-1,53
 318 -42 318 -42 162 20 c 1,54,-1
 162 218 l 1,55,56
 313 161 313 161 471 161 c 0,13,14
EndSplineSet
EndChar

StartChar: dieresis
Encoding: 168 168 106
Width: 766
Flags: W
HStem: 1230 268<63 271 487 696>
VStem: 63 208<1230 1498> 487 209<1230 1498>
LayerCount: 2
Fore
SplineSet
696 1230 m 1,0,-1
 487 1230 l 1,1,-1
 487 1498 l 1,2,-1
 696 1498 l 1,3,-1
 696 1230 l 1,0,-1
271 1230 m 1,4,-1
 63 1230 l 1,5,-1
 63 1498 l 1,6,-1
 271 1498 l 1,7,-1
 271 1230 l 1,4,-1
EndSplineSet
EndChar

StartChar: copyright
Encoding: 169 169 107
Width: 1673
Flags: W
HStem: -21 103<597.64 1069.84> 249 130<663.322 1024.7> 1092 125<667.914 1024.8> 1374 104<597.64 1069.84>
VStem: 79 117<489.716 966.284> 373 148<527.375 927.164> 1477 117<491.777 963.882>
LayerCount: 2
Fore
SplineSet
1534 1020.5 m 128,-1,1
 1594 881 1594 881 1594 727.5 c 128,-1,2
 1594 574 1594 574 1534 435 c 128,-1,3
 1474 296 1474 296 1372 196 c 128,-1,4
 1270 96 1270 96 1130 37.5 c 128,-1,5
 990 -21 990 -21 837 -21 c 0,6,7
 631 -21 631 -21 456.5 78.5 c 128,-1,8
 282 178 282 178 180.5 350.5 c 128,-1,9
 79 523 79 523 79 728 c 128,-1,10
 79 933 79 933 180.5 1105.5 c 128,-1,11
 282 1278 282 1278 456.5 1378 c 128,-1,12
 631 1478 631 1478 837 1478 c 0,13,14
 990 1478 990 1478 1130 1419 c 128,-1,15
 1270 1360 1270 1360 1372 1260 c 128,-1,0
 1474 1160 1474 1160 1534 1020.5 c 128,-1,1
514 168.5 m 128,-1,17
 662 82 662 82 815 82 c 128,-1,18
 968 82 968 82 1086.5 133 c 128,-1,19
 1205 184 1205 184 1290.5 270.5 c 128,-1,20
 1376 357 1376 357 1426.5 476.5 c 128,-1,21
 1477 596 1477 596 1477 728 c 128,-1,22
 1477 860 1477 860 1426.5 979.5 c 128,-1,23
 1376 1099 1376 1099 1290.5 1185.5 c 128,-1,24
 1205 1272 1205 1272 1086.5 1323 c 128,-1,25
 968 1374 968 1374 815 1374 c 128,-1,26
 662 1374 662 1374 514 1287.5 c 128,-1,27
 366 1201 366 1201 281 1052.5 c 128,-1,28
 196 904 196 904 196 728 c 128,-1,29
 196 552 196 552 281 403.5 c 128,-1,16
 366 255 366 255 514 168.5 c 128,-1,17
1069 446 m 1,30,-1
 1113 330 l 1,31,32
 994 249 994 249 810 249 c 128,-1,33
 626 249 626 249 499.5 384.5 c 128,-1,34
 373 520 373 520 373 729 c 0,35,36
 373 863 373 863 428 974 c 128,-1,37
 483 1085 483 1085 584.5 1151 c 128,-1,38
 686 1217 686 1217 814 1217 c 0,39,40
 995 1217 995 1217 1113 1137 c 1,41,-1
 1069 1025 l 1,42,43
 954 1092 954 1092 819 1092 c 128,-1,44
 684 1092 684 1092 602.5 986 c 128,-1,45
 521 880 521 880 521 727 c 0,46,47
 521 522 521 522 655 428 c 0,48,49
 725 379 725 379 839.5 379 c 128,-1,50
 954 379 954 379 1069 446 c 1,30,-1
EndSplineSet
EndChar

StartChar: ordfeminine
Encoding: 170 170 108
Width: 732
Flags: W
HStem: 503 124<103 661> 725 133<237.871 436.5> 1076 102<292.48 483> 1354 134<123.889 455.626>
VStem: 55 169<873.033 1019.01> 483 179<902.438 1076 1178.74 1322.54> 521 141<736 792.692>
LayerCount: 2
Fore
SplineSet
483 1185 m 1,0,-1
 483 1222 l 2,1,2
 483 1293 483 1293 454 1323.5 c 128,-1,3
 425 1354 425 1354 362 1354 c 128,-1,4
 299 1354 299 1354 109 1306 c 1,5,-1
 73 1427 l 1,6,7
 247 1488 247 1488 386 1488 c 0,8,9
 662 1488 662 1488 662 1247 c 2,10,-1
 662 736 l 1,11,-1
 521 736 l 1,12,-1
 499 823 l 1,13,14
 468 781 468 781 402 753 c 128,-1,15
 336 725 336 725 259 725 c 128,-1,16
 182 725 182 725 118.5 779 c 128,-1,17
 55 833 55 833 55 934 c 0,18,19
 56 1030 56 1030 118 1080 c 0,20,21
 205 1150 205 1150 432 1178 c 0,22,23
 468 1182 468 1182 483 1185 c 1,0,-1
296 858 m 0,24,25
 398 858 398 858 483 937 c 1,26,-1
 483 1076 l 1,27,28
 343 1056 343 1056 283.5 1028 c 128,-1,29
 224 1000 224 1000 224 941 c 0,30,31
 224 903 224 903 244.5 880.5 c 128,-1,32
 265 858 265 858 296 858 c 0,24,25
103 503 m 1,33,-1
 103 627 l 1,34,-1
 661 627 l 1,35,-1
 661 503 l 1,36,-1
 103 503 l 1,33,-1
EndSplineSet
EndChar

StartChar: guillemotleft
Encoding: 171 171 109
Width: 933
Flags: W
LayerCount: 2
Fore
SplineSet
317 924 m 1,0,-1
 546 924 l 1,1,-1
 270 546 l 1,2,-1
 537 171 l 1,3,-1
 311 171 l 1,4,-1
 33 546 l 1,5,-1
 317 924 l 1,0,-1
675 924 m 1,6,-1
 899 924 l 1,7,-1
 628 546 l 1,8,-1
 891 171 l 1,9,-1
 670 171 l 1,10,-1
 390 546 l 1,11,-1
 675 924 l 1,6,-1
EndSplineSet
EndChar

StartChar: logicalnot
Encoding: 172 172 110
Width: 1419
Flags: W
HStem: 609 199<185 1022>
VStem: 1022 202<238 609>
LayerCount: 2
Fore
SplineSet
1224 238 m 1,0,-1
 1022 238 l 1,1,-1
 1022 609 l 1,2,-1
 185 609 l 1,3,-1
 185 808 l 1,4,-1
 1224 808 l 1,5,-1
 1224 238 l 1,0,-1
EndSplineSet
EndChar

StartChar: uni00AD
Encoding: 173 173 111
Width: 698
Flags: W
HStem: 433 194<70 628>
VStem: 70 558<433 627>
LayerCount: 2
Fore
SplineSet
70 433 m 1,0,-1
 70 627 l 1,1,-1
 628 627 l 1,2,-1
 628 433 l 1,3,-1
 70 433 l 1,0,-1
EndSplineSet
EndChar

StartChar: registered
Encoding: 174 174 112
Width: 1673
Flags: W
HStem: -21 103<597.64 1069.84> 678 125<684 844.542> 1083 126<683 988.804> 1374 104<597.64 1069.84>
VStem: 79 117<489.716 966.284> 531 153<261 678 803 1083> 1016 147<836.271 1057.59> 1477 117<491.777 963.882>
LayerCount: 2
Fore
SplineSet
1534 1020.5 m 128,-1,1
 1594 881 1594 881 1594 727.5 c 128,-1,2
 1594 574 1594 574 1534 435 c 128,-1,3
 1474 296 1474 296 1372 196 c 128,-1,4
 1270 96 1270 96 1130 37.5 c 128,-1,5
 990 -21 990 -21 837 -21 c 0,6,7
 631 -21 631 -21 456.5 78.5 c 128,-1,8
 282 178 282 178 180.5 350.5 c 128,-1,9
 79 523 79 523 79 728 c 128,-1,10
 79 933 79 933 180.5 1105.5 c 128,-1,11
 282 1278 282 1278 456.5 1378 c 128,-1,12
 631 1478 631 1478 837 1478 c 0,13,14
 990 1478 990 1478 1130 1419 c 128,-1,15
 1270 1360 1270 1360 1372 1260 c 128,-1,0
 1474 1160 1474 1160 1534 1020.5 c 128,-1,1
514 168.5 m 128,-1,17
 662 82 662 82 815 82 c 128,-1,18
 968 82 968 82 1086.5 133 c 128,-1,19
 1205 184 1205 184 1290.5 270.5 c 128,-1,20
 1376 357 1376 357 1426.5 476.5 c 128,-1,21
 1477 596 1477 596 1477 728 c 128,-1,22
 1477 860 1477 860 1426.5 979.5 c 128,-1,23
 1376 1099 1376 1099 1290.5 1185.5 c 128,-1,24
 1205 1272 1205 1272 1086.5 1323 c 128,-1,25
 968 1374 968 1374 815 1374 c 128,-1,26
 662 1374 662 1374 514 1287.5 c 128,-1,27
 366 1201 366 1201 281 1052.5 c 128,-1,28
 196 904 196 904 196 728 c 128,-1,29
 196 552 196 552 281 403.5 c 128,-1,16
 366 255 366 255 514 168.5 c 128,-1,17
798 803 m 2,30,31
 911 803 911 803 963.5 831.5 c 128,-1,32
 1016 860 1016 860 1016 950 c 0,33,34
 1016 1034 1016 1034 972 1058 c 0,35,36
 930 1081 930 1081 879 1082 c 128,-1,37
 828 1083 828 1083 789 1083 c 2,38,-1
 683 1083 l 1,39,-1
 683 803 l 1,40,-1
 798 803 l 2,30,31
821 678 m 2,41,-1
 684 678 l 1,42,-1
 684 261 l 1,43,-1
 531 261 l 1,44,-1
 531 1209 l 1,45,-1
 840 1209 l 2,46,47
 1163 1209 1163 1209 1163 950 c 0,48,49
 1163 838 1163 838 1118 780.5 c 128,-1,50
 1073 723 1073 723 966 695 c 1,51,52
 1057 560 1057 560 1209 261 c 1,53,-1
 1039 261 l 1,54,-1
 916 492 l 1,55,56
 825 678 825 678 821 678 c 2,41,-1
EndSplineSet
EndChar

StartChar: glyph113
Encoding: 175 175 113
Width: 862
Flags: W
HStem: 1335 163<98 777>
VStem: 98 679<1335 1498>
LayerCount: 2
Fore
SplineSet
777 1498 m 1,0,-1
 777 1335 l 1,1,-1
 98 1335 l 1,2,-1
 98 1498 l 1,3,-1
 777 1498 l 1,0,-1
EndSplineSet
EndChar

StartChar: degree
Encoding: 176 176 114
Width: 842
Flags: W
HStem: 864 156<313.626 524.993> 1277 156<316.182 523.942>
VStem: 107 171<1056.85 1239.71> 560 171.013<1056.8 1239.24>
LayerCount: 2
Fore
SplineSet
189.5 950 m 128,-1,1
 107 1036 107 1036 107 1153.5 c 128,-1,2
 107 1271 107 1271 189.5 1352 c 128,-1,3
 272 1433 272 1433 419 1433 c 128,-1,4
 566 1433 566 1433 648.5 1351.5 c 128,-1,5
 731.013 1269.99 731.013 1269.99 731.013 1151.17 c 0,6,7
 731.013 1040.91 731.013 1040.91 654 956 c 0,8,9
 571 864 571 864 421.5 864 c 128,-1,0
 272 864 272 864 189.5 950 c 128,-1,1
517.5 1239 m 128,-1,11
 475 1277 475 1277 419.5 1277 c 128,-1,12
 364 1277 364 1277 321 1238.5 c 128,-1,13
 278 1200 278 1200 278 1149 c 128,-1,14
 278 1098 278 1098 315 1059 c 128,-1,15
 352 1020 352 1020 419 1020 c 128,-1,16
 486 1020 486 1020 523 1059 c 128,-1,17
 560 1098 560 1098 560 1149.5 c 128,-1,10
 560 1201 560 1201 517.5 1239 c 128,-1,11
EndSplineSet
EndChar

StartChar: plusminus
Encoding: 177 177 115
Width: 1444
Flags: W
HStem: 0 158<272 1167> 570 198<271 610 830 1168> 1047 20G<610 830>
VStem: 610 220<248 570 768 1067>
LayerCount: 2
Fore
SplineSet
271 570 m 1,0,-1
 271 768 l 1,1,-1
 610 768 l 1,2,-1
 610 1067 l 1,3,-1
 830 1067 l 1,4,-1
 830 768 l 1,5,-1
 1168 768 l 1,6,-1
 1168 570 l 1,7,-1
 830 570 l 1,8,-1
 830 248 l 1,9,-1
 610 248 l 1,10,-1
 610 570 l 1,11,-1
 271 570 l 1,0,-1
272 158 m 1,12,-1
 1167 158 l 1,13,-1
 1167 0 l 1,14,-1
 272 0 l 1,15,-1
 272 158 l 1,12,-1
EndSplineSet
EndChar

StartChar: uni00B2
Encoding: 178 178 116
Width: 845
Flags: W
HStem: 548 146<402 691> 1236 165<257.799 489.528>
VStem: 528 180.533<987.867 1201.45>
LayerCount: 2
Fore
SplineSet
129 1265 m 1,0,1
 233 1401 233 1401 422 1401 c 0,2,3
 586 1401 586 1401 668 1267 c 0,4,5
 708 1201 708 1201 708.5 1140 c 0,6,7
 708.533 1135.93 708.533 1135.93 708.533 1131.99 c 0,8,9
 708.533 1076.77 708.533 1076.77 702 1045.5 c 0,10,11
 695 1012 695 1012 685.5 985.5 c 128,-1,12
 676 959 676 959 654.5 929.5 c 128,-1,13
 633 900 633 900 617 880.5 c 128,-1,14
 601 861 601 861 567 831 c 0,15,16
 521 791 521 791 469.5 749 c 128,-1,17
 418 707 418 707 402 694 c 1,18,-1
 712 694 l 1,19,-1
 691 548 l 1,20,-1
 146 548 l 1,21,-1
 146 698 l 1,22,23
 154 706 154 706 222.5 758.5 c 128,-1,24
 291 811 291 811 325.5 837.5 c 128,-1,25
 360 864 360 864 403 902 c 128,-1,26
 446 940 446 940 470 970 c 0,27,28
 528 1042 528 1042 528 1105.5 c 128,-1,29
 528 1169 528 1169 486 1202.5 c 128,-1,30
 444 1236 444 1236 392.5 1236 c 0,31,32
 340 1236 340 1236 284 1207 c 0,33,34
 227 1178 227 1178 190 1131 c 1,35,36
 188 1134 188 1134 187 1137 c 2,37,-1
 128 1263 l 1,38,-1
 129 1265 l 1,0,1
EndSplineSet
EndChar

StartChar: uni00B3
Encoding: 179 179 117
Width: 803
Flags: W
HStem: 593 146<178.625 485.986> 955 138<252 465.273> 1298 144<197.499 462.795>
VStem: 484 188<1116.54 1269.64> 509 181<761 930.093>
LayerCount: 2
Fore
SplineSet
107 1354 m 1,0,1
 223 1442 223 1442 393 1442 c 0,2,3
 506 1442 506 1442 586 1388 c 0,4,5
 672 1330 672 1330 672 1207 c 2,6,-1
 672 1205 l 1,7,8
 668 1091 668 1091 545 1036 c 1,9,10
 604 1017 604 1017 647 964.5 c 128,-1,11
 690 912 690 912 690 839 c 128,-1,12
 690 766 690 766 646 706 c 0,13,14
 562.73 592.991 562.73 592.991 383.158 592.991 c 0,15,-1
 380 593 l 1,16,17
 236 593 236 593 118 668 c 1,18,-1
 164 793 l 1,19,20
 196 768 196 768 256 753.5 c 128,-1,21
 316 739 316 739 368 739 c 0,22,23
 509 739 509 739 509 854 c 0,24,25
 509 956 509 956 335 956 c 1,26,-1
 252 955 l 1,27,-1
 252 1093 l 1,28,-1
 339 1093 l 2,29,30
 484 1093 484 1093 484 1200 c 0,31,32
 484 1243 484 1243 456.5 1270.5 c 128,-1,33
 429 1298 429 1298 374.5 1298 c 128,-1,34
 320 1298 320 1298 260.5 1279 c 128,-1,35
 201 1260 201 1260 171 1236 c 1,36,-1
 107 1354 l 1,0,1
EndSplineSet
EndChar

StartChar: acute
Encoding: 180 180 118
Width: 612
Flags: W
HStem: 1176 382<378 381>
VStem: 212 480
LayerCount: 2
Fore
SplineSet
692 1558 m 1,0,-1
 381 1176 l 1,1,-1
 212 1176 l 1,2,-1
 378 1558 l 1,3,-1
 692 1558 l 1,0,-1
EndSplineSet
EndChar

StartChar: mu
Encoding: 956 956 119
Width: 1220
Flags: W
HStem: -18 214<462.449 755.636>
VStem: 141 244<272.365 1036> 141 217<-196 53> 834 243<273.078 1035>
LayerCount: 2
Fore
SplineSet
609 -18 m 0,0,1
 472 -18 472 -18 358 53 c 1,2,-1
 358 -196 l 1,3,-1
 141 -196 l 1,4,-1
 141 1036 l 1,5,-1
 385 1036 l 1,6,-1
 385 412 l 2,7,8
 385 314 385 314 445 255 c 128,-1,9
 505 196 505 196 609 196 c 128,-1,10
 713 196 713 196 773.5 255.5 c 128,-1,11
 834 315 834 315 834 411 c 2,12,-1
 834 1035 l 1,13,-1
 1077 1035 l 1,14,-1
 1077 407 l 2,15,16
 1077 214 1077 214 948.5 98 c 128,-1,17
 820 -18 820 -18 609 -18 c 0,0,1
EndSplineSet
EndChar

StartChar: paragraph
Encoding: 182 182 120
Width: 1238
Flags: W
HStem: 1277 184<643.204 783 966 1048>
VStem: 97 544<937.347 1270.82> 425 216<-147 766.131> 783 183<-148 1277>
LayerCount: 2
Fore
SplineSet
641 -148 m 1,0,-1
 425 -147 l 1,1,-1
 425 760 l 1,2,3
 274 776 274 776 185.5 874.5 c 128,-1,4
 97 973 97 973 97 1121 c 0,5,6
 97 1410 97 1410 480 1452 c 0,7,8
 556 1460 556 1460 649 1461 c 2,9,-1
 1048 1461 l 1,10,-1
 1048 1277 l 1,11,-1
 966 1277 l 1,12,-1
 966 -148 l 1,13,-1
 783 -148 l 1,14,-1
 783 1277 l 1,15,-1
 641 1277 l 1,16,-1
 641 -148 l 1,0,-1
EndSplineSet
EndChar

StartChar: periodcentered
Encoding: 183 183 121
Width: 406
Flags: W
HStem: 463 270<70 336>
VStem: 70 266<463 733>
LayerCount: 2
Fore
SplineSet
336 733 m 1,0,-1
 336 463 l 1,1,-1
 70 463 l 1,2,-1
 70 733 l 1,3,-1
 336 733 l 1,0,-1
EndSplineSet
EndChar

StartChar: cedilla
Encoding: 184 184 122
Width: 586
Flags: W
HStem: -339 366<171 272>
VStem: 44 290
LayerCount: 2
Fore
SplineSet
272 -339 m 1,0,-1
 44 -339 l 1,1,-1
 171 27 l 1,2,-1
 334 27 l 1,3,-1
 272 -339 l 1,0,-1
EndSplineSet
EndChar

StartChar: uni00B9
Encoding: 185 185 123
Width: 780
Flags: W
HStem: 584 166<151 296 512 654> 1446 20G<312.636 512>
VStem: 296 216<750 1269>
LayerCount: 2
Fore
SplineSet
353 1466 m 1,0,-1
 512 1466 l 1,1,-1
 512 750 l 1,2,-1
 654 750 l 1,3,-1
 654 584 l 1,4,-1
 151 584 l 1,5,-1
 151 750 l 1,6,-1
 296 750 l 1,7,-1
 296 1269 l 1,8,-1
 131 1193 l 1,9,-1
 131 1356 l 1,10,-1
 353 1466 l 1,0,-1
EndSplineSet
EndChar

StartChar: ordmasculine
Encoding: 186 186 124
Width: 842
Flags: W
HStem: 717 168<296.25 552.487> 1319 167<298.956 550.71>
VStem: 46 193<945.125 1258.75> 609 191<942.084 1258.46>
LayerCount: 2
Fore
SplineSet
700 1380.5 m 128,-1,1
 800 1275 800 1275 800 1102.5 c 128,-1,2
 800 930 800 930 699 823.5 c 128,-1,3
 598 717 598 717 423 717 c 128,-1,4
 248 717 248 717 147 822.5 c 128,-1,5
 46 928 46 928 46 1102 c 128,-1,6
 46 1276 46 1276 149 1381 c 128,-1,7
 252 1486 252 1486 426 1486 c 128,-1,0
 600 1486 600 1486 700 1380.5 c 128,-1,1
239 1113 m 1,8,-1
 239 1103 l 2,9,10
 239 885 239 885 426 885 c 0,11,12
 519 885 519 885 564 942 c 128,-1,13
 609 999 609 999 609 1100.5 c 128,-1,14
 609 1202 609 1202 563 1260.5 c 128,-1,15
 517 1319 517 1319 424.5 1319 c 128,-1,16
 332 1319 332 1319 286.5 1263 c 128,-1,17
 241 1207 241 1207 239 1113 c 1,8,-1
EndSplineSet
EndChar

StartChar: guillemotright
Encoding: 187 187 125
Width: 1152
Flags: W
LayerCount: 2
Fore
SplineSet
1035 547 m 1,0,-1
 751 171 l 1,1,-1
 527 171 l 1,2,-1
 798 547 l 1,3,-1
 535 924 l 1,4,-1
 758 924 l 1,5,-1
 1035 547 l 1,0,-1
656 547 m 1,6,-1
 371 171 l 1,7,-1
 146 171 l 1,8,-1
 418 547 l 1,9,-1
 153 924 l 1,10,-1
 376 924 l 1,11,-1
 656 547 l 1,6,-1
EndSplineSet
EndChar

StartChar: onequarter
Encoding: 188 188 126
Width: 1732
Flags: W
HStem: 0 21G<317 551.094 1375 1549.12> 163 141<1181 1373 1551 1668> 584 166<91 236 452 594> 1446 0G<252.636 452 1329.8 1556>
VStem: 236 216<750 1269> 1373 178<0 163 304 622>
LayerCount: 2
Fore
SplineSet
293 1466 m 1,0,-1
 452 1466 l 1,1,-1
 452 750 l 1,2,-1
 594 750 l 1,3,-1
 594 584 l 1,4,-1
 91 584 l 1,5,-1
 91 750 l 1,6,-1
 236 750 l 1,7,-1
 236 1269 l 1,8,-1
 71 1193 l 1,9,-1
 71 1356 l 1,10,-1
 293 1466 l 1,0,-1
317 0 m 1,11,-1
 1344 1446 l 1,12,-1
 1556 1446 l 1,13,-1
 537 0 l 1,14,-1
 317 0 l 1,11,-1
1373 622 m 1,15,-1
 1181 304 l 1,16,-1
 1373 304 l 1,17,-1
 1373 622 l 1,15,-1
1550 163 m 1,18,-1
 1549 0 l 1,19,-1
 1375 0 l 1,20,-1
 1375 163 l 1,21,-1
 980 163 l 1,22,-1
 980 319 l 1,23,-1
 1357 854 l 1,24,-1
 1551 854 l 1,25,-1
 1551 304 l 1,26,-1
 1668 304 l 1,27,-1
 1668 163 l 1,28,-1
 1550 163 l 1,18,-1
EndSplineSet
EndChar

StartChar: onehalf
Encoding: 189 189 127
Width: 1836
Flags: W
HStem: -29 146<1428 1717> 0 21G<322 556.094> 584 166<118 263 479 621> 659 165<1284.57 1515.8> 1446 0G<279.636 479 1334.8 1561>
VStem: 263 216<750 1269> 1554.51 181.494<411.897 625.012>
LayerCount: 2
Fore
SplineSet
1156 687 m 1,0,1
 1259 824 1259 824 1448 824 c 0,2,3
 1612 824 1612 824 1695 690 c 0,4,5
 1736 624 1736 624 1736 538 c 0,6,7
 1736 426 1736 426 1682 352 c 0,8,9
 1627 276 1627 276 1539 206 c 0,10,11
 1518 189 1518 189 1481 159.5 c 128,-1,12
 1444 130 1444 130 1428 117 c 1,13,-1
 1739 117 l 1,14,-1
 1717 -29 l 1,15,-1
 1172 -29 l 1,16,-1
 1172 121 l 1,17,18
 1178 127 1178 127 1248 180 c 128,-1,19
 1318 233 1318 233 1352.5 259.5 c 128,-1,20
 1387 286 1387 286 1429.5 324.5 c 128,-1,21
 1472 363 1472 363 1496 393 c 0,22,23
 1554.25 465.309 1554.25 465.309 1554.51 529.461 c 0,24,25
 1554.51 591.395 1554.51 591.395 1512.5 625 c 0,26,27
 1470 659 1470 659 1419 659 c 128,-1,28
 1368 659 1368 659 1311 630 c 0,29,30
 1255 601 1255 601 1216 553 c 1,31,32
 1215 556 1215 556 1213 559 c 2,33,-1
 1154 685 l 1,34,-1
 1156 687 l 1,0,1
320 1466 m 1,35,-1
 479 1466 l 1,36,-1
 479 750 l 1,37,-1
 621 750 l 1,38,-1
 621 584 l 1,39,-1
 118 584 l 1,40,-1
 118 750 l 1,41,-1
 263 750 l 1,42,-1
 262 1269 l 1,43,-1
 98 1193 l 1,44,-1
 98 1356 l 1,45,-1
 320 1466 l 1,35,-1
322 0 m 1,46,-1
 1349 1446 l 1,47,-1
 1561 1446 l 1,48,-1
 542 0 l 1,49,-1
 322 0 l 1,46,-1
EndSplineSet
EndChar

StartChar: threequarters
Encoding: 190 190 128
Width: 1664
Flags: W
HStem: 0 21G<254 488.094 1304 1478.12> 163 141<1110 1302 1480 1597> 593 146<136.625 443.986> 955 138<210 423.273> 1298 144<155.499 420.795>
VStem: 442 188<1116.54 1269.64> 467 181<761 930.093> 1302 178<0 163 304 622>
LayerCount: 2
Fore
SplineSet
65 1354 m 1,0,1
 181 1442 181 1442 351 1442 c 0,2,3
 464 1442 464 1442 544 1388 c 0,4,5
 630 1330 630 1330 630 1207 c 2,6,-1
 630 1205 l 1,7,8
 626 1091 626 1091 503 1036 c 1,9,10
 562 1017 562 1017 605 964.5 c 128,-1,11
 648 912 648 912 648 839 c 128,-1,12
 648 766 648 766 604 706 c 0,13,14
 520.73 592.991 520.73 592.991 341.158 592.991 c 0,15,-1
 338 593 l 1,16,17
 194 593 194 593 76 668 c 1,18,-1
 122 793 l 1,19,20
 154 768 154 768 214 753.5 c 128,-1,21
 274 739 274 739 326 739 c 0,22,23
 467 739 467 739 467 854 c 0,24,25
 467 956 467 956 293 956 c 1,26,-1
 210 955 l 1,27,-1
 210 1093 l 1,28,-1
 297 1093 l 2,29,30
 442 1093 442 1093 442 1200 c 0,31,32
 442 1243 442 1243 414.5 1270.5 c 128,-1,33
 387 1298 387 1298 332.5 1298 c 128,-1,34
 278 1298 278 1298 218.5 1279 c 128,-1,35
 159 1260 159 1260 129 1236 c 1,36,-1
 65 1354 l 1,0,1
1302 622 m 1,37,-1
 1110 304 l 1,38,-1
 1302 304 l 1,39,-1
 1302 622 l 1,37,-1
1479 163 m 1,40,-1
 1478 0 l 1,41,-1
 1304 0 l 1,42,-1
 1304 163 l 1,43,-1
 909 163 l 1,44,-1
 909 319 l 1,45,-1
 1286 854 l 1,46,-1
 1480 854 l 1,47,-1
 1480 304 l 1,48,-1
 1597 304 l 1,49,-1
 1597 163 l 1,50,-1
 1479 163 l 1,40,-1
254 0 m 1,51,-1
 1281 1446 l 1,52,-1
 1493 1446 l 1,53,-1
 474 0 l 1,54,-1
 254 0 l 1,51,-1
EndSplineSet
EndChar

StartChar: AE
Encoding: 198 198 136
Width: 1937
Flags: W
HStem: 0 208<1323 1834> 358 208<635 994> 632 208<1287 1773> 1244 208<1237 1793>
LayerCount: 2
Fore
SplineSet
994 566 m 1,0,-1
 950 1177 l 1,1,-1
 635 566 l 1,2,-1
 994 566 l 1,0,-1
1037 0 m 1,3,-1
 1008 358 l 1,4,-1
 542 358 l 1,5,-1
 355 0 l 1,6,-1
 21 0 l 1,7,-1
 815 1452 l 1,8,-1
 1813 1452 l 1,9,-1
 1793 1244 l 1,10,-1
 1237 1244 l 1,11,-1
 1267 840 l 1,12,-1
 1773 840 l 1,13,-1
 1773 632 l 1,14,-1
 1287 632 l 1,15,-1
 1323 208 l 1,16,-1
 1851 208 l 1,17,-1
 1834 0 l 1,18,-1
 1037 0 l 1,3,-1
EndSplineSet
EndChar

StartChar: Eth
Encoding: 208 208 146
Width: 1497
Flags: W
HStem: 1 222<419 863.702> 634 194<-2 121 419 597> 1227 225<419 844.506>
VStem: 121 298<223 634 828 1227> 1126 297<481.526 976.46>
LayerCount: 2
Fore
SplineSet
419 828 m 1,0,-1
 597 828 l 1,1,-1
 597 634 l 1,2,-1
 419 634 l 1,3,-1
 419 223 l 1,4,-1
 620 223 l 2,5,6
 863 223 863 223 994.5 353 c 128,-1,7
 1126 483 1126 483 1126 722 c 0,8,9
 1126 1004 1126 1004 978 1118 c 0,10,11
 837.279 1227.01 837.279 1227.01 539.428 1227.01 c 0,12,-1
 534 1227 l 2,13,-1
 419 1227 l 1,14,-1
 419 828 l 1,0,-1
121 828 m 1,15,-1
 121 1452 l 1,16,-1
 512 1452 l 2,17,18
 1423 1452 1423 1452 1423 726 c 0,19,20
 1422 495 1422 495 1318 330 c 0,21,22
 1110 1 1110 1 602 1 c 2,23,-1
 121 1 l 1,24,-1
 121 634 l 1,25,-1
 -2 634 l 1,26,-1
 -2 828 l 1,27,-1
 121 828 l 1,15,-1
EndSplineSet
EndChar

StartChar: multiply
Encoding: 215 215 153
Width: 1501
Flags: W
LayerCount: 2
Fore
SplineSet
915 559 m 1,0,1
 1107 373 1107 373 1200 280 c 1,2,-1
 1060 136 l 1,3,-1
 760 412 l 1,4,-1
 459 136 l 1,5,-1
 321 279 l 1,6,-1
 605 559 l 1,7,-1
 321 836 l 1,8,-1
 460 982 l 1,9,-1
 760 705 l 1,10,-1
 1059 982 l 1,11,-1
 1200 835 l 1,12,-1
 915 559 l 1,0,1
EndSplineSet
EndChar

StartChar: Oslash
Encoding: 216 216 154
Width: 1595
Flags: W
HStem: -20 231<646.958 1000.75> 1243 235<598.691 959.219>
VStem: 72 302<459.213 986.726> 1226 297<461.579 987.597>
LayerCount: 2
Fore
SplineSet
1051 1166 m 1,0,-1
 645 235 l 1,1,2
 715 211 715 211 799 211 c 0,3,4
 1007 211 1007 211 1116.5 348.5 c 128,-1,5
 1226 486 1226 486 1226 722 c 0,6,7
 1226 1032 1226 1032 1051 1166 c 1,0,-1
799 1243 m 0,8,9
 592 1243 592 1243 483 1101 c 128,-1,10
 374 959 374 959 374 722 c 0,11,12
 374 407 374 407 556 280 c 1,13,-1
 961 1215 l 1,14,15
 888 1243 888 1243 799 1243 c 0,8,9
1148 1649 m 1,16,-1
 1244 1609 l 1,17,-1
 1152 1398 l 1,18,19
 1326 1310 1326 1310 1424.5 1137.5 c 128,-1,20
 1523 965 1523 965 1523 731 c 128,-1,21
 1523 497 1523 497 1427.5 326 c 128,-1,22
 1332 155 1332 155 1168.5 67.5 c 128,-1,23
 1005 -20 1005 -20 797 -20 c 0,24,25
 666 -20 666 -20 550 16 c 1,26,-1
 454 -204 l 1,27,-1
 365 -162 l 1,28,-1
 458 52 l 1,29,30
 278 138 278 138 175 312 c 128,-1,31
 72 486 72 486 72 722.5 c 128,-1,32
 72 959 72 959 167.5 1131 c 128,-1,33
 263 1303 263 1303 426 1390.5 c 128,-1,34
 589 1478 589 1478 797 1478 c 0,35,36
 936 1478 936 1478 1057 1438 c 1,37,-1
 1148 1649 l 1,16,-1
EndSplineSet
EndChar

StartChar: Thorn
Encoding: 222 222 160
Width: 1319
Flags: W
HStem: 321 213<420 917.585> 1012 186<419 920.381>
VStem: 182 237<15 321 534 1012 1198 1440> 1027 243<632.199 916.602>
LayerCount: 2
Fore
SplineSet
182 15 m 1,0,-1
 182 1440 l 1,1,-1
 419 1440 l 1,2,-1
 419 1198 l 1,3,-1
 688 1198 l 2,4,5
 939 1198 939 1198 1098 1098 c 0,6,7
 1270 990 1270 990 1270 759 c 0,8,9
 1270 618 1270 618 1192 517 c 0,10,11
 1041 321 1041 321 713 321 c 2,12,-1
 419 321 l 1,13,-1
 419 15 l 1,14,-1
 182 15 l 1,0,-1
419 1012 m 1,15,-1
 420 534 l 1,16,-1
 731 534 l 2,17,18
 866 534 866 534 946.5 596 c 128,-1,19
 1027 658 1027 658 1027 772 c 0,20,21
 1027 1012 1027 1012 708 1012 c 2,22,-1
 419 1012 l 1,15,-1
EndSplineSet
EndChar

StartChar: germandbls
Encoding: 223 223 161
Width: 1259
Flags: W
HStem: 0 189<542 872.163> 1274 204<439.328 715.724>
VStem: 101 285<0 1216.79> 764 271.005<1018.79 1231.27> 916 282<232.276 463.426>
LayerCount: 2
Fore
SplineSet
753 189 m 2,0,1
 831 189 831 189 873.5 231 c 128,-1,2
 916 273 916 273 916 328.5 c 128,-1,3
 916 384 916 384 900.5 417.5 c 128,-1,4
 885 451 885 451 861.5 474.5 c 128,-1,5
 838 498 838 498 800.5 523.5 c 128,-1,6
 763 549 763 549 731 566 c 0,7,8
 620 625 620 625 579 649 c 0,9,10
 492 699 492 699 492 768.5 c 128,-1,11
 492 838 492 838 564 893 c 0,12,13
 577 903 577 903 608.5 925.5 c 128,-1,14
 640 948 640 948 656 960 c 128,-1,15
 672 972 672 972 696.5 994.5 c 128,-1,16
 721 1017 721 1017 733 1035 c 0,17,18
 764 1081 764 1081 764 1140 c 128,-1,19
 764 1199 764 1199 713 1236.5 c 128,-1,20
 662 1274 662 1274 589 1274 c 128,-1,21
 516 1274 516 1274 477 1256 c 128,-1,22
 438 1238 438 1238 418 1200 c 0,23,24
 386 1136 386 1136 386 1003 c 2,25,-1
 386 0 l 1,26,-1
 101 0 l 1,27,-1
 101 1017 l 2,28,29
 101 1236 101 1236 225.5 1357 c 128,-1,30
 350 1478 350 1478 578 1478 c 0,31,32
 764 1478 764 1478 895 1394 c 0,33,34
 1034.47 1305.33 1034.47 1305.33 1035.01 1129.34 c 0,35,36
 1035.01 965.337 1035.01 965.337 838 834 c 0,37,38
 810 816 810 816 763 786 c 1,39,40
 824 758 824 758 898 716.5 c 128,-1,41
 972 675 972 675 991 661.5 c 128,-1,42
 1010 648 1010 648 1044 623 c 128,-1,43
 1078 598 1078 598 1095 578.5 c 128,-1,44
 1112 559 1112 559 1135.5 530 c 0,45,46
 1159 502 1159 502 1170 474 c 0,47,48
 1198 404 1198 404 1198 342 c 0,49,50
 1198 175 1198 175 1084 87.5 c 128,-1,51
 970 0 970 0 785 0 c 2,52,-1
 513 0 l 1,53,-1
 542 189 l 1,54,-1
 753 189 l 2,0,1
EndSplineSet
EndChar

StartChar: ae
Encoding: 230 230 168
Width: 1656
Flags: W
HStem: -21 183<354.776 604.015> -20 205<1062.83 1455.25> 833 190<186 254.637> 896 208<237.938 633.312 1046.28 1302.68>
VStem: 67 255.488<195.132 388.287> 672 276<300.708 454 632 791.057> 1347 255<672 851.938>
LayerCount: 2
Fore
SplineSet
1260 882 m 128,-1,1
 1230 896 1230 896 1195.5 896 c 128,-1,2
 1161 896 1161 896 1133.5 890.5 c 128,-1,3
 1106 885 1106 885 1073 868 c 128,-1,4
 1040 851 1040 851 1016 823 c 0,5,6
 958 757 958 757 948 632 c 1,7,-1
 1345 672 l 1,8,9
 1347 686 1347 686 1347 708.5 c 128,-1,10
 1347 731 1347 731 1344 752.5 c 128,-1,11
 1341 774 1341 774 1331.5 801 c 128,-1,12
 1322 828 1322 828 1306 848 c 128,-1,0
 1290 868 1290 868 1260 882 c 128,-1,1
716 290 m 1,13,14
 679 401 679 401 679 454 c 1,15,-1
 582 440 l 2,16,17
 455 421 455 421 436.5 415 c 128,-1,18
 418 409 418 409 395.5 401.5 c 128,-1,19
 373 394 373 394 363.5 385 c 128,-1,20
 354 376 354 376 342 364 c 0,21,22
 322.488 344.488 322.488 344.488 322.488 293.566 c 0,23,24
 322.488 238.59 322.488 238.59 356 200 c 0,25,26
 389 162 389 162 454 162 c 0,27,28
 584 162 584 162 716 290 c 1,13,14
105.5 150.5 m 128,-1,30
 67 225 67 225 67 285 c 128,-1,31
 67 345 67 345 72 373.5 c 128,-1,32
 77 402 77 402 89.5 425 c 128,-1,33
 102 448 102 448 115 466.5 c 128,-1,34
 128 485 128 485 153.5 500.5 c 128,-1,35
 179 516 179 516 199.5 527.5 c 128,-1,36
 220 539 220 539 258.5 549.5 c 128,-1,37
 297 560 297 560 324.5 566.5 c 128,-1,38
 352 573 352 573 402.5 580.5 c 128,-1,39
 453 588 453 588 487.5 592.5 c 128,-1,40
 522 597 522 597 583 605 c 1,41,-1
 672 614 l 1,42,-1
 672 710 l 2,43,44
 672 809 672 809 634.5 854.5 c 128,-1,45
 597 900 597 900 493 905 c 1,46,47
 381 905 381 905 222 846 c 0,48,49
 187 833 187 833 186 833 c 2,50,-1
 132 1023 l 1,51,52
 294 1096 294 1096 504 1103 c 1,53,54
 510 1103 510 1103 515 1103 c 0,55,56
 638 1103 638 1103 720 1061 c 0,57,58
 806 1017 806 1017 837 933 c 1,59,60
 895 1007 895 1007 988 1055.5 c 128,-1,61
 1081 1104 1081 1104 1180 1104 c 128,-1,62
 1279 1104 1279 1104 1348 1076.5 c 128,-1,63
 1417 1049 1417 1049 1464 1001.5 c 0,64,65
 1510 954 1510 954 1542 888 c 0,66,67
 1602 762 1602 762 1602 586 c 0,68,69
 1602 525 1602 525 1455 521 c 1,70,71
 1393 517 1393 517 947 482 c 1,72,73
 951 337 951 337 1022 261.5 c 128,-1,74
 1093 186 1093 186 1202 185 c 0,75,76
 1207 185 1207 185 1212 185 c 0,77,78
 1404 185 1404 185 1492 253 c 1,79,-1
 1571 80 l 1,80,81
 1500 30 1500 30 1417 5 c 128,-1,82
 1334 -20 1334 -20 1207 -20 c 0,83,84
 944 -20 944 -20 817 147 c 1,85,86
 660 -21 660 -21 406 -21 c 0,87,88
 302 -21 302 -21 223 27.5 c 128,-1,29
 144 76 144 76 105.5 150.5 c 128,-1,30
EndSplineSet
EndChar

StartChar: eth
Encoding: 240 240 178
Width: 1215
Flags: W
HStem: -19 218<459.219 799.506> 754 161<448.261 697.181> 1458 20G<201 534.241 834.509 890.514>
VStem: 80 258<316.848 643.999> 910 246<309.653 640.085>
LayerCount: 2
Fore
SplineSet
833.5 678.5 m 128,-1,1
 757 754 757 754 621.5 754 c 128,-1,2
 486 754 486 754 412 680.5 c 128,-1,3
 338 607 338 607 338 478 c 128,-1,4
 338 349 338 349 417 274 c 128,-1,5
 496 199 496 199 628 199 c 128,-1,6
 760 199 760 199 835 272 c 128,-1,7
 910 345 910 345 910 474 c 128,-1,0
 910 603 910 603 833.5 678.5 c 128,-1,1
567 915 m 0,8,9
 598 915 598 915 673 903 c 2,10,-1
 698 899 l 1,11,-1
 525 1094 l 1,12,-1
 289 997 l 1,13,-1
 223 1179 l 1,14,-1
 393 1250 l 1,15,-1
 201 1478 l 1,16,-1
 518 1478 l 1,17,-1
 626 1345 l 1,18,-1
 883 1451 l 1,19,-1
 951 1270 l 1,20,-1
 756 1189 l 1,21,22
 967 952 967 952 1060 802 c 0,23,24
 1154 651 1154 651 1156 433 c 0,25,26
 1156 222 1156 222 1012 102 c 0,27,28
 868 -19 868 -19 624.5 -19 c 128,-1,29
 381 -19 381 -19 230.5 112 c 128,-1,30
 80 243 80 243 80 455 c 128,-1,31
 80 667 80 667 212.5 791 c 128,-1,32
 345 915 345 915 567 915 c 0,8,9
EndSplineSet
EndChar

StartChar: divide
Encoding: 247 247 185
Width: 1511
Flags: W
HStem: 21 270<603 906> 460 199<198 1300> 818 270<603 906>
VStem: 603 303<21 291 818 1088>
LayerCount: 2
Fore
SplineSet
1300 460 m 1,0,-1
 198 460 l 1,1,-1
 198 659 l 1,2,-1
 1300 659 l 1,3,-1
 1300 460 l 1,0,-1
906 1088 m 1,4,-1
 906 818 l 1,5,-1
 603 818 l 1,6,-1
 603 1088 l 1,7,-1
 906 1088 l 1,4,-1
906 291 m 1,8,-1
 906 21 l 1,9,-1
 603 21 l 1,10,-1
 603 291 l 1,11,-1
 906 291 l 1,8,-1
EndSplineSet
EndChar

StartChar: oslash
Encoding: 248 248 186
Width: 1174
Flags: W
HStem: -20 191<482.416 726.438> 892 191<446.626 700.336>
VStem: 62 272<299.552 760.067> 840 272<301.555 763.605>
LayerCount: 2
Fore
SplineSet
481 194 m 1,0,1
 528 171 528 171 587 171 c 0,2,3
 708 171 708 171 774 264.5 c 128,-1,4
 840 358 840 358 840 542 c 128,-1,5
 840 726 840 726 759 819 c 1,6,-1
 481 194 l 1,0,1
424 235 m 1,7,-1
 702 865 l 1,8,9
 652 892 652 892 587 892 c 0,10,11
 466 892 466 892 400 799.5 c 128,-1,12
 334 707 334 707 334 517 c 128,-1,13
 334 327 334 327 424 235 c 1,7,-1
302 -208 m 1,14,-1
 243 -176 l 1,15,-1
 334 31 l 1,16,17
 201 94 201 94 131.5 224 c 128,-1,18
 62 354 62 354 62 531 c 0,19,20
 62 785 62 785 197.5 934 c 128,-1,21
 333 1083 333 1083 587 1083 c 0,22,23
 696 1083 696 1083 785 1054 c 1,24,-1
 872 1250 l 1,25,-1
 939 1224 l 1,26,-1
 851 1027 l 1,27,28
 979 963 979 963 1045.5 835 c 128,-1,29
 1112 707 1112 707 1112 537 c 128,-1,30
 1112 367 1112 367 1054 244.5 c 128,-1,31
 996 122 996 122 876 51 c 128,-1,32
 756 -20 756 -20 587 -20 c 0,33,34
 484 -20 484 -20 398 7 c 1,35,-1
 302 -208 l 1,14,-1
EndSplineSet
EndChar

StartChar: thorn
Encoding: 254 254 192
Width: 1298
Flags: W
HStem: -17.0127 214.013<527.335 854> 851 204<530.438 852.405>
VStem: 167 244<-422 103 321.405 725.912 940 1494> 967 250<318.982 728.002>
LayerCount: 2
Fore
SplineSet
411 103 m 1,0,-1
 411 -422 l 1,1,-1
 167 -422 l 1,2,-1
 167 1202 l 1,3,-1
 160 1494 l 1,4,-1
 411 1494 l 1,5,-1
 411 940 l 1,6,7
 481 1010 481 1010 615 1042 c 0,8,9
 667 1054 667 1054 721 1055 c 0,10,11
 724.026 1055.01 l 0,12,13
 968.785 1055.01 968.785 1055.01 1096 894 c 0,14,15
 1216 741 1216 741 1217 508 c 0,16,17
 1217 282 1217 282 1103 136 c 0,18,19
 982 -17 982 -17 741 -17 c 0,20,21
 739.063 -17.0127 739.063 -17.0127 737.131 -17.0127 c 0,22,23
 586.43 -17.0127 586.43 -17.0127 464 60 c 0,24,25
 436 78 436 78 411 103 c 1,0,-1
481.5 283.5 m 128,-1,27
 553 197 553 197 695.5 197 c 128,-1,28
 838 197 838 197 902.5 286 c 128,-1,29
 967 375 967 375 967 523.5 c 128,-1,30
 967 672 967 672 902.5 761.5 c 128,-1,31
 838 851 838 851 695.5 851 c 128,-1,32
 553 851 553 851 481.5 764 c 128,-1,33
 410 677 410 677 410 523.5 c 128,-1,26
 410 370 410 370 481.5 283.5 c 128,-1,27
EndSplineSet
EndChar

StartChar: dcroat
Encoding: 273 273 211
Width: 1237
Flags: W
HStem: -20 209<455.043 736.396> 0 21G<858.195 1136> 894 209<452.862 737.097> 1188 142<557 853 1136 1236> 1496 20G<853 1136>
VStem: 62 272<319.421 765.394> 853 283<0 149 300.415 767.237 942 1188 1330 1496>
LayerCount: 2
Fore
SplineSet
504 206 m 0,0,1
 548 189 548 189 600.5 189 c 128,-1,2
 653 189 653 189 696.5 205.5 c 128,-1,3
 740 222 740 222 778 260 c 0,4,5
 857.012 340 857.012 340 857.012 533.154 c 0,6,7
 856.311 808.876 856.311 808.876 694 876 c 0,8,9
 650 894 650 894 599.5 894 c 128,-1,10
 549 894 549 894 505.5 877.5 c 0,11,12
 462 862 462 862 422 824 c 0,13,14
 334 743 334 743 334 538 c 0,15,16
 334 271 334 271 504 206 c 0,0,1
1236 1330 m 1,17,-1
 1236 1188 l 1,18,-1
 1136 1188 l 1,19,-1
 1136 0 l 1,20,-1
 859 0 l 1,21,-1
 853 149 l 1,22,23
 763 -20 763 -20 549 -20 c 1,24,25
 324 -15 324 -15 193 143.5 c 128,-1,26
 62 302 62 302 62 547 c 0,27,28
 62 778 62 778 186 936 c 0,29,30
 246 1012 246 1012 338 1057.5 c 128,-1,31
 430 1103 430 1103 548.5 1103 c 128,-1,32
 667 1103 667 1103 742.5 1056.5 c 128,-1,33
 818 1010 818 1010 853 942 c 1,34,-1
 853 1188 l 1,35,-1
 557 1188 l 1,36,-1
 557 1330 l 1,37,-1
 853 1330 l 1,38,-1
 853 1496 l 1,39,-1
 1136 1516 l 1,40,-1
 1136 1330 l 1,41,-1
 1236 1330 l 1,17,-1
EndSplineSet
EndChar

StartChar: gcommaaccent
Encoding: 291 291 229
Width: 1295
Flags: W
HStem: -488 219<350 771.719> 0 189<469.722 740.627> 892 190<452.747 745.232> 1043 20G<860 1143>
VStem: 62 272<346.822 761.489> 860 283<-174.707 143 318.883 772.601 938 1063>
LayerCount: 2
Fore
SplineSet
769 1723 m 1,0,-1
 660 1200 l 1,1,-1
 430 1200 l 1,2,-1
 595 1723 l 1,3,-1
 769 1723 l 1,0,-1
411.5 292 m 128,-1,5
 489 189 489 189 605.5 189 c 128,-1,6
 722 189 722 189 797 289.5 c 128,-1,7
 872 390 872 390 872 547 c 2,8,-1
 872 559 l 1,9,10
 869 713 869 713 794 802 c 128,-1,11
 719 891 719 891 596 892 c 0,12,-1
 593 892 l 0,13,14
 472 892 472 892 404 801 c 0,15,16
 334 709 334 709 334 552 c 128,-1,4
 334 395 334 395 411.5 292 c 128,-1,5
350 -488 m 1,17,-1
 330 -269 l 1,18,-1
 442 -269 l 2,19,20
 637 -269 637 -269 672.5 -259.5 c 128,-1,21
 708 -250 708 -250 740 -239.5 c 128,-1,22
 772 -229 772 -229 786 -212 c 128,-1,23
 800 -195 800 -195 818 -171 c 128,-1,24
 836 -147 836 -147 843 -114 c 0,25,26
 860 -34 860 -34 860 57 c 2,27,-1
 860 143 l 1,28,29
 784 36 784 36 670 11 c 0,30,31
 620 0 620 0 538 0 c 128,-1,32
 456 0 456 0 366 37.5 c 128,-1,33
 276 75 276 75 208 143.5 c 128,-1,34
 140 212 140 212 101 317 c 128,-1,35
 62 422 62 422 62 539 c 128,-1,36
 62 656 62 656 89.5 745.5 c 128,-1,37
 117 835 117 835 163 896.5 c 0,38,39
 208 958 208 958 270 1000 c 0,40,41
 388 1082 388 1082 540 1082 c 0,42,43
 761 1081 761 1081 860 938 c 1,44,-1
 860 1063 l 1,45,-1
 1143 1063 l 1,46,-1
 1143 65 l 2,47,48
 1143 -84 1143 -84 1112 -184.5 c 0,49,50
 1082 -285 1082 -285 1006 -355 c 0,51,52
 863 -488 863 -488 488 -488 c 2,53,-1
 350 -488 l 1,17,-1
EndSplineSet
EndChar

StartChar: Hbar
Encoding: 294 294 232
Width: 1474
Flags: W
HStem: 0 21G<121 419 1055 1353> 645 210<419 1055> 1188 142<40 121 419 1055 1353 1434> 1425 20G<121 419 1055 1353>
VStem: 121 298<0 645 855 1188 1330 1445> 1055 298<0 645 855 1188 1330 1445>
LayerCount: 2
Fore
SplineSet
1055 1188 m 1,0,-1
 419 1188 l 1,1,-1
 419 855 l 1,2,-1
 1055 855 l 1,3,-1
 1055 1188 l 1,0,-1
1055 645 m 1,4,-1
 419 645 l 1,5,-1
 419 0 l 1,6,-1
 121 0 l 1,7,-1
 121 1188 l 1,8,-1
 40 1188 l 1,9,-1
 40 1330 l 1,10,-1
 121 1330 l 1,11,-1
 121 1445 l 1,12,-1
 419 1445 l 1,13,-1
 419 1330 l 1,14,-1
 1055 1330 l 1,15,-1
 1055 1445 l 1,16,-1
 1353 1445 l 1,17,-1
 1353 1330 l 1,18,-1
 1434 1330 l 1,19,-1
 1434 1188 l 1,20,-1
 1353 1188 l 1,21,-1
 1353 0 l 1,22,-1
 1055 0 l 1,23,-1
 1055 645 l 1,4,-1
EndSplineSet
EndChar

StartChar: hbar
Encoding: 295 295 233
Width: 1197
Flags: W
HStem: 0 21G<101 384 822 1105> 874 209<516.098 780.74> 1188 142<0 101 384 679> 1496 20G<101 384>
VStem: 101 283<0 772.604 946 1188 1330 1496> 822 283<0 830.093>
LayerCount: 2
Fore
SplineSet
384 0 m 1,0,-1
 101 0 l 1,1,-1
 101 1188 l 1,2,-1
 0 1188 l 1,3,-1
 0 1330 l 1,4,-1
 101 1330 l 1,5,-1
 101 1496 l 1,6,-1
 384 1516 l 1,7,-1
 384 1330 l 1,8,-1
 679 1330 l 1,9,-1
 679 1188 l 1,10,-1
 384 1188 l 1,11,-1
 384 946 l 1,12,13
 519 1083 519 1083 727 1083 c 0,14,15
 729.179 1083 l 0,16,17
 1014.27 1083 1014.27 1083 1084 822 c 0,18,19
 1104 746 1104 746 1105 647 c 2,20,-1
 1105 0 l 1,21,-1
 822 0 l 1,22,-1
 822 640 l 2,23,24
 822 765 822 765 789 819.5 c 128,-1,25
 756 874 756 874 666 874 c 128,-1,26
 576 874 576 874 501 829 c 128,-1,27
 426 784 426 784 384 715 c 1,28,-1
 384 0 l 1,0,-1
EndSplineSet
EndChar

StartChar: dotlessi
Encoding: 305 305 243
Width: 587
Flags: W
HStem: 0 21G<127 410> 1043 20G<127 410>
VStem: 127 283<0 1063>
LayerCount: 2
Fore
SplineSet
410 1063 m 1,0,-1
 410 0 l 1,1,-1
 127 0 l 1,2,-1
 127 1063 l 1,3,-1
 410 1063 l 1,0,-1
EndSplineSet
EndChar

StartChar: kgreenlandic
Encoding: 312 312 250
Width: 1105
Flags: W
HStem: 0 21G<101 384 806.928 1168> 1043 20G<101 384 764.822 1121>
VStem: 101 283<0 428 624 1063>
LayerCount: 2
Fore
SplineSet
101 1063 m 1,0,-1
 384 1063 l 1,1,-1
 384 624 l 1,2,-1
 783 1063 l 1,3,-1
 1121 1063 l 1,4,-1
 696 592 l 1,5,-1
 1168 0 l 1,6,-1
 822 0 l 1,7,-1
 458 483 l 1,8,-1
 384 428 l 1,9,-1
 384 0 l 1,10,-1
 101 0 l 1,11,-1
 101 1063 l 1,0,-1
EndSplineSet
EndChar

StartChar: Lslash
Encoding: 321 321 259
Width: 1005
Flags: W
HStem: 0 218<419 991> 1432 20G<121 419>
VStem: 121 298<218 583 958 1452>
LayerCount: 2
Fore
SplineSet
-26 491 m 1,0,-1
 -26 688 l 1,1,-1
 121 780 l 1,2,-1
 121 1452 l 1,3,-1
 419 1452 l 1,4,-1
 419 958 l 1,5,-1
 724 1140 l 1,6,-1
 724 944 l 1,7,-1
 419 761 l 1,8,-1
 419 218 l 1,9,-1
 1007 218 l 1,10,-1
 991 0 l 1,11,-1
 121 0 l 1,12,-1
 121 583 l 1,13,-1
 -26 491 l 1,0,-1
EndSplineSet
EndChar

StartChar: lslash
Encoding: 322 322 260
Width: 697
Flags: W
HStem: -13 215<449.499 675.664> 1496 20G<137 420>
VStem: 137 283<253.153 732 1088 1496>
LayerCount: 2
Fore
SplineSet
29 671 m 1,0,-1
 29 867 l 1,1,-1
 137 928 l 1,2,-1
 137 1496 l 1,3,-1
 420 1516 l 1,4,-1
 420 1088 l 1,5,-1
 568 1171 l 1,6,-1
 568 977 l 1,7,-1
 420 893 l 1,8,-1
 420 440 l 2,9,10
 420 288 420 288 444 252 c 0,11,12
 470 214 470 214 508 208 c 128,-1,13
 546 202 546 202 586 202 c 1,14,-1
 675 208 l 1,15,-1
 691 1 l 1,16,17
 587 -13 587 -13 510.5 -13 c 128,-1,18
 434 -13 434 -13 364.5 6.5 c 128,-1,19
 295 26 295 26 251 61.5 c 0,20,21
 208 97 208 97 182 157 c 0,22,23
 138 262 138 262 137 456 c 2,24,-1
 137 732 l 1,25,-1
 29 671 l 1,0,-1
EndSplineSet
EndChar

StartChar: Eng
Encoding: 330 330 267
Width: 1400
Flags: W
HStem: -303 214<755 962.699> 0 21G<121.986 420> 1251 228<622.534 920.315> 1432 20G<121 382.593>
VStem: 122 298<0 1107.93> 1001 297<-51.3224 1163.05>
LayerCount: 2
Fore
SplineSet
832 1479 m 0,0,1
 1298 1479 1298 1479 1298 940 c 2,2,-1
 1298 139 l 2,3,4
 1298 14 1298 14 1275 -67 c 128,-1,5
 1252 -148 1252 -148 1194 -202 c 0,6,7
 1088 -302 1088 -302 801 -303 c 2,8,-1
 755 -303 l 1,9,-1
 737 -89 l 1,10,-1
 819 -89 l 2,11,12
 930 -89 930 -89 965.5 -41.5 c 128,-1,13
 1001 6 1001 6 1001 130 c 2,14,-1
 1001 925 l 2,15,16
 1001 1098 1001 1098 952 1174.5 c 128,-1,17
 903 1251 903 1251 787 1251 c 0,18,19
 707 1251 707 1251 628 1219 c 0,20,21
 480 1159 480 1159 420 1045 c 1,22,-1
 420 0 l 1,23,-1
 122 0 l 1,24,-1
 121 1452 l 1,25,-1
 379 1452 l 1,26,-1
 409 1285 l 1,27,28
 468 1363 468 1363 591 1421 c 128,-1,29
 714 1479 714 1479 832 1479 c 0,0,1
EndSplineSet
EndChar

StartChar: eng
Encoding: 331 331 268
Width: 1197
Flags: W
HStem: -402 209<619 791.403> 0 21G<101 384> 894 209<536.139 772.036> 1043 20G<101 340.262>
VStem: 101 283<0 785.27> 823 282<-146.636 842.643>
LayerCount: 2
Fore
SplineSet
738 1103 m 0,0,1
 924 1099 924 1099 1014.5 976.5 c 128,-1,2
 1105 854 1105 854 1105 647 c 2,3,-1
 1105 81 l 2,4,5
 1105 -190 1105 -190 1031 -282 c 0,6,7
 964 -366 964 -366 840 -389 c 0,8,9
 772 -402 772 -402 679 -402 c 2,10,-1
 619 -402 l 1,11,-1
 589 -193 l 1,12,-1
 647 -193 l 2,13,14
 705 -193 705 -193 739 -184 c 0,15,16
 773 -174 773 -174 792 -148 c 0,17,18
 823 -105 823 -105 823 19 c 2,19,-1
 822 620 l 2,20,21
 822 790 822 790 780 841 c 0,22,23
 737 894 737 894 654 894 c 128,-1,24
 571 894 571 894 495.5 842.5 c 128,-1,25
 420 791 420 791 384 724 c 1,26,-1
 384 0 l 1,27,-1
 101 0 l 1,28,-1
 101 1063 l 1,29,-1
 337 1063 l 1,30,-1
 360 922 l 1,31,32
 429 1003 429 1003 527 1054 c 0,33,34
 621 1103 621 1103 729 1103 c 0,35,36
 734 1103 734 1103 738 1103 c 0,0,1
EndSplineSet
EndChar

StartChar: OE
Encoding: 338 338 275
Width: 2192
Flags: W
HStem: -18 225<602.725 1026.94> 5 221<1430 2137> 651 218<1430 2079> 1228 222<1430 2107> 1253 225<607.511 1019.01>
VStem: 72 286<483.004 965.508> 1147 283<296.701 651 869 1156.89>
LayerCount: 2
Fore
SplineSet
424.5 1381.5 m 128,-1,1
 589 1478 589 1478 787.5 1478 c 128,-1,2
 986 1478 986 1478 1147 1374 c 1,3,-1
 1147 1450 l 1,4,-1
 2125 1450 l 1,5,-1
 2107 1228 l 1,6,-1
 1430 1228 l 1,7,-1
 1430 869 l 1,8,-1
 2079 869 l 1,9,-1
 2079 651 l 1,10,-1
 1430 651 l 1,11,-1
 1430 226 l 1,12,-1
 2155 226 l 1,13,-1
 2137 5 l 1,14,-1
 1147 5 l 1,15,-1
 1147 86 l 1,16,17
 989 -18 989 -18 815 -18 c 128,-1,18
 641 -18 641 -18 507.5 38.5 c 128,-1,19
 374 95 374 95 278.5 193 c 128,-1,20
 183 291 183 291 127.5 430 c 128,-1,21
 72 569 72 569 72 755 c 128,-1,22
 72 941 72 941 166 1113 c 128,-1,0
 260 1285 260 1285 424.5 1381.5 c 128,-1,1
1147 1118 m 1,23,24
 1021 1253 1021 1253 792 1253 c 0,25,26
 688 1253 688 1253 603.5 1207.5 c 128,-1,27
 519 1162 519 1162 466.5 1086.5 c 128,-1,28
 414 1011 414 1011 386 917 c 128,-1,29
 358 823 358 823 358 722 c 128,-1,30
 358 621 358 621 386 529.5 c 128,-1,31
 414 438 414 438 467 365.5 c 128,-1,32
 520 293 520 293 604 250 c 128,-1,33
 688 207 688 207 792 207 c 0,34,35
 1021 207 1021 207 1147 333 c 1,36,-1
 1147 1118 l 1,23,24
EndSplineSet
EndChar

StartChar: oe
Encoding: 339 339 276
Width: 1838
Flags: W
HStem: -20 191<455.089 720.19 1216.58 1593.82> 475 156<1099 1527> 892 191<450.095 721.88 1191.22 1455.14>
VStem: 62 272<309.432 760.365> 840 256<311.462 475 631 762.525> 1527 257<631 812.747>
LayerCount: 2
Fore
SplineSet
1527 640 m 2,0,1
 1527 892 1527 892 1325 892 c 0,2,3
 1247 892 1247 892 1184 842 c 0,4,5
 1109 782 1109 782 1099 631 c 1,6,-1
 1527 631 l 1,7,-1
 1527 640 l 2,0,1
404.5 267 m 128,-1,9
 475 171 475 171 586.5 171 c 128,-1,10
 698 171 698 171 769 266 c 128,-1,11
 840 361 840 361 840 537.5 c 128,-1,12
 840 714 840 714 770 803 c 128,-1,13
 700 892 700 892 586 892 c 128,-1,14
 472 892 472 892 403 801 c 128,-1,15
 334 710 334 710 334 536.5 c 128,-1,8
 334 363 334 363 404.5 267 c 128,-1,9
1753 105 m 1,16,17
 1673 44 1673 44 1588 12 c 128,-1,18
 1503 -20 1503 -20 1379 -20 c 0,19,20
 1078 -20 1078 -20 967 165 c 1,21,22
 915 81 915 81 816 30.5 c 128,-1,23
 717 -20 717 -20 586 -20 c 128,-1,24
 455 -20 455 -20 353 24 c 0,25,26
 250 68 250 68 188 146 c 0,27,28
 62 303 62 303 62 535 c 0,29,30
 62 777 62 777 188 927 c 0,31,32
 320 1083 320 1083 582.5 1083 c 128,-1,33
 845 1083 845 1083 969 905 c 1,34,35
 1072 1083 1072 1083 1344 1083 c 0,36,37
 1676 1083 1676 1083 1760 765 c 0,38,39
 1784 674 1784 674 1784 563 c 1,40,-1
 1782 475 l 1,41,-1
 1096 475 l 1,42,43
 1101 328 1101 328 1174.5 249.5 c 128,-1,44
 1248 171 1248 171 1399.5 171 c 128,-1,45
 1551 171 1551 171 1674 265 c 1,46,-1
 1753 105 l 1,16,17
EndSplineSet
EndChar

StartChar: uni018F
Encoding: 399 399 320
Width: 1431
Flags: W
HStem: -20 231<487.136 818.121> 583 208<338 1007> 1243 235<318.444 786.983>
VStem: 1007 315<442.506 583 791 1016.9>
LayerCount: 2
Fore
SplineSet
1007 583 m 1,0,-1
 338 583 l 1,1,2
 351 405 351 405 429.5 308 c 128,-1,3
 508 211 508 211 651 211 c 128,-1,4
 794 211 794 211 886.5 311.5 c 128,-1,5
 979 412 979 412 1007 583 c 1,0,-1
633 -20 m 0,6,7
 72 -20 72 -20 72 791 c 1,8,-1
 1018 791 l 1,9,10
 1002 1013 1002 1013 886 1128 c 128,-1,11
 770 1243 770 1243 570.5 1243 c 128,-1,12
 371 1243 371 1243 197 1142 c 1,13,-1
 109 1337 l 1,14,15
 285 1478 285 1478 590 1478 c 0,16,17
 761 1478 761 1478 900.5 1421 c 128,-1,18
 1040 1364 1040 1364 1132 1264 c 0,19,20
 1322 1055 1322 1055 1322 733 c 0,21,22
 1322 562 1322 562 1270.5 420 c 128,-1,23
 1219 278 1219 278 1128 182 c 128,-1,24
 1037 86 1037 86 909.5 33 c 128,-1,25
 782 -20 782 -20 633 -20 c 0,6,7
EndSplineSet
EndChar

StartChar: florin
Encoding: 402 402 321
Width: 1048
Flags: W
HStem: -329 199<49.1016 235.191> -311 195<51.968 153.669> 759 193<295 433 704 880> 1236 205<770.28 1002.06>
LayerCount: 2
Fore
SplineSet
486 1071 m 2,0,1
 539 1441 539 1441 846 1441 c 0,2,3
 912 1441 912 1441 990 1421 c 2,4,-1
 1013 1415 l 1,5,-1
 1000 1200 l 1,6,-1
 961 1216 l 2,7,8
 911 1236 911 1236 857 1236 c 128,-1,9
 803 1236 803 1236 775 1206.5 c 128,-1,10
 747 1177 747 1177 733 1106 c 2,11,-1
 704 952 l 1,12,-1
 894 952 l 1,13,-1
 880 759 l 1,14,-1
 669 759 l 1,15,-1
 544 127 l 2,16,17
 518 -7 518 -7 499 -57.5 c 128,-1,18
 480 -108 480 -108 462.5 -144.5 c 128,-1,19
 445 -181 445 -181 426 -205 c 128,-1,20
 407 -229 407 -229 380 -254.5 c 128,-1,21
 353 -280 353 -280 322 -295 c 0,22,23
 252 -329 252 -329 188.5 -329 c 128,-1,24
 125 -329 125 -329 58 -311 c 1,25,-1
 34 -305 l 1,26,-1
 52 -102 l 1,27,-1
 89 -116 l 2,28,29
 128 -130 128 -130 154.5 -130 c 128,-1,30
 181 -130 181 -130 203 -117 c 0,31,32
 224 -104 224 -104 240 -78 c 0,33,34
 280 -9 280 -9 320 182.5 c 128,-1,35
 360 374 360 374 390 534 c 128,-1,36
 420 694 420 694 433 761 c 1,37,-1
 281 761 l 1,38,-1
 295 952 l 1,39,-1
 469 952 l 1,40,-1
 486 1071 l 2,0,1
EndSplineSet
EndChar

StartChar: uni0237
Encoding: 567 567 421
Width: 548
Flags: W
HStem: -318 213<-31 141.27>
VStem: 171.032 258.968<-58.6811 1051>
LayerCount: 2
Fore
SplineSet
430 1051 m 1,0,-1
 430 165 l 2,1,2
 430 37 430 37 412.5 -47.5 c 0,3,4
 394 -132 394 -132 348 -196 c 0,5,6
 259 -318 259 -318 5 -318 c 2,7,-1
 -31 -318 l 1,8,-1
 -31 -105 l 1,9,-1
 -2 -105 l 2,10,11
 56 -105 56 -105 89.5 -96 c 0,12,13
 124 -87 124 -87 142 -60 c 0,14,15
 171.032 -18.3871 171.032 -18.3871 171.032 99.0843 c 0,16,17
 171.032 103 171.032 103 171 107 c 2,18,-1
 171 1051 l 1,19,-1
 430 1051 l 1,0,-1
EndSplineSet
EndChar

StartChar: uni0259
Encoding: 601 601 422
Width: 1109
Flags: W
HStem: -20 208<399.446 666.343> 456 152<319 773> 899 204<254.36 652.942>
VStem: 62 257<274.212 456> 773 282<297.8 456 608 779.573>
LayerCount: 2
Fore
SplineSet
773 456 m 1,0,-1
 319 456 l 1,1,2
 319 327 319 327 374 257.5 c 128,-1,3
 429 188 429 188 531 188 c 0,4,5
 611 188 611 188 680 242 c 0,6,7
 763 306 763 306 773 456 c 1,0,-1
776 608 m 1,8,9
 768 899 768 899 457 899 c 0,10,11
 297 899 297 899 172 805 c 1,12,-1
 93 978 l 1,13,14
 257 1103 257 1103 487 1103 c 0,15,16
 759 1103 759 1103 907 953 c 128,-1,17
 1055 803 1055 803 1055 542 c 0,18,19
 1055 384 1055 384 994.5 257.5 c 128,-1,20
 934 131 934 131 814.5 55.5 c 128,-1,21
 695 -20 695 -20 556 -20 c 128,-1,22
 417 -20 417 -20 325 24 c 0,23,24
 232 68 232 68 176 144 c 0,25,26
 62 297 62 297 62 520 c 1,27,-1
 64 608 l 1,28,-1
 776 608 l 1,8,9
EndSplineSet
EndChar

StartChar: afii57929
Encoding: 700 700 423
Width: 345
Flags: W
HStem: 937 516<98 248>
VStem: 98 150<937 1136.93>
LayerCount: 2
Fore
SplineSet
248 937 m 1,0,-1
 98 937 l 1,1,-1
 61 1453 l 1,2,-1
 278 1453 l 1,3,-1
 248 937 l 1,0,-1
EndSplineSet
EndChar

StartChar: circumflex
Encoding: 710 710 424
Width: 743
Flags: W
HStem: 1133 382
LayerCount: 2
Fore
SplineSet
25 1133 m 1,0,-1
 288 1515 l 1,1,-1
 488 1515 l 1,2,-1
 751 1133 l 1,3,-1
 557 1133 l 1,4,-1
 384 1334 l 1,5,-1
 214 1133 l 1,6,-1
 25 1133 l 1,0,-1
EndSplineSet
EndChar

StartChar: caron
Encoding: 711 711 425
Width: 739
Flags: W
HStem: 1174 341
LayerCount: 2
Fore
SplineSet
16 1515 m 1,0,-1
 230 1515 l 1,1,-1
 385 1357 l 1,2,-1
 545 1515 l 1,3,-1
 765 1515 l 1,4,-1
 487 1174 l 1,5,-1
 294 1174 l 1,6,-1
 16 1515 l 1,0,-1
EndSplineSet
EndChar

StartChar: breve
Encoding: 728 728 426
Width: 688
Flags: W
HStem: 1206 168<239.142 436.858>
VStem: 38 600
LayerCount: 2
Fore
SplineSet
338 1206 m 128,-1,1
 197 1206 197 1206 117.5 1268 c 128,-1,2
 38 1330 38 1330 38 1455 c 1,3,-1
 222 1455 l 1,4,5
 222 1411 222 1411 247.5 1392.5 c 128,-1,6
 273 1374 273 1374 338 1374 c 128,-1,7
 403 1374 403 1374 428.5 1392.5 c 128,-1,8
 454 1411 454 1411 454 1455 c 1,9,-1
 638 1455 l 1,10,11
 638 1330 638 1330 558.5 1268 c 128,-1,0
 479 1206 479 1206 338 1206 c 128,-1,1
EndSplineSet
EndChar

StartChar: dotaccent
Encoding: 729 729 427
Width: 582
Flags: W
HStem: 1232 223<169 381>
VStem: 169 212<1232 1455>
LayerCount: 2
Fore
SplineSet
169 1455 m 1,0,-1
 381 1455 l 1,1,-1
 381 1232 l 1,2,-1
 169 1232 l 1,3,-1
 169 1455 l 1,0,-1
EndSplineSet
EndChar

StartChar: ring
Encoding: 730 730 428
Width: 664
Flags: W
HStem: 1125 99<244.183 408.369> 1446 95<243.958 407.442>
VStem: 101 119<1249.97 1419.26> 433 119<1250.13 1419.67>
LayerCount: 2
Fore
SplineSet
248 1257 m 128,-1,1
 276 1224 276 1224 326.5 1224 c 128,-1,2
 377 1224 377 1224 405 1256.5 c 128,-1,3
 433 1289 433 1289 433 1334.5 c 128,-1,4
 433 1380 433 1380 404.5 1413 c 128,-1,5
 376 1446 376 1446 326 1446 c 128,-1,6
 276 1446 276 1446 248 1413 c 128,-1,7
 220 1380 220 1380 220 1335 c 128,-1,0
 220 1290 220 1290 248 1257 c 128,-1,1
160 1480 m 128,-1,9
 219 1541 219 1541 326.5 1541 c 128,-1,10
 434 1541 434 1541 493 1480.5 c 128,-1,11
 552 1420 552 1420 552 1335.5 c 128,-1,12
 552 1251 552 1251 492 1188 c 128,-1,13
 432 1125 432 1125 326 1125 c 128,-1,14
 220 1125 220 1125 160.5 1187.5 c 128,-1,15
 101 1250 101 1250 101 1334.5 c 128,-1,8
 101 1419 101 1419 160 1480 c 128,-1,9
EndSplineSet
EndChar

StartChar: ogonek
Encoding: 731 731 429
Width: 565
Flags: W
HStem: -383 148<314.414 515.305>
VStem: 109 191<-227.214 -103.723>
LayerCount: 2
Fore
SplineSet
109 -226 m 0,0,1
 109 -90 109 -90 299 8 c 1,2,-1
 402 8 l 1,3,4
 300 -62 300 -62 300 -160 c 0,5,6
 300 -188 300 -188 320.5 -211.5 c 0,7,8
 342 -235 342 -235 374 -235 c 0,9,10
 431 -235 431 -235 496 -210 c 1,11,-1
 517 -201 l 1,12,-1
 517 -344 l 1,13,14
 419 -383 419 -383 322.5 -383 c 128,-1,15
 226 -383 226 -383 167.5 -343.5 c 128,-1,16
 109 -304 109 -304 109 -226 c 0,0,1
EndSplineSet
EndChar

StartChar: tilde
Encoding: 732 732 430
Width: 741
Flags: W
HStem: 1209 165<367.568 585.877> 1297 157.5<183.206 359.066>
VStem: 22 156<1209 1296.13> 559 159<1375.67 1455>
LayerCount: 2
Fore
SplineSet
226 1297 m 0,0,1
 178 1297 178 1297 178 1209 c 1,2,-1
 22 1209 l 1,3,4
 22 1303 22 1303 31.5 1332.5 c 128,-1,5
 41 1362 41 1362 53.5 1385.5 c 0,6,7
 66 1408 66 1408 84 1422 c 0,8,9
 126 1454 126 1454 187 1454.5 c 0,10,-1
 189.909 1454.51 l 0,11,12
 249.631 1454.51 249.631 1454.51 316.5 1434.5 c 0,13,14
 385 1414 385 1414 438.5 1394 c 128,-1,15
 492 1374 492 1374 513 1374 c 0,16,17
 559 1374 559 1374 559 1455 c 1,18,-1
 718 1455 l 1,19,20
 718 1364 718 1364 708.5 1334.5 c 128,-1,21
 699 1305 699 1305 686.5 1281 c 128,-1,22
 674 1257 674 1257 657 1243 c 0,23,24
 616 1209 616 1209 558.5 1209 c 128,-1,25
 501 1209 501 1209 427 1231 c 128,-1,26
 353 1253 353 1253 295 1275 c 128,-1,27
 237 1297 237 1297 226 1297 c 0,0,1
EndSplineSet
EndChar

StartChar: hungarumlaut
Encoding: 733 733 431
Width: 1010
Flags: W
HStem: 1120 370
LayerCount: 2
Fore
SplineSet
648 1490 m 1,0,-1
 293 1120 l 1,1,-1
 152 1120 l 1,2,-1
 406 1490 l 1,3,-1
 648 1490 l 1,0,-1
974 1490 m 1,4,-1
 619 1120 l 1,5,-1
 478 1120 l 1,6,-1
 732 1490 l 1,7,-1
 974 1490 l 1,4,-1
EndSplineSet
EndChar

StartChar: uni0307
Encoding: 775 775 432
Width: 549
Flags: W
HStem: 1196 223<169 381>
VStem: 169 212<1196 1419>
LayerCount: 2
Fore
SplineSet
169 1419 m 1,0,-1
 381 1419 l 1,1,-1
 381 1196 l 1,2,-1
 169 1196 l 1,3,-1
 169 1419 l 1,0,-1
EndSplineSet
EndChar

StartChar: uni030F
Encoding: 783 783 433
Width: 994
Flags: W
HStem: 1176 340
LayerCount: 2
Fore
SplineSet
291 1176 m 1,0,-1
 -34 1516 l 1,1,-1
 272 1516 l 1,2,-1
 479 1176 l 1,3,-1
 291 1176 l 1,0,-1
675 1176 m 1,4,-1
 372 1516 l 1,5,-1
 655 1516 l 1,6,-1
 885 1176 l 1,7,-1
 675 1176 l 1,4,-1
EndSplineSet
EndChar

StartChar: uni0311
Encoding: 785 785 434
Width: 688
Flags: W
HStem: 1287 168<223.854 452.146>
VStem: 38 184<1206 1277.84> 454 184<1206 1277.57>
LayerCount: 2
Fore
SplineSet
454 1206 m 1,0,-1
 454 1233 l 2,1,2
 454 1257 454 1257 424 1272 c 128,-1,3
 394 1287 394 1287 338 1287 c 128,-1,4
 282 1287 282 1287 252 1272 c 128,-1,5
 222 1257 222 1257 222 1233 c 2,6,-1
 222 1206 l 1,7,-1
 38 1206 l 1,8,-1
 38 1235 l 2,9,10
 38 1338 38 1338 124.5 1396.5 c 128,-1,11
 211 1455 211 1455 338 1455 c 128,-1,12
 465 1455 465 1455 551.5 1396 c 128,-1,13
 638 1337 638 1337 638 1235 c 2,14,-1
 638 1206 l 1,15,-1
 454 1206 l 1,0,-1
EndSplineSet
EndChar

StartChar: uni0326
Encoding: 806 806 435
Width: 563
Flags: W
HStem: -675 523<182 251>
VStem: 67 359
LayerCount: 2
Fore
SplineSet
67 -675 m 1,0,-1
 182 -152 l 1,1,-1
 426 -152 l 1,2,-1
 251 -675 l 1,3,-1
 67 -675 l 1,0,-1
EndSplineSet
EndChar

StartChar: Gamma
Encoding: 915 915 437
Width: 1582
Flags: W
HStem: 0 21G<121 419> 1227 218<419 1039>
VStem: 121 298<0 1227>
LayerCount: 2
Fore
SplineSet
121 0 m 1,0,-1
 121 1445 l 1,1,-1
 1062 1445 l 1,2,-1
 1039 1227 l 1,3,-1
 419 1227 l 1,4,-1
 419 0 l 1,5,-1
 121 0 l 1,0,-1
EndSplineSet
EndChar

StartChar: Omega
Encoding: 937 937 450
Width: 1586
Flags: W
HStem: 16 188<114 374 1205 1455> 1245 199<586.677 1007.76>
VStem: 121 231<507.801 994.042> 1235.01 228.995<516.641 1002.84>
LayerCount: 2
Fore
SplineSet
936 16 m 1,0,-1
 929 173 l 1,1,-1
 948 184 l 1,2,3
 1234.42 396.566 1234.42 396.566 1235.01 756.125 c 0,4,5
 1235.01 1055.65 1235.01 1055.65 1044 1180 c 0,6,7
 944 1245 944 1245 800 1245 c 0,8,9
 583 1245 583 1245 467.5 1111 c 128,-1,10
 352 977 352 977 352 757 c 0,11,12
 352 384 352 384 660 174 c 1,13,-1
 664 16 l 1,14,-1
 114 16 l 1,15,-1
 99 204 l 1,16,-1
 374 203 l 1,17,-1
 356 220 l 2,18,19
 121 441 121 441 121 779 c 0,20,21
 121 1078 121 1078 308.5 1261 c 128,-1,22
 496 1444 496 1444 805 1444 c 0,23,24
 955 1444 955 1444 1079 1394 c 128,-1,25
 1203 1344 1203 1344 1287 1256 c 0,26,27
 1464 1070 1464 1070 1464 763 c 128,-1,28
 1464 456 1464 456 1223 220 c 1,29,-1
 1205 203 l 1,30,-1
 1468 204 l 1,31,-1
 1455 16 l 1,32,-1
 936 16 l 1,0,-1
EndSplineSet
EndChar

StartChar: pi
Encoding: 960 960 455
Width: 1383
Flags: W
HStem: -7 212<1116.84 1261.82> 878 190<101.829 310 554 882 1108 1302>
VStem: 310 244<418.506 878> 879 229<229.76 875>
LayerCount: 2
Fore
SplineSet
310 885 m 1,0,1
 175 877 175 877 51 809 c 1,2,-1
 23 991 l 1,3,4
 91 1040 91 1040 172.5 1054 c 128,-1,5
 254 1068 254 1068 402 1068 c 2,6,-1
 1302 1068 l 1,7,-1
 1302 875 l 1,8,-1
 1108 875 l 1,9,-1
 1108 318 l 2,10,11
 1108 253 1108 253 1120 229 c 128,-1,12
 1132 205 1132 205 1166 205 c 128,-1,13
 1200 205 1200 205 1280 230 c 1,14,-1
 1263 7 l 1,15,16
 1186 -7 1186 -7 1119.5 -7 c 128,-1,17
 1053 -7 1053 -7 1002 17 c 0,18,19
 952 41 952 41 926 86 c 0,20,21
 880 168 880 168 879 303 c 2,22,-1
 882 878 l 1,23,-1
 554 878 l 1,24,25
 527 256 527 256 386 1 c 1,26,-1
 155 1 l 1,27,28
 292 276 292 276 310 864 c 1,29,-1
 310 885 l 1,0,1
EndSplineSet
EndChar

StartChar: afii10051
Encoding: 1026 1026 460
Width: 1896
Flags: W
HStem: -203 218<1217 1371> 662 218<908 1326.76> 1222 218<188 620 892 1289>
VStem: 620 273<880 1221> 644 264<16 662> 1395 241<38.5312 595.847>
LayerCount: 2
Fore
SplineSet
1636 442 m 1,0,-1
 1636 234 l 2,1,2
 1636 -66 1636 -66 1478 -156 c 0,3,4
 1415 -192 1415 -192 1345 -197.5 c 128,-1,5
 1275 -203 1275 -203 1222 -203 c 2,6,-1
 1217 -203 l 1,7,-1
 1217 15 l 1,8,-1
 1222 15 l 2,9,10
 1336 15 1336 15 1364 50 c 0,11,12
 1388 80 1388 80 1391.5 130.5 c 128,-1,13
 1395 181 1395 181 1395 232 c 2,14,-1
 1395 444 l 2,15,16
 1395 541 1395 541 1369 575.5 c 128,-1,17
 1343 610 1343 610 1320 625 c 128,-1,18
 1297 640 1297 640 1260 648 c 0,19,20
 1195 662 1195 662 1089 662 c 2,21,-1
 908 662 l 1,22,-1
 908 16 l 1,23,-1
 644 16 l 1,24,-1
 620 1222 l 1,25,-1
 188 1222 l 1,26,-1
 188 1440 l 1,27,-1
 1289 1440 l 1,28,-1
 1289 1221 l 1,29,-1
 892 1221 l 1,30,-1
 893 880 l 1,31,-1
 1031 880 l 2,32,33
 1272 880 1272 880 1388 833 c 0,34,35
 1500 787 1500 787 1556 703 c 0,36,37
 1624 603 1624 603 1636 442 c 1,0,-1
EndSplineSet
EndChar

StartChar: afii10053
Encoding: 1028 1028 462
Width: 1412
Flags: W
HStem: -18 225<645.348 1057.98> 641 218<400 1062> 1253 225<653.672 1051>
VStem: 106 956<642.04 855.734>
LayerCount: 2
Fore
SplineSet
394 641 m 1,0,1
 422 433 422 433 545.5 320 c 128,-1,2
 669 207 669 207 844 207 c 128,-1,3
 1019 207 1019 207 1206 329 c 1,4,-1
 1293 115 l 1,5,6
 1049 -18 1049 -18 819 -18 c 0,7,8
 676 -18 676 -18 546 36 c 128,-1,9
 416 90 416 90 318.5 186.5 c 128,-1,10
 221 283 221 283 163.5 425 c 128,-1,11
 106 567 106 567 106 734 c 128,-1,12
 106 901 106 901 165.5 1043 c 128,-1,13
 225 1185 225 1185 325 1279 c 128,-1,14
 425 1373 425 1373 555 1425.5 c 128,-1,15
 685 1478 685 1478 826 1478 c 0,16,17
 1067 1478 1067 1478 1295 1338 c 1,18,-1
 1207 1122 l 1,19,20
 1021 1253 1021 1253 851 1253 c 128,-1,21
 681 1253 681 1253 560 1146 c 128,-1,22
 439 1039 439 1039 400 859 c 1,23,-1
 1062 859 l 1,24,-1
 1062 641 l 1,25,-1
 394 641 l 1,0,1
EndSplineSet
EndChar

StartChar: afii10058
Encoding: 1033 1033 467
Width: 1861
Flags: W
HStem: -18 203<65 283.23> 6 227<1161 1552> 663 218<1161 1549.97> 1223 217<591 869>
VStem: 323 268<600.18 1223> 325 284<222.492 1063.82> 869 266<881 1223> 911 250<233 421.403> 1659 242<324.659 572.144>
LayerCount: 2
Fore
SplineSet
1135 1440 m 1,0,-1
 1135 881 l 1,1,-1
 1283 881 l 2,2,3
 1288.16 881.01 l 0,4,5
 1545.69 881.01 1545.69 881.01 1715 782 c 0,6,7
 1802 732 1802 732 1851.5 644.5 c 128,-1,8
 1901 557 1901 557 1901 442.5 c 128,-1,9
 1901 328 1901 328 1854.5 242.5 c 128,-1,10
 1808 157 1808 157 1724 106 c 0,11,12
 1558 6 1558 6 1287 6 c 2,13,-1
 911 6 l 1,14,-1
 869 1223 l 1,15,-1
 591 1223 l 1,16,-1
 609 441 l 1,17,18
 609 316 609 316 586.5 232.5 c 128,-1,19
 564 149 564 149 508 91 c 0,20,21
 404 -18 404 -18 127 -18 c 2,22,-1
 65 -18 l 1,23,-1
 65 185 l 1,24,-1
 146 187 l 2,25,26
 256 190 256 190 290.5 232.5 c 128,-1,27
 325 275 325 275 325 395 c 2,28,-1
 323 1440 l 1,29,-1
 1135 1440 l 1,0,-1
1308 663 m 2,30,-1
 1161 663 l 1,31,-1
 1161 233 l 1,32,-1
 1308 233 l 2,33,34
 1659 233 1659 233 1659 450 c 0,35,36
 1659 558 1659 558 1566 610.5 c 128,-1,37
 1473 663 1473 663 1308 663 c 2,30,-1
EndSplineSet
EndChar

StartChar: afii10059
Encoding: 1034 1034 468
Width: 1790
Flags: W
HStem: 15 217<1160 1496.1> 663 218<574 909 1160 1491.71>
VStem: 323 251<16 663 881 1440> 909 251<232 662 881 1440> 1585 242<312.682 582.534>
LayerCount: 2
Fore
SplineSet
1303 231 m 2,0,1
 1436 231 1436 231 1510.5 284.5 c 128,-1,2
 1585 338 1585 338 1585 448 c 0,3,4
 1585 662 1585 662 1303 662 c 2,5,-1
 1160 662 l 1,6,-1
 1160 232 l 1,7,-1
 1303 231 l 2,0,1
1286 15 m 2,8,-1
 909 15 l 1,9,-1
 909 663 l 1,10,-1
 574 663 l 1,11,-1
 574 16 l 1,12,-1
 323 16 l 1,13,-1
 323 1440 l 1,14,-1
 574 1440 l 1,15,-1
 574 881 l 1,16,-1
 909 881 l 1,17,-1
 909 1440 l 1,18,-1
 1160 1440 l 1,19,-1
 1160 880 l 1,20,-1
 1299 880 l 2,21,22
 1827 880 1827 880 1827 449 c 2,23,-1
 1827 446 l 2,24,25
 1828 187 1828 187 1596 77 c 0,26,27
 1466 15 1466 15 1286 15 c 2,8,-1
EndSplineSet
EndChar

StartChar: afii10060
Encoding: 1035 1035 469
Width: 1492
Flags: W
HStem: 0 21G<395 693 1120 1418> 662 218<693 1065.29> 1227 218<-27 395 693 1117>
VStem: 395 298<0 662 880 1227> 1120 298<0 608.383>
LayerCount: 2
Fore
SplineSet
-27 1227 m 1,0,-1
 -27 1445 l 1,1,-1
 1117 1445 l 1,2,-1
 1117 1227 l 1,3,-1
 693 1227 l 1,4,-1
 693 880 l 1,5,-1
 902 880 l 2,6,7
 1120 880 1120 880 1222 834 c 0,8,9
 1320 789 1320 789 1364 706 c 0,10,11
 1418 608 1418 608 1418 448 c 2,12,-1
 1418 0 l 1,13,-1
 1120 0 l 1,14,-1
 1120 447 l 2,15,16
 1120 584 1120 584 1058 626 c 0,17,18
 1003 662 1003 662 871 662 c 2,19,-1
 693 662 l 1,20,-1
 693 0 l 1,21,-1
 395 0 l 1,22,-1
 395 1227 l 1,23,-1
 -27 1227 l 1,0,-1
EndSplineSet
EndChar

StartChar: afii10145
Encoding: 1039 1039 473
Width: 1474
Flags: W
HStem: 0 210<419 627 853 1055> 1425 20G<121 419 1055 1353>
VStem: 121 298<210 1445> 627 226<-327 0> 1055 298<210 1445>
LayerCount: 2
Fore
SplineSet
853 0 m 1,0,-1
 853 -327 l 1,1,-1
 627 -327 l 1,2,-1
 627 0 l 1,3,-1
 121 0 l 1,4,-1
 121 1445 l 1,5,-1
 419 1445 l 1,6,-1
 419 210 l 1,7,-1
 1055 210 l 1,8,-1
 1055 1445 l 1,9,-1
 1353 1445 l 1,10,-1
 1353 0 l 1,11,-1
 853 0 l 1,0,-1
EndSplineSet
EndChar

StartChar: afii10018
Encoding: 1041 1041 475
Width: 1321
Flags: W
HStem: 0 217<419 875.353> 647 218<419 871.043> 1227 218<420 1127>
VStem: 121 298<217 647 865 1227> 957 290.006<295.851 568.823>
LayerCount: 2
Fore
SplineSet
121 1445 m 1,0,-1
 1127 1445 l 1,1,-1
 1127 1227 l 1,2,-1
 420 1227 l 1,3,-1
 419 865 l 1,4,-1
 702 865 l 2,5,6
 934 865 934 865 1086 766 c 0,7,8
 1247.01 660.65 1247.01 660.65 1247.01 435.781 c 0,9,10
 1246.42 170.165 1246.42 170.165 1006 63 c 0,11,12
 864 0 864 0 665 0 c 2,13,-1
 121 0 l 1,14,-1
 121 1445 l 1,0,-1
684 217 m 2,15,16
 957 217 957 217 957 432 c 128,-1,17
 957 647 957 647 683 647 c 2,18,-1
 419 647 l 1,19,-1
 419 217 l 1,20,-1
 684 217 l 2,15,16
EndSplineSet
EndChar

StartChar: afii10020
Encoding: 1043 1043 477
Width: 1582
Flags: W
HStem: 0 21G<121 419> 1227 218<419 1039>
VStem: 121 298<0 1227>
LayerCount: 2
Fore
SplineSet
121 0 m 1,0,-1
 121 1445 l 1,1,-1
 1062 1445 l 1,2,-1
 1039 1227 l 1,3,-1
 419 1227 l 1,4,-1
 419 0 l 1,5,-1
 121 0 l 1,0,-1
EndSplineSet
EndChar

StartChar: afii10021
Encoding: 1044 1044 478
Width: 1553
Flags: W
HStem: -177 392<102 328.977 1310 1397> 5 210<594 1051> 1216 214<898 1051>
VStem: 102 250<-177 5> 1051 259<215 1216> 1145 252<-177 5>
LayerCount: 2
Fore
SplineSet
102 215 m 1,0,-1
 161 215 l 2,1,2
 339 215 339 215 415 353 c 0,3,4
 456 426 456 426 487 550 c 2,5,-1
 713 1430 l 1,6,-1
 1310 1430 l 1,7,-1
 1310 215 l 1,8,-1
 1397 215 l 1,9,-1
 1397 -177 l 1,10,-1
 1145 -177 l 1,11,-1
 1145 5 l 1,12,-1
 352 5 l 1,13,-1
 352 -177 l 1,14,-1
 102 -177 l 1,15,-1
 102 215 l 1,0,-1
607 231 m 1,16,-1
 594 215 l 1,17,-1
 1051 215 l 1,18,-1
 1051 1216 l 1,19,-1
 898 1216 l 1,20,-1
 738 578 l 1,21,22
 687 401 687 401 607 231 c 1,16,-1
EndSplineSet
EndChar

StartChar: afii10022
Encoding: 1045 1045 479
Width: 1268
Flags: W
HStem: 15 218<463 1139> 651 218<463 1081> 1222 218<463 1109>
VStem: 182 281<233 651 869 1222>
LayerCount: 2
Fore
SplineSet
1081 869 m 1,0,-1
 1081 651 l 1,1,-1
 463 651 l 1,2,-1
 463 233 l 1,3,-1
 1157 233 l 1,4,-1
 1139 15 l 1,5,-1
 182 15 l 1,6,-1
 182 1440 l 1,7,-1
 1127 1440 l 1,8,-1
 1109 1222 l 1,9,-1
 463 1222 l 1,10,-1
 463 869 l 1,11,-1
 1081 869 l 1,0,-1
EndSplineSet
EndChar

StartChar: afii10024
Encoding: 1046 1046 480
Width: 1339
Flags: W
VStem: 789 240<15 546 917 1440>
LayerCount: 2
Fore
SplineSet
52 1440 m 1,0,-1
 354 1440 l 1,1,2
 355 1439 355 1439 355.5 1438 c 128,-1,3
 356 1437 356 1437 357 1436 c 2,4,-1
 789 917 l 1,5,-1
 789 1440 l 1,6,-1
 1029 1440 l 1,7,-1
 1029 905 l 1,8,-1
 1330 1440 l 1,9,-1
 1612 1440 l 1,10,-1
 1137 742 l 1,11,-1
 1649 15 l 1,12,-1
 1365 15 l 1,13,-1
 1029 550 l 1,14,-1
 1029 15 l 1,15,-1
 789 15 l 1,16,-1
 789 546 l 1,17,-1
 300 15 l 1,18,-1
 16 15 l 1,19,-1
 634 742 l 1,20,-1
 52 1440 l 1,0,-1
EndSplineSet
EndChar

StartChar: afii10025
Encoding: 1047 1047 481
Width: 1260
Flags: W
HStem: -18 229<399.34 862.971> 634 224<451 825.959> 1243 237<385.176 796.408>
VStem: 892 270<919.345 1153.74> 943 254<289.827 533.021>
LayerCount: 2
Fore
SplineSet
629 1243 m 0,0,1
 413 1243 413 1243 285 1141 c 1,2,-1
 182 1335 l 1,3,4
 348 1480 348 1480 641 1480 c 0,5,6
 772 1480 772 1480 890 1433 c 128,-1,7
 1008 1386 1008 1386 1085 1294 c 128,-1,8
 1162 1202 1162 1202 1162 1069.5 c 128,-1,9
 1162 937 1162 937 1121.5 862.5 c 128,-1,10
 1081 788 1081 788 999 745 c 1,11,12
 1091 697 1091 697 1144 607 c 128,-1,13
 1197 517 1197 517 1197 416 c 0,14,15
 1197 210 1197 210 1057.5 96 c 128,-1,16
 918 -18 918 -18 639 -18 c 0,17,18
 485 -18 485 -18 346.5 22 c 128,-1,19
 208 62 208 62 141 137 c 1,20,21
 158 166 158 166 243 336 c 1,22,23
 432 211 432 211 640 211 c 0,24,25
 825 211 825 211 888 276 c 0,26,27
 943 333 943 333 943 429 c 0,28,29
 943 487 943 487 897 535.5 c 128,-1,30
 851 584 851 584 786 609 c 128,-1,31
 721 634 721 634 658 634 c 2,32,-1
 451 634 l 1,33,-1
 451 858 l 1,34,-1
 658 858 l 2,35,36
 892 858 892 858 892 1048 c 0,37,38
 892 1122 892 1122 818.5 1182.5 c 128,-1,39
 745 1243 745 1243 629 1243 c 0,0,1
EndSplineSet
EndChar

StartChar: afii10026
Encoding: 1048 1048 482
Width: 1448
Flags: W
HStem: 0 21G<121 384.675 1054 1327> 1425 20G<121 394 1070.3 1327>
VStem: 121 273<470 1445> 1054 273<0 874>
LayerCount: 2
Fore
SplineSet
1327 1445 m 1,0,-1
 1327 0 l 1,1,-1
 1054 0 l 1,2,-1
 1054 874 l 1,3,-1
 369 0 l 1,4,-1
 121 0 l 1,5,-1
 121 1445 l 1,6,-1
 394 1445 l 1,7,-1
 394 470 l 1,8,-1
 1056 1319 l 1,9,-1
 1073 1445 l 1,10,-1
 1327 1445 l 1,0,-1
EndSplineSet
EndChar

StartChar: afii10029
Encoding: 1051 1051 485
Width: 1458
Flags: W
HStem: -18 241<0 191.584> 0 21G<1039 1337> 1235 210<530 1039>
VStem: 232 298<257.583 1235> 1039 298<0 1235>
LayerCount: 2
Fore
SplineSet
1337 1445 m 1,0,-1
 1337 0 l 1,1,-1
 1039 0 l 1,2,-1
 1039 1235 l 1,3,-1
 530 1235 l 1,4,-1
 530 447 l 2,5,6
 530 320 530 320 508 235.5 c 0,7,8
 486 150 486 150 432 92 c 0,9,10
 330 -18 330 -18 60 -18 c 2,11,-1
 0 -18 l 1,12,-1
 0 223 l 1,13,-1
 56 223 l 1,14,15
 165 224 165 224 198.5 269.5 c 128,-1,16
 232 315 232 315 232 439 c 2,17,-1
 232 1445 l 1,18,-1
 1337 1445 l 1,0,-1
EndSplineSet
EndChar

StartChar: afii10032
Encoding: 1054 1054 488
Width: 1662
Flags: W
HStem: -18 225.494<640.903 1023.65> 1253 225<642.425 1019.63>
VStem: 106 286.995<474.983 967.017> 1270 287<484.357 961.332>
LayerCount: 2
Fore
SplineSet
1270 722 m 128,-1,1
 1270 823 1270 823 1241.5 917 c 128,-1,2
 1213 1011 1213 1011 1160 1086.5 c 128,-1,3
 1107 1162 1107 1162 1021.5 1207.5 c 128,-1,4
 936 1253 936 1253 831 1253 c 128,-1,5
 726 1253 726 1253 640.5 1207.5 c 128,-1,6
 555 1162 555 1162 502 1086 c 0,7,8
 393.355 931.505 393.355 931.505 392.995 719.029 c 0,9,10
 392.995 425.276 392.995 425.276 590 282 c 0,11,12
 692 208 692 208 814 207.5 c 0,13,14
 815.402 207.494 815.402 207.494 816.8 207.494 c 0,15,16
 936.977 207.494 936.977 207.494 1021 250 c 0,17,18
 1106 293 1106 293 1159.5 365.5 c 128,-1,19
 1213 438 1213 438 1241.5 529.5 c 128,-1,0
 1270 621 1270 621 1270 722 c 128,-1,1
200.5 345 m 128,-1,21
 106 516 106 516 106 728.5 c 128,-1,22
 106 941 106 941 200.5 1113 c 128,-1,23
 295 1285 295 1285 460.5 1381.5 c 128,-1,24
 626 1478 626 1478 831 1478 c 128,-1,25
 1036 1478 1036 1478 1202 1381.5 c 128,-1,26
 1368 1285 1368 1285 1462.5 1113 c 128,-1,27
 1557 941 1557 941 1557 755 c 128,-1,28
 1557 569 1557 569 1501.5 430 c 128,-1,29
 1446 291 1446 291 1349.5 193 c 128,-1,30
 1253 95 1253 95 1118.5 38.5 c 128,-1,31
 984 -18 984 -18 805.5 -18 c 128,-1,32
 627 -18 627 -18 461 78 c 128,-1,20
 295 174 295 174 200.5 345 c 128,-1,21
EndSplineSet
EndChar

StartChar: afii10033
Encoding: 1055 1055 489
Width: 1434
Flags: W
HStem: 0 21G<121 419 1015 1313> 1235 210<419 1015>
VStem: 121 298<0 1235> 1015 298<0 1235>
LayerCount: 2
Fore
SplineSet
1015 1235 m 1,0,-1
 419 1235 l 1,1,-1
 419 0 l 1,2,-1
 121 0 l 1,3,-1
 121 1445 l 1,4,-1
 1313 1445 l 1,5,-1
 1313 0 l 1,6,-1
 1015 0 l 1,7,-1
 1015 1235 l 1,0,-1
EndSplineSet
EndChar

StartChar: afii10037
Encoding: 1059 1059 493
Width: 1285
Flags: W
HStem: -303 214<232 440.227> 1425 20G<-36 282.79 963.154 1278>
VStem: 477 298<-51.4258 436>
LayerCount: 2
Fore
SplineSet
1278 1445 m 1,0,-1
 775 436 l 1,1,-1
 775 139 l 2,2,3
 775 14 775 14 752 -67 c 0,4,5
 730 -148 730 -148 672 -202 c 0,6,7
 566 -302 566 -302 278 -303 c 2,8,-1
 232 -303 l 1,9,-1
 215 -89 l 1,10,-1
 297 -89 l 2,11,12
 408 -89 408 -89 442.5 -42 c 128,-1,13
 477 5 477 5 477 130 c 2,14,-1
 477 436 l 1,15,-1
 -36 1445 l 1,16,-1
 273 1445 l 1,17,-1
 622 732 l 1,18,-1
 973 1445 l 1,19,-1
 1278 1445 l 1,0,-1
EndSplineSet
EndChar

StartChar: afii10038
Encoding: 1060 1060 494
Width: 1814
Flags: W
HStem: 0 21G<765 1053> 172 225<549.72 765 1053 1259.7> 1093 225<549.065 765 1053 1265.11> 1425 20G<765 1053>
VStem: 72 287<580.67 912.626> 765 288<0 172 397 1093 1318 1445> 1455 287<580.655 913.077>
LayerCount: 2
Fore
SplineSet
1053 1093 m 1,0,-1
 1053 397 l 1,1,2
 1242 398 1242 398 1348.5 501.5 c 128,-1,3
 1455 605 1455 605 1455 752 c 0,4,5
 1454 886 1454 886 1354 986 c 0,6,7
 1246.99 1093.01 1246.99 1093.01 1056.53 1093.01 c 0,8,-1
 1053 1093 l 1,0,-1
765 1093 m 1,9,-1
 762 1093 l 2,10,11
 566 1093 566 1093 460 986 c 0,12,13
 360 884 360 884 359 752 c 0,14,15
 359 609 359 609 460 506 c 0,16,17
 567 397 567 397 762 397 c 2,18,-1
 765 397 l 1,19,-1
 765 1093 l 1,9,-1
765 172 m 1,20,-1
 762 172 l 2,21,22
 568 172 568 172 410 247.5 c 128,-1,23
 252 323 252 323 162 457 c 128,-1,24
 72 591 72 591 72 754 c 128,-1,25
 72 917 72 917 162 1045.5 c 128,-1,26
 252 1174 252 1174 409.5 1246 c 128,-1,27
 567 1318 567 1318 762 1318 c 2,28,-1
 765 1318 l 1,29,-1
 765 1445 l 1,30,-1
 1053 1445 l 1,31,-1
 1053 1318 l 1,32,33
 1247 1318 1247 1318 1404.5 1246 c 128,-1,34
 1562 1174 1562 1174 1652 1045.5 c 128,-1,35
 1742 917 1742 917 1742 754 c 128,-1,36
 1742 591 1742 591 1652 457 c 128,-1,37
 1562 323 1562 323 1404.5 247.5 c 128,-1,38
 1247 172 1247 172 1053 172 c 1,39,-1
 1053 0 l 1,40,-1
 765 0 l 1,41,-1
 765 172 l 1,20,-1
EndSplineSet
EndChar

StartChar: afii10040
Encoding: 1062 1062 496
Width: 1540
Flags: W
HStem: 0 210<419 1055> 1425 20G<121 419 1055 1353>
VStem: 121 298<210 1445> 1055 298<210 1445> 1253 255<-365 0>
LayerCount: 2
Fore
SplineSet
1353 88 m 1,0,-1
 1508 88 l 1,1,-1
 1508 -365 l 1,2,-1
 1253 -365 l 1,3,-1
 1252 0 l 1,4,-1
 121 0 l 1,5,-1
 121 1445 l 1,6,-1
 419 1445 l 1,7,-1
 419 210 l 1,8,-1
 1055 210 l 1,9,-1
 1055 1445 l 1,10,-1
 1353 1445 l 1,11,-1
 1353 88 l 1,0,-1
EndSplineSet
EndChar

StartChar: afii10041
Encoding: 1063 1063 497
Width: 1976
Flags: W
HStem: 576 218<502.006 1096>
VStem: 188 241<865 1440> 1097 264<15 576 794 1440>
LayerCount: 2
Fore
SplineSet
1097 794 m 1,0,-1
 1097 1440 l 1,1,-1
 1361 1440 l 1,2,-1
 1361 15 l 1,3,-1
 1097 15 l 1,4,-1
 1096 576 l 1,5,-1
 846 576 l 2,6,7
 554 576 554 576 428 622 c 0,8,9
 304 668 304 668 252 750 c 0,10,11
 188 851 188 851 188 1008 c 2,12,-1
 188 1440 l 1,13,-1
 429 1440 l 1,14,-1
 429 1009 l 2,15,16
 429 902 429 902 486 850 c 0,17,18
 549 794 549 794 798 794 c 2,19,-1
 1097 794 l 1,0,-1
EndSplineSet
EndChar

StartChar: afii10042
Encoding: 1064 1064 498
Width: 1864
Flags: W
HStem: 0 210<419 805 1103 1445> 1425 20G<121 419 805 1103 1445 1743>
VStem: 121 298<210 1445> 805 298<210 1445> 1445 298<210 1445>
LayerCount: 2
Fore
SplineSet
419 210 m 1,0,-1
 805 210 l 1,1,-1
 805 1445 l 1,2,-1
 1103 1445 l 1,3,-1
 1103 210 l 1,4,-1
 1445 210 l 1,5,-1
 1445 1445 l 1,6,-1
 1743 1445 l 1,7,-1
 1743 0 l 1,8,-1
 121 0 l 1,9,-1
 121 1445 l 1,10,-1
 419 1445 l 1,11,-1
 419 210 l 1,0,-1
EndSplineSet
EndChar

StartChar: afii10043
Encoding: 1065 1065 499
Width: 1924
Flags: W
HStem: 0 210<419 805 1103 1445> 1425 20G<121 419 805 1103 1445 1743>
VStem: 121 298<210 1445> 805 298<210 1445> 1445 298<210 1445> 1643 255<-365 0>
LayerCount: 2
Fore
SplineSet
419 210 m 1,0,-1
 805 210 l 1,1,-1
 805 1445 l 1,2,-1
 1103 1445 l 1,3,-1
 1103 210 l 1,4,-1
 1445 210 l 1,5,-1
 1445 1445 l 1,6,-1
 1743 1445 l 1,7,-1
 1743 88 l 1,8,-1
 1898 88 l 1,9,-1
 1898 -365 l 1,10,-1
 1643 -365 l 1,11,-1
 1642 0 l 1,12,-1
 121 0 l 1,13,-1
 121 1445 l 1,14,-1
 419 1445 l 1,15,-1
 419 210 l 1,0,-1
EndSplineSet
EndChar

StartChar: afii10044
Encoding: 1066 1066 500
Width: 1558
Flags: W
HStem: 15 217<623 1120.6> 742 218<623 1106.71> 1222 218<45 364>
VStem: 364 259<232 742 960 1222> 1236 239<339.67 626.975>
LayerCount: 2
Fore
SplineSet
364 15 m 1,0,-1
 364 1222 l 1,1,-1
 45 1222 l 1,2,-1
 45 1440 l 1,3,-1
 623 1440 l 1,4,-1
 623 960 l 1,5,-1
 901 960 l 2,6,7
 1138 960 1138 960 1300 855 c 0,8,9
 1382 802 1382 802 1428.5 711.5 c 128,-1,10
 1475 621 1475 621 1475 502 c 0,11,12
 1475 255 1475 255 1337 135 c 128,-1,13
 1199 15 1199 15 912 15 c 2,14,-1
 364 15 l 1,0,-1
1157.5 301 m 128,-1,16
 1236 370 1236 370 1236 486.5 c 128,-1,17
 1236 603 1236 603 1148.5 672.5 c 128,-1,18
 1061 742 1061 742 920 742 c 2,19,-1
 623 742 l 1,20,-1
 623 232 l 1,21,-1
 932 232 l 2,22,15
 1079 232 1079 232 1157.5 301 c 128,-1,16
EndSplineSet
EndChar

StartChar: afii10045
Encoding: 1067 1067 501
Width: 1838
Flags: W
HStem: 15 217<432 902.457> 742 218<432 908.634>
VStem: 182 250<232 742 960 1440> 1015 252.013<336.417 638.945> 1406 251<15 1440>
LayerCount: 2
Fore
SplineSet
941 301 m 128,-1,1
 1015 370 1015 370 1015 488 c 128,-1,2
 1015 606 1015 606 941 674 c 128,-1,3
 867 742 867 742 729 742 c 2,4,-1
 432 742 l 1,5,-1
 432 232 l 1,6,-1
 727 232 l 2,7,0
 867 232 867 232 941 301 c 128,-1,1
711 960 m 2,8,9
 1014 960 1014 960 1161 801 c 0,10,11
 1266.5 687.54 1266.5 687.54 1267.01 508.885 c 0,12,13
 1267.01 338.533 1267.01 338.533 1194 230 c 0,14,15
 1049 15 1049 15 709 15 c 2,16,-1
 182 15 l 1,17,-1
 182 1440 l 1,18,-1
 432 1440 l 1,19,-1
 432 960 l 1,20,-1
 711 960 l 2,8,9
1656 1440 m 1,21,-1
 1657 15 l 1,22,-1
 1406 15 l 1,23,-1
 1404 1440 l 1,24,-1
 1656 1440 l 1,21,-1
EndSplineSet
EndChar

StartChar: afii10046
Encoding: 1068 1068 502
Width: 1321
Flags: W
HStem: 15 217<432 917.818> 742 218<432 917.807>
VStem: 182 250<232 742 960 1440> 1027 243.5<337.422 637.785>
LayerCount: 2
Fore
SplineSet
432 1440 m 1,0,-1
 432 960 l 1,1,-1
 716 960 l 2,2,3
 1056 960 1056 960 1198 747 c 0,4,5
 1270 639 1270 639 1270.5 487.5 c 0,6,7
 1270 336 1270 336 1198 228 c 0,8,9
 1055 15 1055 15 717 15 c 2,10,-1
 182 15 l 1,11,-1
 182 1440 l 1,12,-1
 432 1440 l 1,0,-1
432 742 m 1,13,-1
 432 232 l 1,14,-1
 735 232 l 2,15,16
 876 232 876 232 951.5 301 c 128,-1,17
 1027 370 1027 370 1027 488 c 128,-1,18
 1027 606 1027 606 951 674 c 128,-1,19
 875 742 875 742 734 742 c 2,20,-1
 432 742 l 1,13,-1
EndSplineSet
EndChar

StartChar: afii10047
Encoding: 1069 1069 503
Width: 1412
Flags: W
HStem: -18 225<343.024 755.652> 641 218<339 1001> 1253 225<350.004 747.328>
VStem: 339 956<642.04 855.734>
LayerCount: 2
Fore
SplineSet
582 -18 m 0,0,1
 352 -18 352 -18 108 115 c 1,2,-1
 195 329 l 1,3,4
 382 207 382 207 557 207 c 128,-1,5
 732 207 732 207 855.5 320 c 128,-1,6
 979 433 979 433 1007 641 c 1,7,-1
 339 641 l 1,8,-1
 339 859 l 1,9,-1
 1001 859 l 1,10,11
 962 1039 962 1039 841 1146 c 128,-1,12
 720 1253 720 1253 550 1253 c 128,-1,13
 380 1253 380 1253 194 1122 c 1,14,-1
 106 1338 l 1,15,16
 334 1478 334 1478 575 1478 c 0,17,18
 716 1478 716 1478 846 1425.5 c 128,-1,19
 976 1373 976 1373 1076 1279 c 128,-1,20
 1176 1185 1176 1185 1235.5 1043 c 128,-1,21
 1295 901 1295 901 1295 734 c 128,-1,22
 1295 567 1295 567 1237.5 425 c 128,-1,23
 1180 283 1180 283 1082.5 186.5 c 128,-1,24
 985 90 985 90 855 36 c 128,-1,25
 725 -18 725 -18 582 -18 c 0,0,1
EndSplineSet
EndChar

StartChar: afii10048
Encoding: 1070 1070 504
Width: 1526
Flags: W
HStem: -18 225<1127.6 1483.98> 645 210<433 655.893> 1253 225<1129.35 1481.15>
VStem: 182 251<15 645 855 1440> 651 278<452.74 645 855 1006.35> 1682 267<454.267 1011.37>
LayerCount: 2
Fore
SplineSet
1295 -18 m 1,0,1
 1159 -18 1159 -18 1039 33.5 c 0,2,3
 919 86 919 86 839 176 c 0,4,5
 677 359 677 359 651 645 c 1,6,-1
 433 645 l 1,7,-1
 433 15 l 1,8,-1
 182 15 l 1,9,-1
 182 1440 l 1,10,-1
 433 1440 l 1,11,-1
 433 855 l 1,12,-1
 656 855 l 1,13,14
 690 1124 690 1124 852 1298 c 0,15,16
 1020 1478 1020 1478 1306 1478 c 0,17,18
 1462 1478 1462 1478 1586 1419.5 c 0,19,20
 1710 1360 1710 1360 1788 1258 c 0,21,22
 1948 1048 1948 1048 1949 727 c 0,23,24
 1948 332 1948 332 1716 124 c 0,25,26
 1556 -18 1556 -18 1295 -18 c 1,0,1
1682 734 m 0,27,28
 1682 844 1682 844 1660 936.5 c 128,-1,29
 1638 1029 1638 1029 1593.5 1100.5 c 128,-1,30
 1549 1172 1549 1172 1475.5 1212.5 c 128,-1,31
 1402 1253 1402 1253 1305 1253 c 128,-1,32
 1208 1253 1208 1253 1134.5 1212.5 c 128,-1,33
 1061 1172 1061 1172 1017 1100 c 0,34,35
 929 956 929 956 929 735 c 2,36,-1
 929 725 l 1,37,38
 931 502 931 502 1018 360 c 0,39,40
 1112 207 1112 207 1305 207 c 0,41,42
 1501 208 1501 208 1595 364 c 0,43,44
 1682 508 1682 508 1682 734 c 0,27,28
EndSplineSet
EndChar

StartChar: afii10049
Encoding: 1071 1071 505
Width: 1303
Flags: W
HStem: 0 21G<-11 311.159 883 1182> 598 211<586.637 883> 1228 217<423.241 883>
VStem: 74 276<880.643 1159.02> 883 299<0 598 809 1228>
LayerCount: 2
Fore
SplineSet
-11 0 m 1,0,1
 193 418 193 418 208 448 c 2,2,3
 226 484 l 2,4,5
 267 565 267 565 283.5 587 c 128,-1,6
 300 609 300 609 311 623.5 c 128,-1,7
 322 638 322 638 333 651 c 1,8,9
 74 748 74 748 74 1035 c 0,10,11
 74 1316 74 1316 286 1397 c 0,12,13
 412 1445 412 1445 625 1445 c 2,14,-1
 1182 1445 l 1,15,-1
 1182 0 l 1,16,-1
 883 0 l 1,17,-1
 883 598 l 1,18,-1
 676 598 l 2,19,20
 606 598 606 598 586 595 c 1,21,22
 496 423 496 423 460 345 c 2,23,-1
 302 0 l 1,24,-1
 -11 0 l 1,0,1
883 1228 m 1,25,-1
 610 1228 l 2,26,27
 480 1228 480 1228 415 1180.5 c 128,-1,28
 350 1133 350 1133 350 1022.5 c 128,-1,29
 350 912 350 912 413.5 860.5 c 128,-1,30
 477 809 477 809 617 809 c 2,31,-1
 883 809 l 1,32,-1
 883 1228 l 1,25,-1
EndSplineSet
EndChar

StartChar: afii10066
Encoding: 1073 1073 507
Width: 1101
Flags: W
HStem: 0 201<384 726.219> 489 196<384 728.71> 855 208<383 914>
VStem: 101 283<201 489 685 855> 771 253<245.548 448.702>
LayerCount: 2
Fore
SplineSet
729.5 245 m 128,-1,1
 771 289 771 289 771 348.5 c 128,-1,2
 771 408 771 408 730 448.5 c 128,-1,3
 689 489 689 489 614 489 c 2,4,-1
 384 489 l 1,5,-1
 384 201 l 1,6,-1
 620 201 l 2,7,0
 688 201 688 201 729.5 245 c 128,-1,1
634 685 m 2,8,9
 635.901 685.012 635.901 685.012 637.796 685.012 c 0,10,11
 789.407 685.012 789.407 685.012 902 606 c 0,12,13
 1024 520 1024 520 1024 354.5 c 128,-1,14
 1024 189 1024 189 918.5 94.5 c 128,-1,15
 813 0 813 0 647 0 c 2,16,-1
 101 0 l 1,17,-1
 101 1063 l 1,18,-1
 914 1063 l 1,19,-1
 914 855 l 1,20,-1
 383 855 l 1,21,-1
 383 685 l 1,22,-1
 634 685 l 2,8,9
EndSplineSet
EndChar

StartChar: afii10067
Encoding: 1074 1074 508
Width: 1128
Flags: W
HStem: 0 200<384 776.321> 450 181<384 751.447> 852 211<384 752.478>
VStem: 101 283<200 450 631 852> 786 248<660.667 823.176> 815 247<234.746 414.742>
LayerCount: 2
Fore
SplineSet
862 555 m 1,0,1
 952 543 952 543 1007 470 c 128,-1,2
 1062 397 1062 397 1062 310 c 0,3,4
 1062 152 1062 152 953.5 76 c 128,-1,5
 845 0 845 0 665 0 c 2,6,-1
 101 0 l 1,7,-1
 101 1063 l 1,8,-1
 637 1063 l 2,9,10
 818 1063 818 1063 926 991 c 128,-1,11
 1034 919 1034 919 1034 770 c 0,12,13
 1034 694 1034 694 988 635 c 128,-1,14
 942 576 942 576 862 555 c 1,0,1
672 450 m 2,15,-1
 384 450 l 1,16,-1
 384 200 l 1,17,-1
 672 200 l 2,18,19
 740 200 740 200 777.5 236.5 c 128,-1,20
 815 273 815 273 815 324 c 256,21,22
 815 375 815 375 777 412.5 c 128,-1,23
 739 450 739 450 672 450 c 2,15,-1
661 631 m 2,24,25
 719 631 719 631 752.5 664.5 c 128,-1,26
 786 698 786 698 786 743 c 128,-1,27
 786 788 786 788 753.5 820 c 128,-1,28
 721 852 721 852 661 852 c 2,29,-1
 384 852 l 1,30,-1
 384 631 l 1,31,-1
 661 631 l 2,24,25
EndSplineSet
EndChar

StartChar: afii10068
Encoding: 1075 1075 509
Width: 753
Flags: W
HStem: 0 21G<101 384> 848 215<384 687>
VStem: 101 283<0 848>
LayerCount: 2
Fore
SplineSet
687 848 m 1,0,-1
 384 848 l 1,1,-1
 384 0 l 1,2,-1
 101 0 l 1,3,-1
 101 1063 l 1,4,-1
 687 1063 l 1,5,-1
 687 848 l 1,0,-1
EndSplineSet
EndChar

StartChar: afii10069
Encoding: 1076 1076 510
Width: 1242
Flags: W
HStem: 0 206<444 812> 847 216<554 812>
VStem: 46 247<-362 0> 271 283<486.938 847> 812 283<206 847> 988 239<-362 -126.108>
LayerCount: 2
Fore
SplineSet
444 206 m 1,0,-1
 812 206 l 1,1,-1
 812 847 l 1,2,-1
 554 847 l 1,3,4
 554 615 554 615 516.5 443 c 128,-1,5
 479 271 479 271 444 206 c 1,0,-1
306 0 m 1,6,-1
 293 -362 l 1,7,-1
 46 -362 l 1,8,-1
 46 206 l 1,9,-1
 124 206 l 1,10,11
 182 311 182 311 226.5 485 c 128,-1,12
 271 659 271 659 271 849 c 2,13,-1
 271 1063 l 1,14,-1
 1095 1063 l 1,15,-1
 1095 206 l 1,16,-1
 1227 206 l 1,17,-1
 1227 -362 l 1,18,-1
 988 -362 l 1,19,-1
 966 0 l 1,20,-1
 306 0 l 1,6,-1
EndSplineSet
EndChar

StartChar: afii10072
Encoding: 1078 1078 512
Width: 1557
Flags: W
HStem: 0 21G<27 349.819 649 912 1211.18 1534> 1043 20G<47 382.291 649 912 1178.71 1514>
VStem: 649 263<0 453 609 1063>
LayerCount: 2
Fore
SplineSet
649 609 m 1,0,-1
 649 1063 l 1,1,-1
 912 1063 l 1,2,-1
 912 609 l 1,3,-1
 1191 1063 l 1,4,-1
 1514 1063 l 1,5,-1
 1137 532 l 1,6,-1
 1534 0 l 1,7,-1
 1225 0 l 1,8,-1
 912 453 l 1,9,-1
 912 0 l 1,10,-1
 649 0 l 1,11,-1
 649 453 l 1,12,-1
 336 0 l 1,13,-1
 27 0 l 1,14,-1
 424 532 l 1,15,-1
 47 1063 l 1,16,-1
 370 1063 l 1,17,-1
 649 609 l 1,0,-1
EndSplineSet
EndChar

StartChar: afii10073
Encoding: 1079 1079 513
Width: 995
Flags: W
HStem: -20 206<200.062 645.373> 447 193<283 619.257> 888 196<159.194 625.328>
VStem: 660 246<672.784 851.795> 689 244<225.444 412.242>
LayerCount: 2
Fore
SplineSet
68 1009 m 1,0,1
 184 1084 184 1084 457 1084 c 0,2,3
 644 1084 644 1084 770 1019 c 0,4,5
 906 949 906 949 906 798 c 0,6,7
 906 716 906 716 863.5 650 c 128,-1,8
 821 584 821 584 749 561 c 1,9,10
 825 535 825 535 879 461 c 128,-1,11
 933 387 933 387 933 309 c 128,-1,12
 933 231 933 231 908.5 174.5 c 128,-1,13
 884 118 884 118 843 82 c 128,-1,14
 802 46 802 46 743 22 c 0,15,16
 636 -20 636 -20 479 -20 c 1,17,18
 222 -20 222 -20 76 86 c 1,19,-1
 115 271 l 1,20,21
 251 186 251 186 482 186 c 0,22,23
 592 186 592 186 640.5 221.5 c 128,-1,24
 689 257 689 257 689 320.5 c 128,-1,25
 689 384 689 384 640 415.5 c 128,-1,26
 591 447 591 447 508 447 c 2,27,-1
 283 447 l 1,28,-1
 283 640 l 1,29,-1
 508 640 l 2,30,31
 581 640 581 640 620.5 673.5 c 128,-1,32
 660 707 660 707 660 767 c 0,33,34
 660 888 660 888 442.5 888 c 128,-1,35
 225 888 225 888 117 823 c 1,36,-1
 68 1009 l 1,0,1
EndSplineSet
EndChar

StartChar: afii10074
Encoding: 1080 1080 514
Width: 1189
Flags: W
HStem: 0 21G<101 361.385 830 1088> 1043 20G<101 364 830 1088>
VStem: 101 263<382 1063> 830 258<0 592 949 1063>
LayerCount: 2
Fore
SplineSet
1088 0 m 1,0,-1
 830 0 l 1,1,-1
 830 592 l 1,2,-1
 345 0 l 1,3,-1
 101 0 l 1,4,-1
 101 1063 l 1,5,-1
 364 1063 l 1,6,-1
 364 382 l 1,7,-1
 830 949 l 1,8,-1
 830 1063 l 1,9,-1
 1088 1063 l 1,10,-1
 1088 0 l 1,0,-1
EndSplineSet
EndChar

StartChar: afii10076
Encoding: 1082 1082 516
Width: 1144
Flags: W
HStem: 0 21G<101 384 785.212 1159> 851 222<868.586 1058.57>
VStem: 101 283<0 406 642 1063>
LayerCount: 2
Fore
SplineSet
926 1073 m 0,0,1
 989 1073 989 1073 1061 1056 c 1,2,-1
 1061 835 l 1,3,4
 977 851 977 851 960.5 851 c 128,-1,5
 944 851 944 851 937 850 c 128,-1,6
 930 849 930 849 922.5 846 c 128,-1,7
 915 843 915 843 910 841.5 c 128,-1,8
 905 840 905 840 898 834 c 128,-1,9
 891 828 891 828 887.5 826 c 128,-1,10
 884 824 884 824 876 815.5 c 128,-1,11
 868 807 868 807 866 805 c 0,12,13
 864 802 864 802 855 792 c 0,14,15
 799 726 799 726 659 596 c 1,16,-1
 582 519 l 1,17,-1
 1159 0 l 1,18,-1
 806 0 l 1,19,-1
 384 406 l 1,20,-1
 384 0 l 1,21,-1
 101 0 l 1,22,-1
 101 1063 l 1,23,-1
 384 1063 l 1,24,-1
 384 642 l 1,25,-1
 521 779 l 1,26,27
 636 902 636 902 703 975 c 0,28,29
 794 1073 794 1073 926 1073 c 0,0,1
EndSplineSet
EndChar

StartChar: afii10077
Encoding: 1083 1083 517
Width: 1226
Flags: W
HStem: 0 21G<842 1125> 845 218<446 842>
VStem: 163 283<227.375 845> 842 283<0 845>
LayerCount: 2
Fore
SplineSet
446 361 m 2,0,1
 446 66 446 66 159 -7 c 0,2,3
 73 -29 73 -29 -36 -29 c 1,4,-1
 -36 183 l 1,5,-1
 -9 187 l 1,6,7
 51 194 51 194 82.5 203.5 c 128,-1,8
 114 213 114 213 133.5 238.5 c 128,-1,9
 153 264 153 264 158 299 c 128,-1,10
 163 334 163 334 163 401 c 2,11,-1
 163 1063 l 1,12,-1
 1125 1063 l 1,13,-1
 1125 0 l 1,14,-1
 842 0 l 1,15,-1
 842 845 l 1,16,-1
 446 845 l 1,17,-1
 446 361 l 2,0,1
EndSplineSet
EndChar

StartChar: afii10078
Encoding: 1084 1084 518
Width: 1317
Flags: W
HStem: 0 21G<101 364 958 1216> 1043 20G<101 375.655 943.299 1216>
VStem: 101 263<0 668> 958 258<0 669>
LayerCount: 2
Fore
SplineSet
711 324 m 1,0,-1
 605 324 l 1,1,-1
 364 668 l 1,2,-1
 364 0 l 1,3,-1
 101 0 l 1,4,-1
 101 1063 l 1,5,-1
 362 1063 l 1,6,-1
 659 628 l 1,7,-1
 957 1063 l 1,8,-1
 1216 1063 l 1,9,-1
 1216 0 l 1,10,-1
 958 0 l 1,11,-1
 958 669 l 1,12,-1
 711 324 l 1,0,-1
EndSplineSet
EndChar

StartChar: afii10079
Encoding: 1085 1085 519
Width: 1205
Flags: W
HStem: 0 21G<101 384 821 1104> 468 212<384 821> 1043 20G<101 384 821 1104>
VStem: 101 283<0 468 680 1063> 821 283<0 468 680 1063>
LayerCount: 2
Fore
SplineSet
101 1063 m 1,0,-1
 384 1063 l 1,1,-1
 384 680 l 1,2,-1
 821 680 l 1,3,-1
 821 1063 l 1,4,-1
 1104 1063 l 1,5,-1
 1104 0 l 1,6,-1
 821 0 l 1,7,-1
 821 468 l 1,8,-1
 384 468 l 1,9,-1
 384 0 l 1,10,-1
 101 0 l 1,11,-1
 101 1063 l 1,0,-1
EndSplineSet
EndChar

StartChar: afii10081
Encoding: 1087 1087 521
Width: 1195
Flags: W
HStem: 0 21G<101 384 811 1094> 849 214<384 811>
VStem: 101 283<0 849> 811 283<0 849>
LayerCount: 2
Fore
SplineSet
101 1063 m 1,0,-1
 1094 1063 l 1,1,-1
 1094 0 l 1,2,-1
 811 0 l 1,3,-1
 811 849 l 1,4,-1
 384 849 l 1,5,-1
 384 0 l 1,6,-1
 101 0 l 1,7,-1
 101 1063 l 1,0,-1
EndSplineSet
EndChar

StartChar: afii10084
Encoding: 1090 1090 524
Width: 895
Flags: W
HStem: 0 21G<310 593> 872 191<-1 310 593 896>
VStem: 310 283<0 872>
LayerCount: 2
Fore
SplineSet
-1 1063 m 1,0,-1
 896 1063 l 1,1,-1
 896 872 l 1,2,-1
 593 872 l 1,3,-1
 593 0 l 1,4,-1
 310 0 l 1,5,-1
 310 872 l 1,6,-1
 -1 872 l 1,7,-1
 -1 1063 l 1,0,-1
EndSplineSet
EndChar

StartChar: afii10085
Encoding: 1091 1091 525
Width: 1079
Flags: W
HStem: -410 204<57 323.314> 1043 20G<-17 275.938 783.192 1084>
LayerCount: 2
Fore
SplineSet
549 355 m 1,0,-1
 790 1063 l 1,1,-1
 1084 1063 l 1,2,-1
 647 -72 l 2,3,4
 570 -274 570 -274 466 -344 c 0,5,6
 369 -410 369 -410 194 -410 c 2,7,-1
 57 -410 l 1,8,-1
 30 -206 l 1,9,-1
 104 -206 l 2,10,11
 223 -206 223 -206 250 -201 c 0,12,13
 313 -190 313 -190 346 -136 c 128,-1,14
 379 -82 379 -82 412 34 c 1,15,-1
 -17 1063 l 1,16,-1
 268 1063 l 1,17,-1
 549 355 l 1,0,-1
EndSplineSet
EndChar

StartChar: afii10086
Encoding: 1092 1092 526
Width: 1490
Flags: W
HStem: 0 187<416.276 603 886 1072.81> 875 188<436.857 603 886 1053.27>
VStem: 82 253<295.419 746.275> 603 283<-182 0 187 874 1063 1238> 1156 253.009<290.447 748.43>
LayerCount: 2
Fore
SplineSet
603 1238 m 1,0,-1
 886 1238 l 1,1,-1
 886 1063 l 1,2,-1
 969 1063 l 2,3,4
 970.907 1063 l 0,5,6
 1199.55 1063 1199.55 1063 1332 824 c 0,7,8
 1408.6 685.725 1408.6 685.725 1409.01 524.407 c 0,9,10
 1409.01 330.532 1409.01 330.532 1302 172 c 0,11,12
 1250 96 1250 96 1169 48 c 128,-1,13
 1088 0 1088 0 991 0 c 2,14,-1
 886 0 l 1,15,-1
 886 -182 l 1,16,-1
 603 -182 l 1,17,-1
 603 0 l 1,18,-1
 501 0 l 2,19,20
 404 0 404 0 322.5 48 c 128,-1,21
 241 96 241 96 189.5 173 c 128,-1,22
 138 250 138 250 110 342.5 c 128,-1,23
 82 435 82 435 82 529 c 128,-1,24
 82 623 82 623 113.5 717.5 c 128,-1,25
 145 812 145 812 200 889 c 128,-1,26
 255 966 255 966 340 1014.5 c 128,-1,27
 425 1063 425 1063 523 1063 c 2,28,-1
 603 1063 l 1,29,-1
 603 1238 l 1,0,-1
965 875 m 2,30,-1
 886 875 l 1,31,-1
 886 187 l 1,32,-1
 983 187 l 2,33,34
 1042 188 1042 188 1082 240 c 0,35,36
 1156 337 1156 337 1156 523.5 c 128,-1,37
 1156 710 1156 710 1067 820 c 0,38,39
 1022.79 875.018 1022.79 875.018 966.996 875.018 c 0,40,41
 966 875.018 966 875.018 965 875 c 2,30,-1
507 187 m 2,42,-1
 603 187 l 1,43,-1
 603 874 l 1,44,-1
 526 874 l 2,45,46
 469 874 469 874 424 818 c 0,47,48
 335 708 335 708 335 521.5 c 128,-1,49
 335 335 335 335 409 239 c 0,50,51
 449 187 449 187 507 187 c 2,42,-1
EndSplineSet
EndChar

StartChar: afii10088
Encoding: 1094 1094 528
Width: 1227
Flags: W
HStem: 0 215<384 784> 1043 20G<101 384 784 1067>
VStem: 101 283<215 1063> 784 283<215 1063> 959 239<-362 -126.108>
LayerCount: 2
Fore
SplineSet
784 215 m 1,0,-1
 784 1063 l 1,1,-1
 1067 1063 l 1,2,-1
 1067 96 l 1,3,-1
 1198 96 l 1,4,-1
 1198 -362 l 1,5,-1
 959 -362 l 1,6,-1
 937 0 l 1,7,-1
 101 0 l 1,8,-1
 101 1063 l 1,9,-1
 384 1063 l 1,10,-1
 384 215 l 1,11,-1
 784 215 l 1,0,-1
EndSplineSet
EndChar

StartChar: afii10089
Encoding: 1095 1095 529
Width: 1203
Flags: W
HStem: 0 21G<819 1102> 351 221<413.981 736.115> 1043 20G<60 343 819 1102>
VStem: 60 283<643.917 1063> 819 283<0 455 636.955 1063>
LayerCount: 2
Fore
SplineSet
343 850 m 2,0,1
 343 741 343 741 357 705.5 c 128,-1,2
 371 670 371 670 387 645.5 c 0,3,4
 403 620 403 620 426 606 c 0,5,6
 481 572 481 572 555 572 c 128,-1,7
 629 572 629 572 681 588 c 0,8,9
 734 604 734 604 762 627 c 0,10,11
 820 673 820 673 819 710 c 2,12,-1
 819 1063 l 1,13,-1
 1102 1063 l 1,14,-1
 1102 0 l 1,15,-1
 819 0 l 1,16,-1
 819 455 l 1,17,18
 715 351 715 351 513 351 c 1,19,20
 280 354 280 354 170 469.5 c 128,-1,21
 60 585 60 585 60 791 c 2,22,-1
 60 1063 l 1,23,-1
 343 1063 l 1,24,-1
 343 850 l 2,0,1
EndSplineSet
EndChar

StartChar: afii10090
Encoding: 1096 1096 530
Width: 1513
Flags: W
HStem: 0 215<364 627 890 1154> 1043 20G<101 364 627 890 1154 1412>
VStem: 101 263<215 1063> 627 263<215 1063> 1154 258<215 1063>
LayerCount: 2
Fore
SplineSet
364 215 m 1,0,-1
 627 215 l 1,1,-1
 627 1063 l 1,2,-1
 890 1063 l 1,3,-1
 890 215 l 1,4,-1
 1154 215 l 1,5,-1
 1154 1063 l 1,6,-1
 1412 1063 l 1,7,-1
 1412 0 l 1,8,-1
 101 0 l 1,9,-1
 101 1063 l 1,10,-1
 364 1063 l 1,11,-1
 364 215 l 1,0,-1
EndSplineSet
EndChar

StartChar: afii10091
Encoding: 1097 1097 531
Width: 1579
Flags: W
HStem: 0 215<364 627 890 1154> 1043 20G<101 364 627 890 1154 1412>
VStem: 101 263<215 1063> 627 263<215 1063> 1154 258<215 1063> 1303 239<-362 -126.108>
LayerCount: 2
Fore
SplineSet
1281 0 m 1,0,-1
 101 0 l 1,1,-1
 101 1063 l 1,2,-1
 364 1063 l 1,3,-1
 364 215 l 1,4,-1
 627 215 l 1,5,-1
 627 1063 l 1,6,-1
 890 1063 l 1,7,-1
 890 215 l 1,8,-1
 1154 215 l 1,9,-1
 1154 1063 l 1,10,-1
 1412 1063 l 1,11,-1
 1412 96 l 1,12,-1
 1542 96 l 1,13,-1
 1542 -362 l 1,14,-1
 1303 -362 l 1,15,-1
 1281 0 l 1,0,-1
EndSplineSet
EndChar

StartChar: afii10092
Encoding: 1098 1098 532
Width: 1183
Flags: W
HStem: 0 201<485 827.219> 489 196<485 829.71> 856 207<-3 202>
VStem: 202 282<201 489 685 856> 872 252.502<245.125 448.295>
LayerCount: 2
Fore
SplineSet
735 685 m 2,0,1
 736.889 685.012 736.889 685.012 738.772 685.012 c 0,2,3
 889.407 685.012 889.407 685.012 1002 606 c 0,4,5
 1124.25 519.821 1124.25 519.821 1124.5 352.94 c 0,6,7
 1124.5 188.554 1124.5 188.554 1019.5 94.5 c 0,8,9
 914 0 914 0 748 0 c 2,10,-1
 202 0 l 1,11,-1
 202 856 l 1,12,-1
 -3 856 l 1,13,-1
 -3 1063 l 1,14,-1
 484 1063 l 1,15,-1
 484 685 l 1,16,-1
 735 685 l 2,0,1
830.5 245 m 128,-1,18
 872 289 872 289 872 348.5 c 128,-1,19
 872 408 872 408 831 448.5 c 128,-1,20
 790 489 790 489 715 489 c 2,21,-1
 485 489 l 1,22,-1
 485 201 l 1,23,-1
 721 201 l 2,24,17
 789 201 789 201 830.5 245 c 128,-1,18
EndSplineSet
EndChar

StartChar: afii10093
Encoding: 1099 1099 533
Width: 1498
Flags: W
HStem: 0 201<384 726.219> 489 196<384 728.71> 1043 20G<101 383 1113 1396.02>
VStem: 101 282<201 489 685 1063> 771 253<245.548 448.702> 1113 284<0 1063>
LayerCount: 2
Fore
SplineSet
1396 1063 m 1,0,-1
 1397 0 l 1,1,-1
 1113 0 l 1,2,-1
 1113 1063 l 1,3,-1
 1396 1063 l 1,0,-1
729.5 245 m 128,-1,5
 771 289 771 289 771 348.5 c 128,-1,6
 771 408 771 408 730 448.5 c 128,-1,7
 689 489 689 489 614 489 c 2,8,-1
 384 489 l 1,9,-1
 384 201 l 1,10,-1
 620 201 l 2,11,4
 688 201 688 201 729.5 245 c 128,-1,5
634 685 m 2,12,13
 635.901 685.012 635.901 685.012 637.796 685.012 c 0,14,15
 789.407 685.012 789.407 685.012 902 606 c 0,16,17
 1024 520 1024 520 1024 354.5 c 128,-1,18
 1024 189 1024 189 918.5 94.5 c 128,-1,19
 813 0 813 0 647 0 c 2,20,-1
 101 0 l 1,21,-1
 101 1063 l 1,22,-1
 383 1064 l 1,23,-1
 383 685 l 1,24,-1
 634 685 l 2,12,13
EndSplineSet
EndChar

StartChar: afii10094
Encoding: 1100 1100 534
Width: 1082
Flags: W
HStem: 0 201<384 726.219> 489 196<384 728.71> 1044 20G<101 383>
VStem: 101 282<201 489 685 1063> 771 253<245.548 448.702>
LayerCount: 2
Fore
SplineSet
729.5 245 m 128,-1,1
 771 289 771 289 771 348.5 c 128,-1,2
 771 408 771 408 730 448.5 c 128,-1,3
 689 489 689 489 614 489 c 2,4,-1
 384 489 l 1,5,-1
 384 201 l 1,6,-1
 620 201 l 2,7,0
 688 201 688 201 729.5 245 c 128,-1,1
634 685 m 2,8,9
 635.901 685.012 635.901 685.012 637.796 685.012 c 0,10,11
 789.407 685.012 789.407 685.012 902 606 c 0,12,13
 1024 520 1024 520 1024 354.5 c 128,-1,14
 1024 189 1024 189 918.5 94.5 c 128,-1,15
 813 0 813 0 647 0 c 2,16,-1
 101 0 l 1,17,-1
 101 1063 l 1,18,-1
 383 1064 l 1,19,-1
 383 685 l 1,20,-1
 634 685 l 2,8,9
EndSplineSet
EndChar

StartChar: afii10095
Encoding: 1101 1101 535
Width: 972
Flags: W
HStem: -21 206<163.102 511.596> 442 188<141 631> 874 208<167.55 520.179>
VStem: 631 279<312.057 442 630 758.672>
LayerCount: 2
Fore
SplineSet
632 630 m 1,0,1
 595 874 595 874 352 874 c 0,2,3
 288 874 288 874 218.5 850 c 128,-1,4
 149 826 149 826 110 798 c 1,5,-1
 65 987 l 1,6,7
 192 1082 192 1082 387 1082 c 0,8,9
 552 1082 552 1082 682 1002 c 0,10,11
 825 914 825 914 880 750 c 0,12,13
 910 660 910 660 910 535.5 c 128,-1,14
 910 411 910 411 869 300.5 c 128,-1,15
 828 190 828 190 754 120 c 0,16,17
 606 -21 606 -21 366 -21 c 0,18,19
 195 -21 195 -21 53 74 c 1,20,-1
 106 264 l 1,21,22
 218 185 218 185 340 185 c 0,23,24
 592 185 592 185 631 442 c 1,25,-1
 141 442 l 1,26,-1
 141 630 l 1,27,-1
 632 630 l 1,0,1
EndSplineSet
EndChar

StartChar: afii10096
Encoding: 1102 1102 536
Width: 1554
Flags: W
HStem: -20 206<883.142 1122.1> 0 21G<101 384> 436 196<384 521.478> 877 206<887.459 1131.05> 1043 20G<101 384>
VStem: 101 283<0 436 632 1063> 514 266<315.46 436 632 751.495> 1219 273<303.274 774.7>
LayerCount: 2
Fore
SplineSet
1436.5 814 m 128,-1,1
 1492 691 1492 691 1492 556.5 c 128,-1,2
 1492 422 1492 422 1458.5 321.5 c 128,-1,3
 1425 221 1425 221 1364 145 c 128,-1,4
 1303 69 1303 69 1210 24.5 c 128,-1,5
 1117 -20 1117 -20 1008.5 -20 c 128,-1,6
 900 -20 900 -20 812.5 16 c 128,-1,7
 725 52 725 52 665 115 c 0,8,9
 545 241 545 241 514 436 c 1,10,-1
 384 436 l 1,11,-1
 384 0 l 1,12,-1
 101 0 l 1,13,-1
 101 1063 l 1,14,-1
 384 1063 l 1,15,-1
 384 632 l 1,16,-1
 515 632 l 1,17,18
 545 836 545 836 672 959.5 c 128,-1,19
 799 1083 799 1083 1005 1083 c 0,20,21
 1158 1083 1158 1083 1269.5 1010 c 128,-1,0
 1381 937 1381 937 1436.5 814 c 128,-1,1
1005 186 m 0,22,23
 1078 186 1078 186 1128 236 c 0,24,25
 1218 326 1218 326 1219 533 c 0,26,27
 1219 877 1219 877 1005 877 c 0,28,29
 934 877 934 877 882 829 c 0,30,31
 780 735 780 735 780 532 c 0,32,33
 780 385 780 385 838.5 285.5 c 128,-1,34
 897 186 897 186 1005 186 c 0,22,23
EndSplineSet
EndChar

StartChar: afii10097
Encoding: 1103 1103 537
Width: 1139
Flags: W
HStem: 0 21G<80 394.072 755 1038> 417 204<594 755> 851 212<406.135 755>
VStem: 100 273<647.484 818.09> 755 283<0 417 621 851>
LayerCount: 2
Fore
SplineSet
324 449 m 1,0,1
 224 487 224 487 162 560.5 c 128,-1,2
 100 634 100 634 100 739 c 0,3,4
 100 894 100 894 209 978.5 c 128,-1,5
 318 1063 318 1063 486 1063 c 2,6,-1
 1038 1063 l 1,7,-1
 1038 0 l 1,8,-1
 755 0 l 1,9,-1
 755 417 l 1,10,-1
 594 417 l 1,11,-1
 384 0 l 1,12,-1
 80 0 l 1,13,-1
 324 449 l 1,0,1
373 733 m 0,14,15
 381 621 381 621 518 621 c 2,16,-1
 755 621 l 1,17,-1
 755 851 l 1,18,-1
 518 851 l 2,19,20
 441 851 441 851 405 819 c 0,21,22
 373 790 373 790 373 744 c 0,23,24
 373 738 373 738 373 733 c 0,14,15
EndSplineSet
EndChar

StartChar: afii10101
Encoding: 1108 1108 541
Width: 972
Flags: W
HStem: -21 206<459.17 808.68> 442 188<341 831> 874 208<452.162 805.505>
VStem: 62 279<309.315 442 630 761.145>
LayerCount: 2
Fore
SplineSet
919 74 m 1,0,1
 777 -21 777 -21 606 -21 c 1,2,3
 366 -21 366 -21 218 120 c 0,4,5
 62 268 62 268 62 554 c 0,6,7
 62 862 62 862 290 1002 c 0,8,9
 420 1082 420 1082 600 1082 c 128,-1,10
 780 1082 780 1082 907 987 c 1,11,-1
 862 798 l 1,12,13
 823 826 823 826 753.5 850 c 128,-1,14
 684 874 684 874 625 874 c 128,-1,15
 566 874 566 874 521.5 861 c 128,-1,16
 477 848 477 848 439 820 c 0,17,18
 360 763 360 763 340 630 c 1,19,-1
 831 630 l 1,20,-1
 831 442 l 1,21,-1
 341 442 l 1,22,23
 380 185 380 185 625 185 c 0,24,25
 754 185 754 185 866 264 c 1,26,-1
 919 74 l 1,0,1
EndSplineSet
EndChar

StartChar: afii10106
Encoding: 1113 1113 545
Width: 1711
Flags: W
HStem: 0 201<1048 1390.22> 489 196<1048 1392.71> 855 208<384 765>
VStem: 101 283<0 855> 765 282<201 489 685 855> 1435 253<245.548 448.702>
LayerCount: 2
Fore
SplineSet
1047 1063 m 1,0,-1
 1047 685 l 1,1,-1
 1298 685 l 2,2,3
 1299.9 685.012 1299.9 685.012 1301.8 685.012 c 0,4,5
 1453.41 685.012 1453.41 685.012 1566 606 c 0,6,7
 1688 520 1688 520 1688 354.5 c 128,-1,8
 1688 189 1688 189 1582.5 94.5 c 128,-1,9
 1477 0 1477 0 1311 0 c 2,10,-1
 765 0 l 1,11,-1
 765 855 l 1,12,-1
 384 855 l 1,13,-1
 384 0 l 1,14,-1
 101 0 l 1,15,-1
 101 1063 l 1,16,-1
 1047 1063 l 1,0,-1
1393.5 245 m 128,-1,18
 1435 289 1435 289 1435 348.5 c 128,-1,19
 1435 408 1435 408 1394 448.5 c 128,-1,20
 1353 489 1353 489 1278 489 c 2,21,-1
 1048 489 l 1,22,-1
 1048 201 l 1,23,-1
 1284 201 l 2,24,17
 1352 201 1352 201 1393.5 245 c 128,-1,18
EndSplineSet
EndChar

StartChar: afii10107
Encoding: 1114 1114 546
Width: 1685
Flags: W
HStem: 0 207<1066 1359.1> 468 212<384 783 1066 1358.59> 1043 20G<101 384 783 1066>
VStem: 101 283<0 468 680 1063> 783 283<207 468 680 1063> 1405 234<246.824 441.896>
LayerCount: 2
Fore
SplineSet
1268 673 m 2,0,1
 1439 673 1439 673 1539 594.5 c 128,-1,2
 1639 516 1639 516 1639 343 c 2,3,-1
 1639 342 l 1,4,5
 1638 178 1638 178 1532 89 c 128,-1,6
 1426 0 1426 0 1261 0 c 2,7,-1
 783 0 l 1,8,-1
 783 468 l 1,9,-1
 384 468 l 1,10,-1
 384 0 l 1,11,-1
 101 0 l 1,12,-1
 101 1063 l 1,13,-1
 384 1063 l 1,14,-1
 384 680 l 1,15,-1
 783 680 l 1,16,-1
 783 1063 l 1,17,-1
 1066 1063 l 1,18,-1
 1066 673 l 1,19,-1
 1268 673 l 2,0,1
1066 207 m 1,20,-1
 1239 207 l 2,21,22
 1316 207 1316 207 1360.5 245.5 c 128,-1,23
 1405 284 1405 284 1405 346 c 128,-1,24
 1405 408 1405 408 1360 443 c 128,-1,25
 1315 478 1315 478 1239 478 c 2,26,-1
 1066 478 l 1,27,-1
 1066 207 l 1,20,-1
EndSplineSet
EndChar

StartChar: afii10193
Encoding: 1119 1119 550
Width: 1176
Flags: W
HStem: 0 215<384 463 731 792> 1043 20G<101 384 792 1075>
VStem: 101 283<215 1063> 463 268<-345.975 0> 477 239<-362 -16.0245> 792 283<215 1063>
LayerCount: 2
Fore
SplineSet
463 0 m 1,0,-1
 101 0 l 1,1,-1
 101 1063 l 1,2,-1
 384 1063 l 1,3,-1
 384 215 l 1,4,-1
 792 215 l 1,5,-1
 792 1063 l 1,6,-1
 1075 1063 l 1,7,-1
 1075 0 l 1,8,-1
 731 0 l 1,9,-1
 716 -362 l 1,10,-1
 477 -362 l 1,11,-1
 463 0 l 1,0,-1
EndSplineSet
EndChar

StartChar: endash
Encoding: 8211 8211 577
Width: 1220
Flags: W
HStem: 439 197<70 1150>
LayerCount: 2
Fore
SplineSet
1150 636 m 1,0,-1
 1150 439 l 1,1,-1
 70 439 l 1,2,-1
 70 636 l 1,3,-1
 1150 636 l 1,0,-1
EndSplineSet
EndChar

StartChar: emdash
Encoding: 8212 8212 578
Width: 1994
Flags: W
HStem: 439 197<-7 1990>
LayerCount: 2
Fore
SplineSet
1990 636 m 1,0,-1
 1990 439 l 1,1,-1
 -7 439 l 1,2,-1
 -7 636 l 1,3,-1
 1990 636 l 1,0,-1
EndSplineSet
EndChar

StartChar: quoteleft
Encoding: 8216 8216 579
Width: 420
Flags: W
HStem: 983 500<201 272>
VStem: 35 351
LayerCount: 2
Fore
SplineSet
386 983 m 1,0,-1
 201 983 l 1,1,-1
 35 1483 l 1,2,-1
 272 1483 l 1,3,-1
 386 983 l 1,0,-1
EndSplineSet
EndChar

StartChar: quoteright
Encoding: 8217 8217 580
Width: 421
Flags: W
HStem: 983 500<149 220>
VStem: 36 351
LayerCount: 2
Fore
SplineSet
220 983 m 1,0,-1
 36 983 l 1,1,-1
 149 1483 l 1,2,-1
 387 1483 l 1,3,-1
 220 983 l 1,0,-1
EndSplineSet
EndChar

StartChar: quotesinglbase
Encoding: 8218 8218 581
Width: 575
Flags: W
HStem: -288 499<226 298>
VStem: 113 352
LayerCount: 2
Fore
SplineSet
113 -288 m 1,0,-1
 226 211 l 1,1,-1
 465 211 l 1,2,-1
 298 -288 l 1,3,-1
 113 -288 l 1,0,-1
EndSplineSet
EndChar

StartChar: quotedblleft
Encoding: 8220 8220 582
Width: 714
Flags: W
HStem: 983 500<269 341 560 635>
VStem: 35 645
LayerCount: 2
Fore
SplineSet
493 983 m 1,0,-1
 341 1483 l 1,1,-1
 568 1483 l 1,2,-1
 680 983 l 1,3,-1
 493 983 l 1,0,-1
202 983 m 1,4,-1
 35 1483 l 1,5,-1
 274 1483 l 1,6,-1
 376 983 l 1,7,-1
 202 983 l 1,4,-1
EndSplineSet
EndChar

StartChar: quotedblright
Encoding: 8221 8221 583
Width: 1005
Flags: W
HStem: 983 500<597 672 891 962>
VStem: 190 645
LayerCount: 2
Fore
SplineSet
190 983 m 1,0,-1
 303 1483 l 1,1,-1
 530 1483 l 1,2,-1
 378 983 l 1,3,-1
 190 983 l 1,0,-1
495 983 m 1,4,-1
 597 1483 l 1,5,-1
 835 1483 l 1,6,-1
 668 983 l 1,7,-1
 495 983 l 1,4,-1
EndSplineSet
EndChar

StartChar: quotedblbase
Encoding: 8222 8222 584
Width: 1044
Flags: W
HStem: -288 499<524 596 888 960>
LayerCount: 2
Fore
SplineSet
164 -288 m 1,0,-1
 277 211 l 1,1,-1
 524 211 l 1,2,-1
 349 -288 l 1,3,-1
 164 -288 l 1,0,-1
518 -288 m 1,4,-1
 641 211 l 1,5,-1
 879 211 l 1,6,-1
 713 -288 l 1,7,-1
 518 -288 l 1,4,-1
EndSplineSet
EndChar

StartChar: dagger
Encoding: 8224 8224 585
Width: 992
Flags: W
HStem: 909 192<64 377 597 928> 1441 20G<377 597>
VStem: 377 207<113 909 1101 1461>
LayerCount: 2
Fore
SplineSet
377 113 m 1,0,-1
 377 909 l 1,1,-1
 64 909 l 1,2,-1
 64 1101 l 1,3,-1
 377 1101 l 1,4,-1
 377 1461 l 1,5,-1
 597 1461 l 1,6,-1
 597 1101 l 1,7,-1
 928 1101 l 1,8,-1
 928 909 l 1,9,-1
 584 909 l 1,10,-1
 584 113 l 1,11,-1
 377 113 l 1,0,-1
EndSplineSet
EndChar

StartChar: daggerdbl
Encoding: 8225 8225 586
Width: 995
Flags: W
HStem: 316 171<128 386 610 865> 892 171<130 385 609 867> 1432 20G<385 609>
VStem: 386 224<-73 316 487 892 1063 1452>
LayerCount: 2
Fore
SplineSet
386 487 m 1,0,-1
 385 892 l 1,1,-1
 130 892 l 1,2,-1
 130 1063 l 1,3,-1
 385 1063 l 1,4,-1
 385 1452 l 1,5,-1
 609 1452 l 1,6,-1
 609 1063 l 1,7,-1
 867 1063 l 1,8,-1
 867 892 l 1,9,-1
 609 892 l 1,10,-1
 610 487 l 1,11,-1
 865 487 l 1,12,-1
 865 316 l 1,13,-1
 610 316 l 1,14,-1
 610 -73 l 1,15,-1
 386 -73 l 1,16,-1
 386 316 l 1,17,-1
 128 316 l 1,18,-1
 128 487 l 1,19,-1
 386 487 l 1,0,-1
EndSplineSet
EndChar

StartChar: bullet
Encoding: 8226 8226 587
Width: 1038
Flags: W
HStem: 335 685<332.358 713.59>
VStem: 145 752<509.96 843.515>
LayerCount: 2
Fore
SplineSet
792.5 924 m 128,-1,1
 897 828 897 828 897 679.5 c 128,-1,2
 897 531 897 531 790 433 c 128,-1,3
 683 335 683 335 518.5 335 c 128,-1,4
 354 335 354 335 249.5 430.5 c 128,-1,5
 145 526 145 526 145 674 c 128,-1,6
 145 822 145 822 253 921 c 128,-1,7
 361 1020 361 1020 524.5 1020 c 128,-1,0
 688 1020 688 1020 792.5 924 c 128,-1,1
EndSplineSet
EndChar

StartChar: ellipsis
Encoding: 8230 8230 588
Width: 1587
Flags: W
HStem: -61 270<147 413 652 934 1172 1438>
VStem: 147 266<-61 209> 652 282<-61 209> 1172 266<-61 209>
LayerCount: 2
Fore
SplineSet
147 209 m 1,0,-1
 413 209 l 1,1,-1
 413 -61 l 1,2,-1
 147 -61 l 1,3,-1
 147 209 l 1,0,-1
652 209 m 1,4,-1
 934 209 l 1,5,-1
 934 -61 l 1,6,-1
 652 -61 l 1,7,-1
 652 209 l 1,4,-1
1172 209 m 1,8,-1
 1438 209 l 1,9,-1
 1438 -61 l 1,10,-1
 1172 -61 l 1,11,-1
 1172 209 l 1,8,-1
EndSplineSet
EndChar

StartChar: perthousand
Encoding: 8240 8240 589
Width: 2305
Flags: W
HStem: -27 173<1051.61 1250.3 1784.31 1984.61> 542 174<1050.73 1252.33 1786.81 1989.49> 715 173<308.581 504.976> 1285 173<306.28 503.473>
VStem: 65 200<943.697 1243.96> 548 202<944.212 1229.82> 803 204<201.181 486.819> 1294 201<196.364 500.876> 1540 203<186.952 492.746> 2029 196<202.212 504.06>
LayerCount: 2
Fore
SplineSet
1403 614 m 128,-1,1
 1495 512 1495 512 1495 347 c 0,2,3
 1495 179 1495 179 1401 76 c 0,4,5
 1308 -27 1308 -27 1147 -27 c 128,-1,6
 986 -27 986 -27 894.5 76.5 c 128,-1,7
 803 180 803 180 803 346 c 2,8,-1
 803 347 l 1,9,10
 799 375 799 375 799 408 c 0,11,12
 799 549 799 549 890.5 632.5 c 128,-1,13
 982 716 982 716 1146.5 716 c 128,-1,0
 1311 716 1311 716 1403 614 c 128,-1,1
750 1085 m 2,14,-1
 750 1084 l 2,15,16
 750 921 750 921 656 818 c 128,-1,17
 562 715 562 715 402.5 715 c 128,-1,18
 243 715 243 715 154 818 c 128,-1,19
 65 921 65 921 65 1086 c 128,-1,20
 65 1251 65 1251 156.5 1354.5 c 128,-1,21
 248 1458 248 1458 408.5 1458 c 128,-1,22
 569 1458 569 1458 659.5 1355.5 c 128,-1,23
 750 1253 750 1253 750 1085 c 2,14,-1
1639 613 m 128,-1,25
 1738 716 1738 716 1900.5 716 c 128,-1,26
 2063 716 2063 716 2147 634.5 c 128,-1,27
 2231 553 2231 553 2231 417 c 0,28,29
 2231 382 2231 382 2225 344 c 1,30,-1
 2225 343 l 2,31,32
 2225 180 2225 180 2132.5 76.5 c 128,-1,33
 2040 -27 2040 -27 1881.5 -27 c 128,-1,34
 1723 -27 1723 -27 1631.5 76.5 c 128,-1,35
 1540 180 1540 180 1540 345 c 128,-1,24
 1540 510 1540 510 1639 613 c 128,-1,25
1346 1452 m 1,36,-1
 425 -25 l 1,37,-1
 207 -25 l 1,38,-1
 1129 1452 l 1,39,-1
 1346 1452 l 1,36,-1
1007 346 m 2,40,-1
 1007 345 l 2,41,42
 1007 253 1007 253 1043 199.5 c 128,-1,43
 1079 146 1079 146 1150.5 146 c 128,-1,44
 1222 146 1222 146 1258 200 c 128,-1,45
 1294 254 1294 254 1294 344 c 0,46,47
 1294 542 1294 542 1151 542 c 0,48,49
 1080 542 1080 542 1043.5 488.5 c 128,-1,50
 1007 435 1007 435 1007 346 c 2,40,-1
2029 345 m 0,51,52
 2029 542 2029 542 1887 542 c 0,53,54
 1815 542 1815 542 1779 488.5 c 128,-1,55
 1743 435 1743 435 1743 345 c 0,56,57
 1743 146 1743 146 1888 146 c 0,58,59
 1958 146 1958 146 1993.5 200.5 c 128,-1,60
 2029 255 2029 255 2029 345 c 0,51,52
265 1114 m 1,61,-1
 265 1089 l 2,62,63
 265 996 265 996 300.5 942 c 128,-1,64
 336 888 336 888 406.5 888 c 128,-1,65
 477 888 477 888 512.5 942.5 c 128,-1,66
 548 997 548 997 548 1087.5 c 128,-1,67
 548 1178 548 1178 512 1231.5 c 128,-1,68
 476 1285 476 1285 408 1285 c 0,69,70
 276 1285 276 1285 265 1114 c 1,61,-1
EndSplineSet
EndChar

StartChar: guilsinglleft
Encoding: 8249 8249 590
Width: 572
Flags: W
VStem: 33 505
LayerCount: 2
Fore
SplineSet
315 924 m 1,0,-1
 538 924 l 1,1,-1
 267 546 l 1,2,-1
 531 171 l 1,3,-1
 309 171 l 1,4,-1
 33 546 l 1,5,-1
 315 924 l 1,0,-1
EndSplineSet
EndChar

StartChar: guilsinglright
Encoding: 8250 8250 591
Width: 573
Flags: W
VStem: 33 507
LayerCount: 2
Fore
SplineSet
540 547 m 1,0,-1
 254 171 l 1,1,-1
 33 171 l 1,2,-1
 303 547 l 1,3,-1
 41 924 l 1,4,-1
 261 924 l 1,5,-1
 540 547 l 1,0,-1
EndSplineSet
EndChar

StartChar: fraction
Encoding: 8260 8260 592
Width: 1158
Flags: W
HStem: 0 21G<33 259.13> 1426 20G<899.842 1124>
LayerCount: 2
Fore
SplineSet
912 1446 m 1,0,-1
 1124 1446 l 1,1,-1
 247 0 l 1,2,-1
 33 0 l 1,3,-1
 912 1446 l 1,0,-1
EndSplineSet
EndChar

StartChar: uni2074
Encoding: 8308 8308 593
Width: 889
Flags: W
HStem: 778 167<191 318 496 597>
VStem: 318 178<615 778 945 1150>
LayerCount: 2
Fore
SplineSet
495 778 m 1,0,-1
 494 615 l 1,1,-1
 320 615 l 1,2,-1
 320 778 l 1,3,-1
 -28 778 l 1,4,-1
 -28 904 l 1,5,6
 175 1206 175 1206 322 1422 c 1,7,-1
 496 1422 l 1,8,-1
 496 945 l 1,9,-1
 597 945 l 1,10,-1
 612 778 l 1,11,-1
 495 778 l 1,0,-1
318 1150 m 1,12,-1
 191 945 l 1,13,-1
 318 945 l 1,14,-1
 318 1150 l 1,12,-1
EndSplineSet
EndChar

StartChar: Euro
Encoding: 8364 8364 594
Width: 1184
Flags: W
HStem: -19 206<590.538 935.337> 493 198<98 188 448 947> 760 198<96 188 453 978> 1254 204<610.107 924.36>
VStem: 207 241<353.267 493>
LayerCount: 2
Fore
SplineSet
974 691 m 1,0,-1
 947 493 l 1,1,-1
 448 493 l 1,2,3
 477 345 477 345 549.5 266 c 128,-1,4
 622 187 622 187 766 187 c 0,5,6
 845 187 845 187 910 218 c 128,-1,7
 975 249 975 249 1044 307 c 1,8,-1
 1094 350 l 1,9,-1
 1093 91 l 1,10,11
 936 -19 936 -19 750 -19 c 0,12,13
 460 -19 460 -19 318 193 c 0,14,15
 235 316 235 316 207 493 c 1,16,-1
 70 493 l 1,17,-1
 98 691 l 1,18,-1
 188 691 l 1,19,-1
 188 759 l 1,20,-1
 67 759 l 1,21,-1
 96 957 l 1,22,-1
 212 957 l 1,23,24
 258 1170 258 1170 392 1308 c 0,25,26
 537 1458 537 1458 762 1458 c 128,-1,27
 987 1458 987 1458 1116 1320 c 1,28,-1
 1066 1040 l 1,29,-1
 1024 1105 l 1,30,31
 929 1254 929 1254 774 1254 c 0,32,33
 636 1254 636 1254 558 1164 c 0,34,35
 489 1084 489 1084 453 958 c 1,36,-1
 1006 958 l 1,37,-1
 978 760 l 1,38,-1
 425 760 l 1,39,-1
 425 715 l 1,40,-1
 426 701 l 1,41,-1
 426 691 l 1,42,-1
 974 691 l 1,0,-1
EndSplineSet
EndChar

StartChar: trademark
Encoding: 8482 8482 595
Width: 1792
Flags: W
HStem: 686 775<303 487 766 948 1438 1614> 1300 161<62 303 487 719>
VStem: 303 184<686 1300> 766 182<686 1163> 1438 176<686 1171>
LayerCount: 2
Fore
SplineSet
766 1461 m 1,0,-1
 1000 1461 l 1,1,-1
 1195 956 l 1,2,-1
 1398 1461 l 1,3,-1
 1614 1461 l 1,4,-1
 1614 686 l 1,5,-1
 1438 686 l 1,6,-1
 1438 1171 l 1,7,-1
 1241 686 l 1,8,-1
 1134 686 l 1,9,-1
 948 1163 l 1,10,-1
 948 686 l 1,11,-1
 766 686 l 1,12,-1
 766 1461 l 1,0,-1
61 1461 m 1,13,-1
 719 1461 l 1,14,-1
 719 1300 l 1,15,-1
 487 1300 l 1,16,-1
 487 686 l 1,17,-1
 303 686 l 1,18,-1
 303 1300 l 1,19,-1
 62 1300 l 1,20,-1
 61 1461 l 1,13,-1
EndSplineSet
EndChar

StartChar: partialdiff
Encoding: 8706 8706 596
Width: 1148
Flags: W
HStem: -44 20<392.529 582.666> 1038 20<488.179 567 568 575 576 665.48> 1329 20<485.218 630.96> 1543 20<487.075 687.836>
VStem: 54.9926 20.0074<323.734 560.244> 1066 20<677.506 1025.58>
LayerCount: 2
Fore
SplineSet
743 28 m 1,0,1
 635 -44 635 -44 509.5 -44 c 128,-1,2
 384 -44 384 -44 300.5 -6.5 c 0,3,4
 217 30 217 30 164 96 c 0,5,6
 54.9926 231.009 54.9926 231.009 54.9926 442.567 c 0,7,8
 54.9926 681.348 54.9926 681.348 188 862 c 0,9,10
 252 948 252 948 350.5 1001 c 128,-1,11
 449 1054 449 1054 567 1057 c 1,12,-1
 568 1058 l 1,13,-1
 578 1058 l 2,14,15
 718 1058 718 1058 823 969 c 1,16,17
 804 1329 804 1329 558 1329 c 0,18,19
 439 1329 439 1329 295 1218 c 1,20,-1
 258 1191 l 1,21,-1
 240 1447 l 1,22,-1
 264 1462 l 1,23,24
 401 1563 401 1563 580 1563 c 0,25,26
 695 1563 695 1563 784.5 1523 c 128,-1,27
 874 1483 874 1483 930 1417.5 c 128,-1,28
 986 1352 986 1352 1022 1258 c 0,29,30
 1086 1092 1086 1092 1086 855 c 128,-1,31
 1086 618 1086 618 1022.5 424.5 c 128,-1,32
 959 231 959 231 836 103 c 1,33,-1
 822 117 l 1,34,35
 941 241 941 241 1003.5 431 c 128,-1,36
 1066 621 1066 621 1066 854 c 0,37,38
 1066 1376 1066 1376 776 1505 c 0,39,40
 690 1543 690 1543 603 1543 c 128,-1,41
 516 1543 516 1543 453.5 1525.5 c 128,-1,42
 391 1508 391 1508 353.5 1489 c 128,-1,43
 316 1470 316 1470 260 1437 c 1,44,-1
 276 1229 l 1,45,46
 404 1322 404 1322 459.5 1335.5 c 128,-1,47
 515 1349 515 1349 566.5 1349 c 128,-1,48
 618 1349 618 1349 666 1328 c 128,-1,49
 714 1307 714 1307 746 1271 c 0,50,51
 778 1236 778 1236 800 1184 c 0,52,53
 840 1091 840 1091 844 946 c 1,54,-1
 845 922 l 1,55,-1
 827 939 l 1,56,57
 725 1038 725 1038 578 1038 c 2,58,-1
 576 1038 l 1,59,-1
 575 1037 l 1,60,61
 460 1035 460 1035 364 985 c 0,62,63
 268 934 268 934 206 852 c 0,64,65
 76 680 76 680 75 439 c 0,66,67
 75 158 75 158 261 38 c 0,68,69
 356 -24 356 -24 487 -24 c 128,-1,70
 618 -24 618 -24 732 45 c 1,71,-1
 743 28 l 1,0,1
828 663 m 1,72,73
 802 447 802 447 709 309 c 128,-1,74
 616 171 616 171 492 171 c 0,75,76
 393 171 393 171 344 243.5 c 128,-1,77
 295 316 295 316 295 429.5 c 128,-1,78
 295 543 295 543 329.5 634.5 c 128,-1,79
 364 726 364 726 435 785 c 128,-1,80
 506 844 506 844 596 844 c 128,-1,81
 686 844 686 844 743 794 c 128,-1,82
 800 744 800 744 828 663 c 1,72,73
EndSplineSet
EndChar

StartChar: uni2206
Encoding: 8710 8710 597
Width: 1268
Flags: W
HStem: 1439 20G<507.539 755.437>
LayerCount: 2
Fore
SplineSet
600 1260 m 1,0,1
 597 1271 597 1271 584 1271 c 128,-1,2
 571 1271 571 1271 571 1256 c 128,-1,3
 571 1241 571 1241 577 1222 c 128,-1,4
 583 1203 583 1203 595.5 1170 c 128,-1,5
 608 1137 608 1137 614 1119 c 1,6,-1
 617 1120 l 1,7,-1
 626 1149 l 1,8,-1
 706 909 l 2,9,10
 726 850 726 850 766 739.5 c 128,-1,11
 806 629 806 629 820 588 c 1,12,-1
 816 586 l 1,13,-1
 902 332 l 1,14,15
 909 325 909 325 914 325 c 128,-1,16
 919 325 919 325 919 331 c 0,17,18
 919 377 919 377 775 782 c 128,-1,19
 631 1187 631 1187 600 1260 c 1,0,1
1247 117 m 1,20,-1
 1247 -20 l 1,21,-1
 14 -20 l 1,22,-1
 14 116 l 1,23,-1
 515 1459 l 1,24,-1
 748 1459 l 1,25,-1
 1247 117 l 1,20,-1
EndSplineSet
EndChar

StartChar: product
Encoding: 8719 8719 598
Width: 1523
Flags: W
HStem: 1228 205<119 236 468 1068 1302 1408>
VStem: 236 232<-329 1228> 1068 234<-329 1228>
LayerCount: 2
Fore
SplineSet
98 1433 m 1,0,-1
 1429 1433 l 1,1,-1
 1408 1232 l 1,2,-1
 1408 1228 l 1,3,-1
 1302 1228 l 1,4,-1
 1302 -329 l 1,5,-1
 1068 -329 l 1,6,-1
 1068 1228 l 1,7,-1
 468 1228 l 1,8,-1
 468 -329 l 1,9,-1
 236 -329 l 1,10,-1
 236 1228 l 1,11,-1
 119 1228 l 1,12,-1
 98 1433 l 1,0,-1
EndSplineSet
EndChar

StartChar: summation
Encoding: 8721 8721 599
Width: 1226
Flags: W
HStem: -329 208<362 1192> 1231 202<390 1149>
LayerCount: 2
Fore
SplineSet
1192 -121 m 1,0,-1
 1192 -329 l 1,1,-1
 50 -329 l 1,2,-1
 50 -202 l 1,3,-1
 640 557 l 1,4,-1
 71 1301 l 1,5,-1
 71 1433 l 1,6,-1
 1149 1433 l 1,7,-1
 1149 1231 l 1,8,-1
 390 1231 l 1,9,-1
 895 565 l 1,10,-1
 362 -121 l 1,11,-1
 1192 -121 l 1,0,-1
EndSplineSet
EndChar

StartChar: minus
Encoding: 8722 8722 600
Width: 1422
Flags: W
HStem: 446 197<183 1227>
LayerCount: 2
Fore
SplineSet
183 643 m 1,0,-1
 1227 643 l 1,1,-1
 1227 446 l 1,2,-1
 183 446 l 1,3,-1
 183 643 l 1,0,-1
EndSplineSet
EndChar

StartChar: radical
Encoding: 8730 8730 601
Width: 1276
Flags: W
LayerCount: 2
Fore
SplineSet
657 200 m 1,0,1
 741 560 741 560 855 1004 c 128,-1,2
 969 1448 969 1448 1008 1606 c 1,3,-1
 1197 1606 l 1,4,-1
 744 -152 l 1,5,-1
 580 -152 l 1,6,-1
 274 662 l 1,7,-1
 105 634 l 1,8,-1
 76 804 l 1,9,-1
 406 865 l 1,10,-1
 625 238 l 1,11,-1
 648 164 l 1,12,-1
 657 200 l 1,0,1
EndSplineSet
EndChar

StartChar: infinity
Encoding: 8734 8734 602
Width: 1621
Flags: W
HStem: 236 180<328.544 586.34 1032.47 1286.68> 780 174<320.9 475 1031.32 1287.64>
VStem: 87 183<473.186 727.407> 1334 195<465.458 623>
LayerCount: 2
Fore
SplineSet
1336 624 m 1,0,1
 1331 696 1331 696 1287 738 c 128,-1,2
 1243 780 1243 780 1183 780 c 128,-1,3
 1123 780 1123 780 1083.5 764.5 c 128,-1,4
 1044 749 1044 749 1010 719 c 0,5,6
 956 671 956 671 905 598 c 1,7,8
 991 484 991 484 1042 453 c 0,9,10
 1104 415 1104 415 1169 415 c 0,11,12
 1334 415 1334 415 1334 620 c 2,13,-1
 1334 623 l 1,14,-1
 1336 624 l 1,0,1
712 595 m 1,15,16
 652 682 652 682 591 731 c 128,-1,17
 530 780 530 780 445 780 c 128,-1,18
 360 780 360 780 315 730 c 128,-1,19
 270 680 270 680 270 599.5 c 128,-1,20
 270 519 270 519 319.5 467.5 c 128,-1,21
 369 416 369 416 451 416 c 0,22,23
 538 416 538 416 606 476 c 0,24,25
 656 522 656 522 712 595 c 1,15,16
809 470 m 1,26,27
 684 298 684 298 568 256 c 0,28,29
 514 236 514 236 450 236 c 0,30,31
 290 236 290 236 188.5 345.5 c 128,-1,32
 87 455 87 455 87 607.5 c 128,-1,33
 87 760 87 760 193 857.5 c 128,-1,34
 299 955 299 955 445 955 c 2,35,-1
 452 955 l 1,36,-1
 475 953 l 2,37,38
 636 938 636 938 762 784 c 0,39,40
 784 758 784 758 809 722 c 1,41,42
 935 895 935 895 1050 935 c 0,43,44
 1105 954 1105 954 1169 954 c 0,45,46
 1330 954 1330 954 1429.5 856 c 128,-1,47
 1529 758 1529 758 1529 601 c 128,-1,48
 1529 444 1529 444 1426.5 340 c 128,-1,49
 1324 236 1324 236 1168 236 c 0,50,51
 996 236 996 236 862 401 c 0,52,53
 838 430 838 430 809 470 c 1,26,27
EndSplineSet
EndChar

StartChar: integral
Encoding: 8747 8747 603
Width: 764
Flags: W
HStem: -399 195<115.352 347.96> 1447 194.008<656.792 888.656>
VStem: 372 259<-162.22 1405.22>
LayerCount: 2
Fore
SplineSet
112 -173 m 1,0,-1
 155 -191 l 2,1,2
 188 -204 188 -204 256 -204 c 128,-1,3
 324 -204 324 -204 348 -163.5 c 128,-1,4
 372 -123 372 -123 372 -22 c 2,5,-1
 372 1246 l 2,6,7
 372 1418 372 1418 451 1524 c 0,8,9
 537.269 1641.01 537.269 1641.01 728.747 1641.01 c 0,10,-1
 732 1641 l 0,11,12
 776 1641 776 1641 867 1620 c 2,13,-1
 889 1615 l 1,14,-1
 893 1416 l 1,15,-1
 851 1434 l 1,16,17
 818 1447 818 1447 749.5 1447 c 128,-1,18
 681 1447 681 1447 656 1406.5 c 128,-1,19
 631 1366 631 1366 631 1265 c 2,20,-1
 631 -3 l 2,21,22
 632 -174 632 -174 554 -281 c 0,23,24
 469 -399 469 -399 274 -399 c 0,25,26
 216 -399 216 -399 137 -376 c 1,27,-1
 115 -370 l 1,28,-1
 112 -173 l 1,0,-1
EndSplineSet
EndChar

StartChar: approxequal
Encoding: 8776 8776 604
Width: 1315
Flags: W
HStem: 259 178<751.414 955.322> 403 180<359.459 513.527> 610.987 177.013<722.41 959.088> 750.507 177.493<358.93 573.312>
VStem: 143 162<292.968 361.678 618.89 702.914>
LayerCount: 2
Fore
SplineSet
771.5 810 m 128,-1,1
 824 788 824 788 872.5 788 c 128,-1,2
 921 788 921 788 950 818.5 c 128,-1,3
 979 849 979 849 1002 910 c 1,4,-1
 1011 936 l 1,5,-1
 1171 897 l 1,6,-1
 1165 870 l 2,7,8
 1140 756 1140 756 1066 683.5 c 128,-1,9
 992 611 992 611 864 611 c 0,10,11
 862.582 610.987 862.582 610.987 861.159 610.987 c 0,12,13
 750.177 610.987 750.177 610.987 608 688 c 0,14,15
 492 750 492 750 440 750.5 c 0,16,-1
 438.617 750.507 l 0,17,18
 387.6 750.507 387.6 750.507 358 714 c 0,19,20
 328 677 328 677 312 608 c 1,21,-1
 305 580 l 1,22,-1
 137 621 l 1,23,-1
 143 648 l 2,24,25
 180 816 180 816 297 888 c 0,26,27
 362 928 362 928 436.5 928 c 128,-1,28
 511 928 511 928 573.5 906 c 128,-1,29
 636 884 636 884 677.5 858 c 128,-1,0
 719 832 719 832 771.5 810 c 128,-1,1
445 583 m 1,30,-1
 449 583 l 2,31,32
 451.064 583.021 451.064 583.021 453.128 583.021 c 0,33,-1
 643 538 l 0,34,35
 676 522 676 522 728.5 493.5 c 128,-1,36
 781 465 781 465 810.5 451 c 128,-1,37
 840 437 840 437 880.5 437 c 128,-1,38
 921 437 921 437 950 473.5 c 128,-1,39
 979 510 979 510 1005 583 c 1,40,-1
 1014 605 l 2,41,42
 1014 606 1014 606 1014.5 607 c 128,-1,43
 1015 608 1015 608 1015 609 c 2,44,-1
 1174 567 l 1,45,-1
 1168 539 l 2,46,47
 1141 415 1141 415 1067.5 337 c 128,-1,48
 994 259 994 259 866 259 c 0,49,50
 758 259 758 259 612 340 c 0,51,52
 499 403 499 403 444 403 c 128,-1,53
 389 403 389 403 358.5 372 c 128,-1,54
 328 341 328 341 311 284 c 2,55,-1
 303 256 l 1,56,-1
 138 295 l 1,57,-1
 146 322 l 1,58,59
 175 434 175 434 248.5 505 c 128,-1,60
 322 576 322 576 445 581 c 1,61,-1
 445 583 l 1,30,-1
EndSplineSet
EndChar

StartChar: notequal
Encoding: 8800 8800 605
Width: 1321
Flags: W
HStem: 299 180<160 420 692 1159> 703 181<160 613 885 1158>
LayerCount: 2
Fore
SplineSet
694 884 m 1,0,-1
 826 1134 l 1,1,-1
 994 1111 l 2,2,3
 995 1111 995 1111 997.5 1110.5 c 128,-1,4
 1000 1110 1000 1110 1001 1110 c 2,5,-1
 885 883 l 1,6,-1
 1158 883 l 1,7,-1
 1173 702 l 1,8,-1
 802 702 l 1,9,-1
 692 479 l 1,10,-1
 1159 479 l 1,11,-1
 1173 299 l 1,12,-1
 608 299 l 1,13,-1
 475 43 l 1,14,-1
 301 68 l 1,15,-1
 420 300 l 1,16,-1
 160 300 l 1,17,-1
 149 480 l 1,18,-1
 505 480 l 1,19,-1
 613 703 l 1,20,-1
 160 703 l 1,21,-1
 147 884 l 1,22,-1
 694 884 l 1,0,-1
EndSplineSet
EndChar

StartChar: lessequal
Encoding: 8804 8804 606
Width: 1208
Flags: W
HStem: 0 162<145 1061>
LayerCount: 2
Fore
SplineSet
1061 163 m 1,0,-1
 1061 0 l 1,1,-1
 145 0 l 1,2,-1
 145 162 l 1,3,-1
 1061 163 l 1,0,-1
405 737 m 1,4,-1
 1061 425 l 1,5,-1
 1061 222 l 1,6,-1
 145 675 l 1,7,-1
 145 799 l 1,8,-1
 1061 1260 l 1,9,-1
 1061 1057 l 1,10,-1
 405 737 l 1,4,-1
EndSplineSet
EndChar

StartChar: greaterequal
Encoding: 8805 8805 607
Width: 1208
Flags: W
HStem: 0 163<148 1064>
LayerCount: 2
Fore
SplineSet
148 163 m 1,0,-1
 1064 162 l 1,1,-1
 1064 0 l 1,2,-1
 148 0 l 1,3,-1
 148 163 l 1,0,-1
804 737 m 1,4,-1
 148 1057 l 1,5,-1
 148 1260 l 1,6,-1
 1064 799 l 1,7,-1
 1064 675 l 1,8,-1
 148 222 l 1,9,-1
 148 425 l 1,10,-1
 804 737 l 1,4,-1
EndSplineSet
EndChar

StartChar: lozenge
Encoding: 9674 9674 608
Width: 1223
Flags: W
HStem: 1459 20G<536.22 691.638>
LayerCount: 2
Fore
SplineSet
616 1268 m 1,0,1
 593 1224 593 1224 310 717 c 1,2,3
 362 617 362 617 462 432 c 128,-1,4
 562 247 562 247 606 164 c 1,5,-1
 912 716 l 1,6,7
 869 798 869 798 768.5 983.5 c 128,-1,8
 668 1169 668 1169 616 1268 c 1,0,1
680 1479 m 1,9,-1
 1124 716 l 1,10,-1
 671 -46 l 1,11,-1
 540 -46 l 1,12,-1
 98 715 l 1,13,-1
 548 1479 l 1,14,-1
 680 1479 l 1,9,-1
EndSplineSet
EndChar

StartChar: uniFB01
Encoding: 64257 64257 610
Width: 1199
Flags: W
HStem: 0 21G<178 461 799 1082> 894 169<7 178 461 799> 1246 232<799 1083> 1336 210<488.859 644>
VStem: 178 283<0 894 1063 1295.25> 799 283<0 894 1246 1478>
LayerCount: 2
Fore
SplineSet
178 0 m 1,0,-1
 178 894 l 1,1,-1
 7 894 l 1,2,-1
 7 1063 l 1,3,-1
 178 1063 l 1,4,-1
 178 1096 l 2,5,6
 178 1285 178 1285 208 1363 c 0,7,8
 240 1444 240 1444 280.5 1471.5 c 0,9,10
 322 1499 322 1499 362 1515 c 0,11,12
 440 1546 440 1546 579 1546 c 2,13,-1
 644 1546 l 1,14,-1
 665 1336 l 1,15,-1
 605 1336 l 2,16,17
 515 1336 515 1336 488 1296.5 c 128,-1,18
 461 1257 461 1257 461 1152 c 2,19,-1
 461 1063 l 1,20,-1
 1082 1063 l 1,21,-1
 1082 0 l 1,22,-1
 799 0 l 1,23,-1
 799 894 l 1,24,-1
 461 894 l 1,25,-1
 461 0 l 1,26,-1
 178 0 l 1,0,-1
799 1478 m 1,27,-1
 1083 1478 l 1,28,-1
 1083 1246 l 1,29,-1
 799 1246 l 1,30,-1
 799 1478 l 1,27,-1
EndSplineSet
EndChar

StartChar: uniFB02
Encoding: 64258 64258 611
Width: 1421
Flags: W
HStem: -13 211<1196.76 1392.42> 1 201<1094 1243 1258.41 1324.44 1327.55 1392.5> 894 169<7 178 461 687> 1341 208<500.634 879.857>
VStem: 178 283<0 894 1063 1294.67> 883 283<256.177 1328.93>
LayerCount: 2
Fore
SplineSet
1243 208 m 128,-1,1
 1276 198 1276 198 1326 198 c 128,-1,2
 1376 198 1376 198 1392 202 c 1,3,-1
 1404 1 l 1,4,5
 1349 -13 1349 -13 1255.5 -13 c 128,-1,6
 1162 -13 1162 -13 1094 10.5 c 128,-1,7
 1026 34 1026 34 985.5 72.5 c 0,8,9
 945 112 945 112 922 174 c 0,10,11
 883 280 883 280 883 455 c 2,12,-1
 883 1322 l 1,13,14
 776 1341 776 1341 689.5 1341 c 128,-1,15
 603 1341 603 1341 562.5 1330.5 c 128,-1,16
 522 1320 522 1320 500 1296 c 0,17,18
 462 1254 462 1254 461 1152 c 2,19,-1
 461 1063 l 1,20,-1
 687 1063 l 1,21,-1
 687 894 l 1,22,-1
 461 894 l 1,23,-1
 461 0 l 1,24,-1
 178 0 l 1,25,-1
 178 894 l 1,26,-1
 7 894 l 1,27,-1
 7 1063 l 1,28,-1
 178 1063 l 1,29,-1
 178 1118 l 2,30,31
 178 1337 178 1337 279.5 1443 c 128,-1,32
 381 1549 381 1549 616 1549 c 0,33,34
 825 1549 825 1549 1079 1511 c 2,35,-1
 1166 1498 l 1,36,-1
 1166 415 l 2,37,38
 1166 292 1166 292 1188 255 c 128,-1,0
 1210 218 1210 218 1243 208 c 128,-1,1
EndSplineSet
EndChar

StartChar: uni031B
Encoding: 795 795 613
Width: 565
Flags: W
HStem: -388 183<126.213 291.5>
VStem: 263 161<-192.345 8.45862>
LayerCount: 2
Fore
SplineSet
159 -205 m 0,0,1
 263 -205 263 -205 263 -104 c 0,2,3
 263 -63 263 -63 245 11 c 1,4,-1
 388 11 l 1,5,6
 424 -78 424 -78 424 -155 c 128,-1,7
 424 -232 424 -232 408 -279 c 128,-1,8
 392 -326 392 -326 355 -357 c 128,-1,9
 318 -388 318 -388 265 -388 c 128,-1,10
 212 -388 212 -388 161 -363.5 c 128,-1,11
 110 -339 110 -339 76 -297 c 1,12,-1
 76 -194 l 1,13,14
 124 -205 124 -205 159 -205 c 0,0,1
EndSplineSet
EndChar

StartChar: periodcentered.001
Encoding: 65540 -1 614
Width: 471
Flags: W
HStem: 463 270<67 333>
VStem: 67 266<463 733>
LayerCount: 2
Fore
SplineSet
67 733 m 1,0,-1
 333 733 l 1,1,-1
 333 463 l 1,2,-1
 67 463 l 1,3,-1
 67 733 l 1,0,-1
EndSplineSet
EndChar

StartChar: Scommaaccent
Encoding: 65542 -1 617
Width: 1173
Flags: W
HStem: -23 229<366.898 816.877> 1258 226<449.368 883.954>
VStem: 130 249<967.164 1194.08> 897 253<279.186 530.42>
LayerCount: 2
Fore
SplineSet
600 -674 m 1,0,-1
 436 -674 l 1,1,-1
 539 -151 l 1,2,-1
 758 -151 l 1,3,-1
 600 -674 l 1,0,-1
640 1258 m 0,4,5
 379 1258 379 1258 379 1075 c 0,6,7
 379 998 379 998 435 958 c 0,8,9
 480 926 480 926 568 897 c 2,10,-1
 746 841 l 1,11,12
 1022 753 1022 753 1104 605 c 0,13,14
 1150 523 1150 523 1150 424.5 c 128,-1,15
 1150 326 1150 326 1123 253.5 c 128,-1,16
 1096 181 1096 181 1048 130.5 c 128,-1,17
 1000 80 1000 80 934 45 c 0,18,19
 805 -23 805 -23 623 -23 c 1,20,21
 354 -23 354 -23 138 107 c 1,22,-1
 116 120 l 1,23,-1
 205 342 l 1,24,-1
 236 319 l 1,25,26
 396 206 396 206 631 206 c 0,27,28
 757 206 757 206 827 256.5 c 128,-1,29
 897 307 897 307 897 410 c 0,30,31
 897 518 897 518 800 572 c 0,32,33
 750 600 750 600 662 628 c 2,34,-1
 488 682 l 1,35,36
 232 758 232 758 160 918 c 0,37,38
 130 985 130 985 130 1078 c 128,-1,39
 130 1171 130 1171 171 1251.5 c 128,-1,40
 212 1332 212 1332 283 1382 c 0,41,42
 428 1484 428 1484 640 1484 c 0,43,44
 906 1484 906 1484 1081 1367 c 1,45,-1
 1102 1352 l 1,46,-1
 1017 1155 l 1,47,-1
 1014 1149 l 1,48,49
 838 1258 838 1258 640 1258 c 0,4,5
EndSplineSet
EndChar

StartChar: commaaccent
Encoding: 65543 -1 618
Width: 657
Flags: W
HStem: -653 523<213 282>
VStem: 97 360
LayerCount: 2
Fore
SplineSet
282 -653 m 1,0,-1
 97 -653 l 1,1,-1
 213 -130 l 1,2,-1
 457 -130 l 1,3,-1
 282 -653 l 1,0,-1
277 0 m 0,4,-1
EndSplineSet
EndChar

StartChar: macron
Encoding: 65544 -1 619
Width: 788
Flags: W
HStem: 1258 179<71 674>
VStem: 71 603<1258 1437>
LayerCount: 2
Fore
SplineSet
674 1258 m 1,0,-1
 71 1258 l 1,1,-1
 71 1437 l 1,2,-1
 674 1437 l 1,3,-1
 674 1258 l 1,0,-1
EndSplineSet
EndChar

StartChar: scommaaccent
Encoding: 65545 -1 620
Width: 1016
Flags: W
HStem: -48 191<280.619 666.467> 861 194.014<379.054 739.055>
VStem: 108 220<680.664 827.858> 704 219<180.771 349.72>
LayerCount: 2
Fore
SplineSet
513 -625 m 1,0,-1
 326 -625 l 1,1,-1
 444 -102 l 1,2,-1
 697 -102 l 1,3,-1
 513 -625 l 1,0,-1
200 249 m 1,4,5
 291 143 291 143 497.5 143 c 128,-1,6
 704 143 704 143 704 271 c 0,7,8
 704 306 704 306 685.5 327.5 c 128,-1,9
 667 349 667 349 630 366.5 c 128,-1,10
 593 384 593 384 531 404 c 128,-1,11
 469 424 469 424 416 438.5 c 128,-1,12
 363 453 363 453 304 480.5 c 0,13,14
 246 508 246 508 204 540 c 0,15,16
 108 615 108 615 108 755 c 0,17,18
 108 906 108 906 230 984 c 0,19,20
 340.466 1055.01 340.466 1055.01 492.762 1055.01 c 0,21,-1
 497 1055 l 0,22,23
 734 1055 734 1055 845 973 c 1,24,-1
 862 959 l 1,25,-1
 805 777 l 1,26,-1
 771 798 l 1,27,28
 677 861 677 861 506 861 c 0,29,30
 427 861 427 861 377.5 832.5 c 128,-1,31
 328 804 328 804 328 753 c 0,32,33
 328 676 328 676 480 630 c 0,34,35
 504 622 504 622 546 610.5 c 128,-1,36
 588 599 588 599 616.5 589.5 c 128,-1,37
 645 580 645 580 671 571 c 128,-1,38
 697 562 697 562 732 546 c 128,-1,39
 767 530 767 530 791.5 513.5 c 128,-1,40
 816 497 816 497 843 472.5 c 128,-1,41
 870 448 870 448 886 421 c 0,42,43
 923 359 923 359 923 277.5 c 128,-1,44
 923 196 923 196 886 132 c 128,-1,45
 849 68 849 68 786 30 c 0,46,47
 659 -48 659 -48 484 -48 c 0,48,49
 230 -48 230 -48 108 82 c 1,50,-1
 164 293 l 1,51,-1
 200 249 l 1,4,5
EndSplineSet
EndChar
